<svg width="22" height="20" viewBox="0 0 22 20" fill="none" xmlns="http://www.w3.org/2000/svg">
<path d="M10.1671 1.5697C10.4551 0.8101 11.545 0.8101 11.8339 1.5697L13.6969 6.73031C13.8274 7.07231 14.1595 7.30001 14.5303 7.30001H19.1086C19.9546 7.30001 20.3236 8.35301 19.6585 8.86871L16.4005 11.8C16.2546 11.9122 16.1479 12.0677 16.0959 12.2443C16.0438 12.4209 16.049 12.6094 16.1107 12.7828L17.3005 17.8255C17.5903 18.6355 16.6525 19.3312 15.9433 18.8326L11.518 16.0246C11.3665 15.9181 11.1858 15.861 11.0005 15.861C10.8153 15.861 10.6346 15.9181 10.483 16.0246L6.05772 18.8326C5.34941 19.3312 4.41071 18.6346 4.70051 17.8255L5.89031 12.7828C5.95204 12.6094 5.95724 12.4209 5.90517 12.2443C5.85311 12.0677 5.74646 11.9122 5.60051 11.8L2.34251 8.86871C1.67651 8.35301 2.04731 7.30001 2.89151 7.30001H7.46982C7.65008 7.30061 7.82628 7.24646 7.97509 7.14473C8.12391 7.04301 8.23833 6.89849 8.30322 6.73031L10.1662 1.5697H10.1671Z" stroke="#FFB800" stroke-width="2" stroke-linecap="round" stroke-linejoin="round"/>
</svg>
