<svg width="18" height="18" viewBox="0 0 18 18" fill="none" xmlns="http://www.w3.org/2000/svg">
<path d="M9.8913 1.1413C9.8913 0.838612 9.77106 0.548316 9.55702 0.33428C9.34299 0.120244 9.05269 0 8.75 0C8.44731 0 8.15701 0.120244 7.94298 0.33428C7.72894 0.548316 7.6087 0.838612 7.6087 1.1413V7.6087H1.1413C0.838612 7.6087 0.548316 7.72894 0.33428 7.94298C0.120244 8.15701 0 8.44731 0 8.75C0 9.05269 0.120244 9.34299 0.33428 9.55702C0.548316 9.77106 0.838612 9.8913 1.1413 9.8913H7.6087V16.3587C7.6087 16.6614 7.72894 16.9517 7.94298 17.1657C8.15701 17.3798 8.44731 17.5 8.75 17.5C9.05269 17.5 9.34299 17.3798 9.55702 17.1657C9.77106 16.9517 9.8913 16.6614 9.8913 16.3587V9.8913H16.3587C16.6614 9.8913 16.9517 9.77106 17.1657 9.55702C17.3798 9.34299 17.5 9.05269 17.5 8.75C17.5 8.44731 17.3798 8.15701 17.1657 7.94298C16.9517 7.72894 16.6614 7.6087 16.3587 7.6087H9.8913V1.1413Z" fill="#A8A8A8"/>
</svg>
