<svg width="11" height="13" viewBox="0 0 11 13" fill="none" xmlns="http://www.w3.org/2000/svg">
<path fill-rule="evenodd" clip-rule="evenodd" d="M5.5 13C5.29165 13 5.09184 12.9144 4.94451 12.7621C4.79719 12.6097 4.71443 12.4031 4.71443 12.1876L4.71443 2.77502L1.34275 6.2635C1.26971 6.33904 1.183 6.39895 1.08757 6.43983C0.99214 6.48071 0.889857 6.50175 0.786565 6.50175C0.683271 6.50175 0.580989 6.48071 0.485558 6.43983C0.390128 6.39895 0.303418 6.33904 0.230379 6.2635C0.15734 6.18797 0.0994012 6.0983 0.0598724 5.99961C0.0203445 5.90092 -2.53314e-07 5.79514 -2.48644e-07 5.68832C-2.43975e-07 5.58149 0.0203445 5.47572 0.0598724 5.37703C0.0994012 5.27834 0.15734 5.18867 0.230379 5.11313L4.94381 0.238675C5.01679 0.163019 5.10348 0.102993 5.19892 0.0620371C5.29436 0.0210812 5.39667 -2.44929e-07 5.5 -2.40413e-07C5.60333 -2.35896e-07 5.70564 0.0210812 5.80108 0.0620371C5.89652 0.102993 5.98321 0.163019 6.05619 0.238675L10.7696 5.11313C10.9171 5.26568 11 5.47258 11 5.68832C11 5.90405 10.9171 6.11095 10.7696 6.2635C10.6221 6.41605 10.422 6.50175 10.2134 6.50175C10.0048 6.50175 9.80476 6.41605 9.65725 6.2635L6.28557 2.77502L6.28557 12.1876C6.28557 12.4031 6.20281 12.6097 6.05548 12.7621C5.90816 12.9144 5.70835 13 5.5 13Z" fill="white"/>
</svg>
