<svg width="17" height="17" viewBox="0 0 17 17" fill="none" xmlns="http://www.w3.org/2000/svg">
<path fill-rule="evenodd" clip-rule="evenodd" d="M3.90388 13.0961C3.75655 12.9488 3.67579 12.747 3.67934 12.5351C3.6829 12.3232 3.7705 12.1186 3.92285 11.9662L10.5785 5.31051L5.72768 5.3931C5.62262 5.39487 5.51894 5.37592 5.42256 5.33735C5.32617 5.29878 5.23897 5.24133 5.16593 5.16829C5.09289 5.09525 5.03544 5.00805 4.99687 4.91166C4.9583 4.81528 4.93935 4.7116 4.94111 4.60654C4.94288 4.50148 4.96532 4.39711 5.00715 4.29937C5.04899 4.20164 5.10939 4.11245 5.18493 4.03692C5.26046 3.96139 5.34965 3.90098 5.44738 3.85914C5.54512 3.81731 5.64949 3.79487 5.75455 3.7931L12.5342 3.67925C12.6393 3.67735 12.7431 3.6962 12.8395 3.73473C12.9359 3.77325 13.0232 3.83069 13.0963 3.90376C13.1693 3.97682 13.2268 4.06408 13.2653 4.16053C13.3038 4.25697 13.3227 4.36071 13.3208 4.46581L13.2069 11.2455C13.2034 11.4576 13.1157 11.6625 12.9631 11.8151C12.8106 11.9676 12.6057 12.0553 12.3935 12.0589C12.1813 12.0625 11.9792 11.9816 11.8317 11.8341C11.6842 11.6866 11.6034 11.4845 11.6069 11.2723L11.6895 6.42148L5.03382 13.0772C4.88146 13.2295 4.67682 13.3171 4.46492 13.3207C4.25301 13.3242 4.0512 13.2435 3.90388 13.0961Z" fill="white"/>
</svg>
