<svg width="13" height="11" viewBox="0 0 13 11" fill="none" xmlns="http://www.w3.org/2000/svg">
<path fill-rule="evenodd" clip-rule="evenodd" d="M4.80825e-07 5.5C4.9904e-07 5.29165 0.0855928 5.09184 0.237949 4.94451C0.390305 4.79719 0.596945 4.71443 0.812409 4.71443L10.225 4.71443L6.7365 1.34275C6.66096 1.26971 6.60105 1.183 6.56017 1.08757C6.51929 0.992139 6.49825 0.889857 6.49825 0.786564C6.49825 0.683271 6.51929 0.580988 6.56017 0.485558C6.60105 0.390128 6.66096 0.303418 6.7365 0.230379C6.81203 0.15734 6.9017 0.0994009 7.00039 0.0598721C7.09909 0.0203442 7.20486 -5.06627e-07 7.31168 -4.97288e-07C7.41851 -4.8795e-07 7.52428 0.0203443 7.62297 0.0598722C7.72166 0.099401 7.81134 0.15734 7.88687 0.230379L12.7613 4.94381C12.837 5.01679 12.897 5.10348 12.938 5.19892C12.9789 5.29436 13 5.39667 13 5.5C13 5.60333 12.9789 5.70564 12.938 5.80108C12.897 5.89652 12.837 5.98321 12.7613 6.05619L7.88687 10.7696C7.73432 10.9171 7.52742 11 7.31168 11C7.09595 11 6.88905 10.9171 6.7365 10.7696C6.58395 10.6221 6.49825 10.422 6.49825 10.2134C6.49825 10.0048 6.58395 9.80476 6.7365 9.65725L10.225 6.28557L0.812409 6.28557C0.596945 6.28557 0.390305 6.20281 0.237949 6.05548C0.0855927 5.90816 4.62611e-07 5.70835 4.80825e-07 5.5Z" fill="white"/>
</svg>
