<svg width="20" height="18" viewBox="0 0 20 18" fill="none" xmlns="http://www.w3.org/2000/svg">
<path fill-rule="evenodd" clip-rule="evenodd" d="M-2.64708e-06 8.99989C-2.6751e-06 8.67935 0.131677 8.37195 0.366071 8.1453C0.600467 7.91864 0.918374 7.79131 1.24986 7.79131L15.7307 7.79131L10.3638 2.60412C10.2476 2.49175 10.1555 2.35835 10.0926 2.21153C10.0297 2.06472 9.9973 1.90736 9.9973 1.74845C9.9973 1.58953 10.0297 1.43218 10.0926 1.28536C10.1555 1.13854 10.2476 1.00514 10.3638 0.892777C10.48 0.78041 10.618 0.691274 10.7698 0.63046C10.9217 0.569648 11.0844 0.538348 11.2487 0.538348C11.4131 0.538348 11.5758 0.569648 11.7276 0.63046C11.8795 0.691273 12.0174 0.78041 12.1336 0.892777L19.6328 8.14422C19.7492 8.25648 19.8415 8.38985 19.9046 8.53668C19.9676 8.68351 20 8.84092 20 8.99989C20 9.15886 19.9676 9.31626 19.9046 9.46309C19.8415 9.60992 19.7492 9.74329 19.6328 9.85556L12.1336 17.107C11.899 17.3339 11.5806 17.4614 11.2487 17.4614C10.9168 17.4614 10.5985 17.3339 10.3638 17.107C10.1292 16.8801 9.9973 16.5723 9.9973 16.2513C9.9973 15.9304 10.1292 15.6226 10.3638 15.3957L15.7307 10.2085L1.24986 10.2085C0.918374 10.2085 0.600467 10.0811 0.366071 9.85448C0.131677 9.62783 -2.61906e-06 9.32042 -2.64708e-06 8.99989Z" fill="#323232"/>
</svg>
