<svg width="13" height="11" viewBox="0 0 13 11" fill="none" xmlns="http://www.w3.org/2000/svg">
<path fill-rule="evenodd" clip-rule="evenodd" d="M13 5.5C13 5.70835 12.9144 5.90816 12.7621 6.05548C12.6097 6.20281 12.4031 6.28557 12.1876 6.28557H2.77502L6.2635 9.65725C6.33904 9.73029 6.39895 9.817 6.43983 9.91243C6.48071 10.0079 6.50175 10.1101 6.50175 10.2134C6.50175 10.3167 6.48071 10.419 6.43983 10.5144C6.39895 10.6099 6.33904 10.6966 6.2635 10.7696C6.18797 10.8427 6.0983 10.9006 5.99961 10.9401C5.90092 10.9797 5.79514 11 5.68832 11C5.5815 11 5.47572 10.9797 5.37703 10.9401C5.27834 10.9006 5.18867 10.8427 5.11313 10.7696L0.238676 6.05619C0.163019 5.98321 0.102993 5.89652 0.0620373 5.80108C0.0210814 5.70564 0 5.60333 0 5.5C0 5.39667 0.0210814 5.29436 0.0620373 5.19892C0.102993 5.10348 0.163019 5.01679 0.238676 4.94381L5.11313 0.23038C5.26568 0.0828702 5.47258 0 5.68832 0C5.90405 0 6.11095 0.0828702 6.2635 0.23038C6.41605 0.377889 6.50175 0.577955 6.50175 0.786565C6.50175 0.995175 6.41605 1.19524 6.2635 1.34275L2.77502 4.71443H12.1876C12.4031 4.71443 12.6097 4.79719 12.7621 4.94452C12.9144 5.09184 13 5.29165 13 5.5Z" fill="white"/>
</svg>
