<svg width="12" height="7" viewBox="0 0 12 7" fill="none" xmlns="http://www.w3.org/2000/svg">
<path d="M0.316956 0.347633C0.752956 -0.0983667 1.35996 -0.133367 1.89296 0.347633L5.80096 4.09463L9.70896 0.347633C10.242 -0.133366 10.85 -0.0983666 11.283 0.347633C11.719 0.792634 11.691 1.54463 11.283 1.96263C10.877 2.38063 6.58796 6.46463 6.58796 6.46463C6.48582 6.57049 6.36341 6.65468 6.22802 6.71218C6.09263 6.76968 5.94705 6.79932 5.79996 6.79932C5.65286 6.79932 5.50728 6.76968 5.37189 6.71218C5.2365 6.65468 5.11409 6.57049 5.01196 6.46463C5.01196 6.46463 0.724956 2.38063 0.316956 1.96263C-0.0920441 1.54463 -0.119044 0.792634 0.316956 0.347633Z" fill="#FFB800"/>
</svg>
