<svg width="12" height="7" viewBox="0 0 12 7" fill="none" xmlns="http://www.w3.org/2000/svg">
<path d="M11.2827 6.45168C10.8467 6.89768 10.2397 6.93268 9.70665 6.45168L5.79865 2.70468L1.89065 6.45168C1.35765 6.93268 0.749653 6.89768 0.316653 6.45168C-0.119347 6.00668 -0.0913467 5.25468 0.316653 4.83668C0.722653 4.41868 5.01165 0.334683 5.01165 0.334683C5.11379 0.228831 5.2362 0.14464 5.37159 0.0871378C5.50698 0.0296354 5.65256 7.09178e-08 5.79965 6.91638e-08C5.94675 6.74097e-08 6.09233 0.0296354 6.22772 0.0871378C6.36311 0.14464 6.48552 0.228831 6.58765 0.334683C6.58765 0.334683 10.8747 4.41868 11.2827 4.83668C11.6917 5.25468 11.7187 6.00668 11.2827 6.45168Z" fill="#FFB800"/>
</svg>
