<svg width="110" height="107" viewBox="0 0 110 107" fill="none" xmlns="http://www.w3.org/2000/svg">
<path fill-rule="evenodd" clip-rule="evenodd" d="M39.2642 19.8062C39.2642 11.7228 53.6492 10.829 58.7441 10.829C62.6632 10.829 78.9849 11.4628 78.9849 18.75V22.5442L75.9757 21.6731L75.9886 21.4917C70.4377 20.1629 64.4423 19.4831 58.188 19.4831C52.7637 19.4831 47.534 19.9945 42.6202 20.9971C42.8639 32.0148 43.276 50.9251 43.276 52.7869C43.276 53.6963 43.2937 54.6531 43.3108 55.579V55.5792V55.5793V55.5794V55.5795V55.5797V55.5798V55.5798V55.5799C43.3434 57.3449 43.3739 58.9975 43.276 59.9947C42.0677 72.3042 31.9482 84.5804 17.222 80.2758C15.1241 79.6626 13.6827 79.0855 12.5351 78.4551C17.257 84.9461 24.3433 89.8027 32.5364 93.0064L28.6183 103.32C27.7682 105.557 30.0056 107.724 32.1803 106.768L53.3077 97.489C54.9331 97.5942 56.5622 97.6469 58.188 97.6469C83.6823 97.6469 109.994 84.7003 109.994 59.206C109.994 44.3121 102.078 33.2632 89.7902 26.6499V18.1465C89.7902 2.91908 71.0526 0.368533 59.2768 0.0413277C48.6416 -0.470062 28.6111 3.67534 28.6111 17.6185V40.829C27.0153 40.3101 25.2419 40.0236 23.2846 40.0236C11.6856 40.0236 0 50.0843 0 58.9586C0 67.833 11.6856 77.8182 23.2846 77.8182C34.8835 77.8182 39.9885 65.5826 40.2339 58.7307C40.3938 54.2641 40.2565 49.8089 40.1415 46.078V46.0779C40.0802 44.0855 40.0251 42.2997 40.0251 40.829L39.2642 19.8062ZM11.9903 39.6467C15.2736 34.6236 19.8679 30.4875 25.4223 27.2969L25.6801 37.8342C24.6229 37.6076 24.139 37.6076 22.8104 37.6076C18.2459 37.6076 14.8091 38.4118 11.9903 39.6467ZM68.0912 47.8881C68.0912 45.4086 70.1012 43.3986 72.5807 43.3986C75.0602 43.3986 77.0702 45.4086 77.0702 47.8881V74.8252C77.0702 77.3047 75.0602 79.3147 72.5807 79.3147C70.1012 79.3147 68.0912 77.3047 68.0912 74.8252V47.8881ZM62.1052 49.3846C59.6257 49.3846 57.6157 51.3947 57.6157 53.8741V68.8392C57.6157 71.3187 59.6257 73.3287 62.1052 73.3287C64.5847 73.3287 66.5947 71.3187 66.5947 68.8392V53.8741C66.5947 51.3947 64.5847 49.3846 62.1052 49.3846ZM47.1402 61.3567C47.1402 58.8772 49.1502 56.8671 51.6297 56.8671C54.1092 56.8671 56.1192 58.8772 56.1192 61.3567C56.1192 63.8361 54.1092 65.8462 51.6297 65.8462C49.1502 65.8462 47.1402 63.8361 47.1402 61.3567ZM83.0563 53.8741C80.5768 53.8741 78.5667 55.8842 78.5667 58.3637V64.3497C78.5667 66.8292 80.5768 68.8392 83.0563 68.8392C85.5358 68.8392 87.5458 66.8292 87.5458 64.3497V58.3637C87.5458 55.8842 85.5358 53.8741 83.0563 53.8741ZM93.5318 56.8671C91.0523 56.8671 89.0423 58.8772 89.0423 61.3567C89.0423 63.8361 91.0523 65.8462 93.5318 65.8462C96.0113 65.8462 98.0213 63.8361 98.0213 61.3567C98.0213 58.8772 96.0113 56.8671 93.5318 56.8671Z" fill="#515151" fill-opacity="0.39"/>
</svg>
