<svg width="22" height="20" viewBox="0 0 22 20" fill="none" xmlns="http://www.w3.org/2000/svg">
<path d="M21.5 14V14.0008C21.4993 14.4384 21.3832 14.8681 21.1636 15.2466C20.9944 15.5381 20.7684 15.7913 20.5 15.9917V18C20.5 18.3978 20.342 18.7794 20.0607 19.0607C19.7794 19.342 19.3978 19.5 19 19.5H18C17.6022 19.5 17.2206 19.342 16.9393 19.0607C16.658 18.7794 16.5 18.3978 16.5 18V16.5H5.5V18C5.5 18.3978 5.34196 18.7794 5.06066 19.0607C4.77935 19.342 4.39782 19.5 4 19.5H3C2.60218 19.5 2.22064 19.342 1.93934 19.0607C1.65803 18.7794 1.5 18.3978 1.5 18V15.9902C0.897068 15.5371 0.5 14.8193 0.5 14V9C0.499999 8.50708 0.645716 8.02515 0.918834 7.61481C1.14798 7.27053 1.45823 6.98952 1.82076 6.7956L3.12149 2.89341C3.12152 2.89331 3.12155 2.89322 3.12158 2.89313C3.35318 2.19598 3.79857 1.58952 4.39449 1.15992C4.99043 0.730298 5.70659 0.499392 6.44124 0.500001M21.5 14L6.441 1M21.5 14V9C21.5 8.50708 21.3543 8.02515 21.0812 7.61481C20.852 7.27053 20.5418 6.98952 20.1792 6.7956L18.8785 2.89341L21.5 14ZM6.44124 0.500001C6.44131 0.500001 6.44137 0.500001 6.44144 0.500001L6.441 1M6.44124 0.500001H6.441V1M6.44124 0.500001H15.5588M6.441 1H15.559M15.5588 0.500001C15.5587 0.500001 15.5586 0.500001 15.5586 0.500001L15.559 1M15.5588 0.500001H15.559V1M15.5588 0.500001C16.2934 0.499392 17.0096 0.730297 17.6055 1.15992C18.2014 1.58947 18.6467 2.19583 18.8783 2.89289L15.559 1M6.44088 3.5H6.441H15.558C15.7747 3.5 15.9646 3.63703 16.0324 3.84142L16.0327 3.8422L16.9192 6.5H5.08065L5.96636 3.84207L5.96638 3.842C5.99955 3.7424 6.06324 3.65576 6.1484 3.59438C6.23357 3.533 6.3359 3.49998 6.44088 3.5ZM4.50017 12.5C4.36878 12.5 4.23869 12.474 4.11732 12.4237C3.99595 12.3734 3.88568 12.2997 3.7928 12.2067C3.69993 12.1138 3.62627 12.0035 3.57603 11.8821C3.52579 11.7607 3.49996 11.6306 3.5 11.4992C3.50004 11.3678 3.52597 11.2377 3.57629 11.1163C3.62661 10.9949 3.70034 10.8847 3.79328 10.7918C3.88621 10.6989 3.99653 10.6253 4.11793 10.575C4.23934 10.5248 4.36945 10.499 4.50083 10.499C4.76618 10.4991 5.02063 10.6046 5.2082 10.7923C5.39576 10.98 5.50109 11.2345 5.501 11.4998C5.50091 11.7652 5.39542 12.0196 5.20772 12.2072C5.02003 12.3948 4.76552 12.5001 4.50017 12.5ZM17.5002 12.5C17.3688 12.5 17.2387 12.474 17.1173 12.4237C16.9959 12.3734 16.8857 12.2997 16.7928 12.2067C16.6999 12.1138 16.6263 12.0035 16.576 11.8821C16.5258 11.7607 16.5 11.6306 16.5 11.4992C16.5 11.3678 16.526 11.2377 16.5763 11.1163C16.6266 10.9949 16.7003 10.8847 16.7933 10.7918C16.8862 10.6989 16.9965 10.6253 17.1179 10.575C17.2393 10.5248 17.3694 10.499 17.5008 10.499C17.7662 10.4991 18.0206 10.6046 18.2082 10.7923C18.3958 10.98 18.5011 11.2345 18.501 11.4998C18.5009 11.7652 18.3954 12.0196 18.2077 12.2072C18.02 12.3948 17.7655 12.5001 17.5002 12.5Z" stroke="#FFB800"/>
</svg>
