<svg width="93" height="19" viewBox="0 0 93 19" fill="none" xmlns="http://www.w3.org/2000/svg">
<path opacity="0.58" d="M13.1562 12.3047C13.0234 13.4844 12.6211 14.5312 11.9492 15.4453C11.2773 16.3516 10.4023 17.0508 9.32422 17.543C8.24609 18.0273 7.08203 18.2578 5.83203 18.2344C4.70703 18.2109 3.72656 17.9531 2.89062 17.4609C2.05469 16.9609 1.39453 16.2422 0.910156 15.3047C0.433594 14.3594 0.164062 13.2734 0.101562 12.0469C0.046875 11.0859 0.144531 9.89062 0.394531 8.46094C0.652344 7.03125 1.10547 5.76172 1.75391 4.65234C2.41016 3.54297 3.1875 2.66406 4.08594 2.01562C5.35156 1.10938 6.79688 0.671875 8.42188 0.703125C10.1875 0.734375 11.5859 1.28125 12.6172 2.34375C13.6562 3.39844 14.2266 4.86719 14.3281 6.75L10.9062 6.73828C10.9062 5.66016 10.6914 4.87109 10.2617 4.37109C9.83203 3.87109 9.16406 3.60547 8.25781 3.57422C7.08594 3.53516 6.12109 3.95312 5.36328 4.82812C4.61328 5.70313 4.10938 6.98047 3.85156 8.66016C3.60156 10.293 3.49219 11.5156 3.52344 12.3281C3.5625 13.3594 3.79297 14.1211 4.21484 14.6133C4.63672 15.0977 5.22656 15.3516 5.98438 15.375C7.03125 15.4141 7.86719 15.168 8.49219 14.6367C9.125 14.0977 9.54297 13.3281 9.74609 12.3281L13.1562 12.3047ZM23.8827 18C23.7811 17.6797 23.7381 17.2969 23.7537 16.8516C22.8006 17.8047 21.7225 18.2656 20.5194 18.2344C19.41 18.2188 18.4881 17.8594 17.7537 17.1562C17.0272 16.4453 16.6873 15.5703 16.7342 14.5312C16.7889 13.1484 17.367 12.0898 18.4686 11.3555C19.578 10.6133 21.0623 10.2422 22.9217 10.2422L24.4686 10.2656L24.6327 9.50391C24.6795 9.24609 24.6912 9 24.6678 8.76562C24.6287 8.39844 24.4881 8.11328 24.2459 7.91016C24.0116 7.69922 23.6991 7.58984 23.3084 7.58203C22.7928 7.56641 22.3553 7.69531 21.9959 7.96875C21.6366 8.23438 21.4061 8.62109 21.3045 9.12891L17.9881 9.14062C18.0428 7.92969 18.5975 6.94922 19.6522 6.19922C20.7147 5.44141 22.0233 5.07031 23.578 5.08594C25.0155 5.11719 26.1405 5.54687 26.953 6.375C27.7655 7.19531 28.1053 8.25391 27.9725 9.55078L26.9998 15.6211L26.9412 16.3711C26.9256 16.9258 26.992 17.3945 27.1405 17.7773L27.1287 18H23.8827ZM21.3397 15.668C22.2928 15.6992 23.1248 15.2852 23.8358 14.4258L24.2459 12.2344L23.0975 12.2227C21.8787 12.2539 20.9998 12.625 20.4608 13.3359C20.2655 13.5938 20.1444 13.9102 20.0975 14.2852C20.035 14.707 20.1209 15.043 20.3553 15.293C20.5975 15.5352 20.9256 15.6602 21.3397 15.668ZM38.6637 14.4258C38.7887 13.8008 38.3552 13.3477 37.363 13.0664L36.2966 12.7969C33.7731 12.1016 32.5466 10.875 32.6169 9.11719C32.6559 7.92188 33.1833 6.94922 34.1989 6.19922C35.2223 5.44141 36.4528 5.07031 37.8903 5.08594C39.32 5.10156 40.4762 5.48047 41.3591 6.22266C42.2419 6.96484 42.6911 7.95312 42.7067 9.1875L39.4255 9.17578C39.4411 8.08984 38.902 7.53906 37.8083 7.52344C37.2927 7.52344 36.8434 7.65234 36.4606 7.91016C36.0856 8.16797 35.8552 8.51562 35.7692 8.95312C35.652 9.57812 36.1247 10.0195 37.1872 10.2773L37.6559 10.3828C38.7341 10.6406 39.5583 10.9375 40.1286 11.2734C40.6989 11.6016 41.1364 12.0117 41.4411 12.5039C41.7536 12.9961 41.8981 13.5859 41.8747 14.2734C41.8512 15.0781 41.5895 15.7812 41.0895 16.3828C40.5973 16.9844 39.9177 17.4492 39.0505 17.7773C38.1911 18.1055 37.2848 18.2578 36.3317 18.2344C34.9255 18.2188 33.7536 17.8164 32.8161 17.0273C31.8786 16.2305 31.402 15.2031 31.3864 13.9453L34.5036 13.9688C34.5348 15.1797 35.1833 15.793 36.4489 15.8086C37.0583 15.8086 37.5583 15.6836 37.9489 15.4336C38.3473 15.1836 38.5856 14.8477 38.6637 14.4258ZM52.273 2.20312L51.7222 5.32031H53.8316L53.398 7.80469H51.2886L50.2105 14.1562C50.1636 14.5547 50.1948 14.8594 50.3042 15.0703C50.4136 15.2812 50.6792 15.3945 51.1011 15.4102C51.2261 15.418 51.562 15.3984 52.1089 15.3516L51.8745 17.9414C51.2886 18.1367 50.6558 18.2266 49.9761 18.2109C48.8902 18.1953 48.0816 17.8555 47.5503 17.1914C47.0191 16.5273 46.8003 15.6289 46.8941 14.4961L47.9839 7.80469H46.1909L46.6245 5.32031H48.4175L48.9566 2.20312H52.273ZM63.058 18C62.9564 17.6797 62.9134 17.2969 62.9291 16.8516C61.9759 17.8047 60.8978 18.2656 59.6947 18.2344C58.5853 18.2188 57.6634 17.8594 56.9291 17.1562C56.2025 16.4453 55.8627 15.5703 55.9095 14.5312C55.9642 13.1484 56.5423 12.0898 57.6439 11.3555C58.7533 10.6133 60.2377 10.2422 62.097 10.2422L63.6439 10.2656L63.808 9.50391C63.8548 9.24609 63.8666 9 63.8431 8.76562C63.8041 8.39844 63.6634 8.11328 63.4212 7.91016C63.1869 7.69922 62.8744 7.58984 62.4837 7.58203C61.9681 7.56641 61.5306 7.69531 61.1712 7.96875C60.8119 8.23438 60.5814 8.62109 60.4798 9.12891L57.1634 9.14062C57.2181 7.92969 57.7728 6.94922 58.8275 6.19922C59.89 5.44141 61.1986 5.07031 62.7533 5.08594C64.1908 5.11719 65.3158 5.54687 66.1283 6.375C66.9408 7.19531 67.2806 8.25391 67.1478 9.55078L66.1752 15.6211L66.1166 16.3711C66.1009 16.9258 66.1673 17.3945 66.3158 17.7773L66.3041 18H63.058ZM60.515 15.668C61.4681 15.6992 62.3002 15.2852 63.0111 14.4258L63.4212 12.2344L62.2728 12.2227C61.0541 12.2539 60.1752 12.625 59.6361 13.3359C59.4408 13.5938 59.3197 13.9102 59.2728 14.2852C59.2103 14.707 59.2962 15.043 59.5306 15.293C59.7728 15.5352 60.1009 15.6602 60.515 15.668ZM73.9836 18H70.6555L73.7844 0L77.1008 0L73.9836 18ZM84.4405 12.9492L82.9053 14.2852L82.2608 18H78.9561L82.0733 0L85.3897 0L83.6787 9.77344L84.3233 9.08203L88.085 5.32031H92.3272L86.7842 10.7695L90.3116 18H86.6905L84.4405 12.9492Z" fill="white"/>
</svg>
