<svg width="22" height="18" viewBox="0 0 22 18" fill="none" xmlns="http://www.w3.org/2000/svg">
<path d="M1 16.5557H1.01167" stroke="#FFB800" stroke-width="1.5" stroke-linecap="round" stroke-linejoin="round"/>
<path d="M5.44444 16.5555C5.44444 15.3768 4.97619 14.2463 4.1427 13.4128C3.3092 12.5793 2.17874 12.1111 1 12.1111" stroke="#FFB800" stroke-width="1.5" stroke-linecap="round" stroke-linejoin="round"/>
<path d="M9.88889 16.5556C9.88889 14.1982 8.95238 11.9372 7.28539 10.2702C5.6184 8.60325 3.35748 7.66675 1 7.66675" stroke="#FFB800" stroke-width="1.5" stroke-linecap="round" stroke-linejoin="round"/>
<path d="M14.3338 16.5556H17.6671C18.5512 16.5556 19.399 16.2044 20.0241 15.5792C20.6492 14.9541 21.0004 14.1063 21.0004 13.2222V4.33333C21.0004 3.44928 20.6492 2.60143 20.0241 1.97631C19.399 1.35119 18.5512 1 17.6671 1H4.33377C3.64985 1.00649 2.98449 1.2232 2.42795 1.62074C1.8714 2.01827 1.45061 2.57738 1.22266 3.22222" stroke="#FFB800" stroke-width="1.5" stroke-linecap="round" stroke-linejoin="round"/>
</svg>
