<svg width="45" height="45" viewBox="0 0 45 45" fill="none" xmlns="http://www.w3.org/2000/svg">
<path d="M18.75 5.625H7.5C7.00272 5.625 6.52581 5.82254 6.17417 6.17417C5.82254 6.52581 5.625 7.00272 5.625 7.5V18.75C5.625 19.2473 5.82254 19.7242 6.17417 20.0758C6.52581 20.4275 7.00272 20.625 7.5 20.625H18.75C19.2473 20.625 19.7242 20.4275 20.0758 20.0758C20.4275 19.7242 20.625 19.2473 20.625 18.75V7.5C20.625 7.00272 20.4275 6.52581 20.0758 6.17417C19.7242 5.82254 19.2473 5.625 18.75 5.625ZM16.875 16.875H9.375V9.375H16.875V16.875ZM37.5 24.375H26.25C25.7527 24.375 25.2758 24.5725 24.9242 24.9242C24.5725 25.2758 24.375 25.7527 24.375 26.25V37.5C24.375 37.9973 24.5725 38.4742 24.9242 38.8258C25.2758 39.1775 25.7527 39.375 26.25 39.375H37.5C37.9973 39.375 38.4742 39.1775 38.8258 38.8258C39.1775 38.4742 39.375 37.9973 39.375 37.5V26.25C39.375 25.7527 39.1775 25.2758 38.8258 24.9242C38.4742 24.5725 37.9973 24.375 37.5 24.375ZM35.625 35.625H28.125V28.125H35.625V35.625ZM31.875 5.625C27.7388 5.625 24.375 8.98875 24.375 13.125C24.375 17.2613 27.7388 20.625 31.875 20.625C36.0112 20.625 39.375 17.2613 39.375 13.125C39.375 8.98875 36.0112 5.625 31.875 5.625ZM31.875 16.875C29.8069 16.875 28.125 15.1931 28.125 13.125C28.125 11.0569 29.8069 9.375 31.875 9.375C33.9431 9.375 35.625 11.0569 35.625 13.125C35.625 15.1931 33.9431 16.875 31.875 16.875ZM13.125 24.375C8.98875 24.375 5.625 27.7388 5.625 31.875C5.625 36.0112 8.98875 39.375 13.125 39.375C17.2613 39.375 20.625 36.0112 20.625 31.875C20.625 27.7388 17.2613 24.375 13.125 24.375ZM13.125 35.625C11.0569 35.625 9.375 33.9431 9.375 31.875C9.375 29.8069 11.0569 28.125 13.125 28.125C15.1931 28.125 16.875 29.8069 16.875 31.875C16.875 33.9431 15.1931 35.625 13.125 35.625Z" fill="#5C5C5C"/>
</svg>
