<svg width="18" height="18" viewBox="0 0 18 18" fill="none" xmlns="http://www.w3.org/2000/svg">
<path d="M16.0737 12.7639C15.3116 14.3047 14.0756 15.5606 12.5471 16.3472C11.0297 17.1264 9.29948 17.3895 7.61896 17.0967C5.93323 16.8003 4.3888 15.966 3.21683 14.7186C2.03399 13.4594 1.28087 11.8577 1.06576 10.1435C0.847274 8.42547 1.17637 6.6823 2.00618 5.16217C2.82836 3.65369 4.11319 2.44906 5.67147 1.72568C7.21929 1.00881 8.95875 0.816516 10.6258 1.178C12.2922 1.53922 13.6578 2.36073 14.7874 3.65966C14.9234 3.80379 15.4495 4.3857 15.8864 5.26396" stroke="white" stroke-width="1.5" stroke-linecap="round" stroke-linejoin="round"/>
<path d="M11.8711 5.33502L16.411 6.15203L17.2136 1.53101" stroke="white" stroke-width="1.5" stroke-linecap="round" stroke-linejoin="round"/>
</svg>
