<svg width="18" height="18" viewBox="0 0 18 18" fill="none" xmlns="http://www.w3.org/2000/svg">
<path d="M1.92628 12.7639C2.68839 14.3047 3.9244 15.5606 5.45285 16.3472C6.97035 17.1264 8.70052 17.3895 10.381 17.0967C12.0668 16.8003 13.6112 15.966 14.7832 14.7186C15.966 13.4594 16.7191 11.8577 16.9342 10.1435C17.1527 8.42547 16.8236 6.6823 15.9938 5.16217C15.1716 3.65369 13.8868 2.44906 12.3285 1.72568C10.7807 1.00881 9.04125 0.816516 7.37422 1.178C5.70777 1.53922 4.34218 2.36073 3.2126 3.65966C3.07658 3.80379 2.55053 4.3857 2.11365 5.26396" stroke="white" stroke-width="1.5" stroke-linecap="round" stroke-linejoin="round"/>
<path d="M6.12891 5.33502L1.58896 6.15203L0.786358 1.53101" stroke="white" stroke-width="1.5" stroke-linecap="round" stroke-linejoin="round"/>
</svg>
