<svg width="10" height="10" viewBox="0 0 10 10" fill="none" xmlns="http://www.w3.org/2000/svg">
<path d="M9.01359 1.96341C9.10966 1.87384 9.18714 1.76624 9.24161 1.64674C9.29609 1.52723 9.32649 1.39816 9.33109 1.26691C9.33569 1.13565 9.31438 1.00478 9.2684 0.881754C9.22242 0.75873 9.15265 0.645969 9.06309 0.549907C8.97353 0.453845 8.86593 0.376364 8.74642 0.321888C8.62692 0.267412 8.49785 0.237008 8.3666 0.232411C8.23534 0.227815 8.10446 0.249116 7.98144 0.295099C7.85842 0.341082 7.74566 0.410846 7.64959 0.500407L4.72359 3.22841L1.99559 0.301407C1.81306 0.114451 1.5646 0.00636381 1.30339 0.000272123C1.04217 -0.00581956 0.788948 0.0905688 0.597899 0.268812C0.406849 0.447055 0.293151 0.692994 0.281133 0.954004C0.269115 1.21501 0.359732 1.47036 0.533593 1.66541L3.26159 4.59141L0.334593 7.31941C0.235138 7.40806 0.154402 7.51569 0.0971249 7.63599C0.0398482 7.75628 0.0071865 7.8868 0.00105842 8.01989C-0.00506967 8.15298 0.0154591 8.28596 0.0614394 8.411C0.10742 8.53605 0.177924 8.65065 0.268812 8.74806C0.359699 8.84548 0.469137 8.92375 0.590698 8.97829C0.712258 9.03282 0.843491 9.06251 0.976686 9.06562C1.10988 9.06872 1.24235 9.04518 1.36633 8.99637C1.4903 8.94757 1.60326 8.87448 1.69859 8.78141L4.62459 6.05441L7.35259 8.98041C7.44068 9.0817 7.54825 9.16422 7.66891 9.22305C7.78956 9.28188 7.92083 9.31582 8.05488 9.32284C8.18893 9.32986 8.32302 9.30982 8.44916 9.26392C8.5753 9.21802 8.69091 9.14718 8.78909 9.05565C8.88727 8.96411 8.96602 8.85375 9.02065 8.73113C9.07527 8.60851 9.10465 8.47615 9.10703 8.34194C9.10941 8.20773 9.08474 8.07441 9.0345 7.94993C8.98426 7.82545 8.90947 7.71237 8.81459 7.61741L6.08759 4.69141L9.01359 1.96341V1.96341Z" fill="#FF5959"/>
</svg>
