<svg width="21" height="20" viewBox="0 0 21 20" fill="none" xmlns="http://www.w3.org/2000/svg">
<path d="M12.4965 0.00195404C14.3265 0.00108057 16.1015 0.62762 17.5254 1.77708C18.9493 2.92654 19.9361 4.52943 20.3212 6.31842C20.7063 8.10742 20.4664 9.97436 19.6416 11.6079C18.8167 13.2414 17.4568 14.5428 15.7885 15.295C15.2553 16.4739 14.4441 17.5058 13.4244 18.3024C12.4048 19.0989 11.2071 19.6363 9.93418 19.8683C8.66126 20.1003 7.35104 20.0202 6.11591 19.6346C4.88078 19.2491 3.75758 18.5698 2.84266 17.6548C1.92773 16.7399 1.24838 15.6167 0.862861 14.3816C0.477343 13.1465 0.397166 11.8362 0.629206 10.5633C0.861245 9.2904 1.39858 8.09275 2.19512 7.07309C2.99166 6.05343 4.02364 5.2422 5.20255 4.70895C5.83669 3.30584 6.86213 2.11546 8.15589 1.28056C9.44965 0.445667 10.9568 0.00171606 12.4965 0.00195404V0.00195404ZM9.49655 7.00195H7.49655V8.00195C6.84666 8.00037 6.2217 8.25193 5.75413 8.7033C5.28656 9.15466 5.01314 9.77037 4.99181 10.4199C4.97048 11.0694 5.20293 11.7018 5.63989 12.1828C6.07684 12.6639 6.68396 12.9559 7.33255 12.997L7.49655 13.002H9.49655L9.58655 13.01C9.70183 13.0308 9.80612 13.0915 9.88122 13.1814C9.95632 13.2714 9.99746 13.3848 9.99746 13.502C9.99746 13.6191 9.95632 13.7325 9.88122 13.8225C9.80612 13.9124 9.70183 13.9731 9.58655 13.994L9.49655 14.002H5.49655V16.002H7.49655V17.002H9.49655V16.002C10.1464 16.0035 10.7714 15.752 11.239 15.3006C11.7065 14.8492 11.98 14.2335 12.0013 13.584C12.0226 12.9345 11.7902 12.3021 11.3532 11.8211C10.9163 11.34 10.3091 11.048 9.66055 11.007L9.49655 11.002H7.49655L7.40655 10.994C7.29126 10.9731 7.18697 10.9124 7.11187 10.8225C7.03677 10.7325 6.99563 10.6191 6.99563 10.502C6.99563 10.3848 7.03677 10.2714 7.11187 10.1814C7.18697 10.0915 7.29126 10.0308 7.40655 10.01L7.49655 10.002H11.4965V8.00195H9.49655V7.00195ZM12.4965 2.00195C11.6492 2.00096 10.8114 2.17989 10.0384 2.52691C9.26537 2.87393 8.57487 3.38113 8.01255 4.01495C9.14281 3.94634 10.2748 4.11845 11.3336 4.5199C12.3923 4.92135 13.3539 5.543 14.1545 6.34373C14.9551 7.14447 15.5767 8.10605 15.978 9.16489C16.3793 10.2237 16.5513 11.3557 16.4825 12.486C17.3918 11.6776 18.0337 10.6119 18.3234 9.43027C18.613 8.24863 18.5365 7.00687 18.1042 5.86968C17.6718 4.73248 16.904 3.75359 15.9025 3.06284C14.901 2.37208 13.7132 2.0021 12.4965 2.00195V2.00195Z" fill="#FFB800"/>
</svg>
