<svg width="20" height="19" viewBox="0 0 20 19" fill="none" xmlns="http://www.w3.org/2000/svg">
<path d="M3.09126 1.2365C2.59935 1.2365 2.12758 1.43191 1.77975 1.77975C1.43191 2.12758 1.2365 2.59935 1.2365 3.09126V11.7468C1.2365 12.2387 1.43191 12.7105 1.77975 13.0583C2.12758 13.4061 2.59935 13.6015 3.09126 13.6015H5.35818V17.555C5.35818 17.7224 5.54778 17.8205 5.68462 17.7216L11.3956 13.6015H16.6928C17.1847 13.6015 17.6565 13.4061 18.0043 13.0583C18.3521 12.7105 18.5475 12.2387 18.5475 11.7468V3.09126C18.5475 2.59935 18.3521 2.12758 18.0043 1.77975C17.6565 1.43191 17.1847 1.2365 16.6928 1.2365H3.09126ZM0 3.09126C0 2.2714 0.325685 1.48513 0.905408 0.905408C1.48513 0.325685 2.2714 0 3.09126 0H16.6928C17.5126 0 18.2989 0.325685 18.8786 0.905408C19.4584 1.48513 19.784 2.2714 19.784 3.09126V11.7468C19.784 12.5666 19.4584 13.3529 18.8786 13.9326C18.2989 14.5124 17.5126 14.838 16.6928 14.838H11.7954L6.40838 18.7248C5.4538 19.4131 4.12168 18.7314 4.12168 17.5542V14.838H3.09126C2.2714 14.838 1.48513 14.5124 0.905408 13.9326C0.325685 13.3529 0 12.5666 0 11.7468V3.09126Z" fill="white"/>
</svg>
