<svg width="15" height="16" viewBox="0 0 15 16" fill="none" xmlns="http://www.w3.org/2000/svg">
<path d="M3.52686 1.76258C3.05917 1.76258 2.61064 1.94837 2.27993 2.27907C1.94922 2.60978 1.76343 3.05832 1.76343 3.52601C1.76343 3.9937 1.94922 4.44223 2.27993 4.77294C2.61064 5.10365 3.05917 5.28944 3.52686 5.28944C3.99455 5.28944 4.44309 5.10365 4.7738 4.77294C5.1045 4.44223 5.29029 3.9937 5.29029 3.52601C5.29029 3.05832 5.1045 2.60978 4.7738 2.27907C4.44309 1.94837 3.99455 1.76258 3.52686 1.76258ZM0 3.52601C0.000131492 2.98373 0.125308 2.44878 0.3658 1.96275C0.606293 1.47672 0.955624 1.05268 1.38664 0.723612C1.81766 0.394539 2.31876 0.169288 2.85098 0.0653676C3.38321 -0.0385532 3.93223 -0.0183451 4.45538 0.124421C4.97853 0.267187 5.46171 0.528666 5.86737 0.888534C6.27303 1.2484 6.59024 1.69697 6.79436 2.19937C6.99847 2.70177 7.08398 3.24446 7.04424 3.78529C7.00451 4.32611 6.8406 4.85048 6.56525 5.31765L7.93544 6.68784L13.4841 1.1392C13.5654 1.05499 13.6627 0.987819 13.7703 0.94161C13.8778 0.8954 13.9935 0.871076 14.1106 0.870059C14.2277 0.869042 14.3438 0.89135 14.4522 0.935684C14.5605 0.980017 14.659 1.04549 14.7417 1.12827C14.8245 1.21106 14.89 1.30951 14.9343 1.41787C14.9787 1.52623 15.001 1.64233 15 1.7594C14.9989 1.87648 14.9746 1.99217 14.9284 2.09975C14.8822 2.20732 14.815 2.30461 14.7308 2.38595L8.55881 8.55796L6.56614 10.5515C7.00214 11.291 7.15348 12.1641 6.9918 13.0071C6.83012 13.8502 6.3665 14.6053 5.68787 15.131C5.00923 15.6567 4.16217 15.9169 3.30545 15.8627C2.44874 15.8085 1.64119 15.4437 1.03419 14.8367C0.427193 14.2297 0.0624137 13.4222 0.00823127 12.5655C-0.0459512 11.7087 0.214184 10.8617 0.739874 10.183C1.26556 9.5044 2.02072 9.04079 2.86378 8.87911C3.70684 8.71742 4.57993 8.86877 5.31939 9.30477L6.68781 7.93458L5.31763 6.5644C4.78196 6.88011 4.17236 7.04859 3.5506 7.05277C2.92884 7.05696 2.31702 6.8967 1.77716 6.58823C1.23729 6.27976 0.788576 5.83405 0.476479 5.29628C0.164383 4.75851 2.77416e-06 4.14778 0 3.52601ZM3.52686 10.5797C3.05917 10.5797 2.61064 10.7655 2.27993 11.0962C1.94922 11.4269 1.76343 11.8755 1.76343 12.3432C1.76343 12.8109 1.94922 13.2594 2.27993 13.5901C2.61064 13.9208 3.05917 14.1066 3.52686 14.1066C3.99455 14.1066 4.44309 13.9208 4.7738 13.5901C5.1045 13.2594 5.29029 12.8109 5.29029 12.3432C5.29029 11.8755 5.1045 11.4269 4.7738 11.0962C4.44309 10.7655 3.99455 10.5797 3.52686 10.5797ZM10.3222 9.07464C10.156 8.91403 9.93323 8.82516 9.70204 8.82717C9.47086 8.82918 9.24972 8.92191 9.08624 9.08538C8.92276 9.24886 8.83003 9.47001 8.82802 9.70119C8.82601 9.93237 8.91489 10.1551 9.0755 10.3214L13.4841 14.73C13.6504 14.8906 13.8731 14.9795 14.1043 14.9774C14.3355 14.9754 14.5566 14.8827 14.7201 14.7192C14.8836 14.5557 14.9763 14.3346 14.9783 14.1034C14.9803 13.8722 14.8914 13.6495 14.7308 13.4832L10.3222 9.07464Z" fill="#DCDCDC"/>
</svg>
