<svg width="18" height="18" viewBox="0 0 18 18" fill="none" xmlns="http://www.w3.org/2000/svg">
<path d="M4.28706 1.71483C4.28706 1.26003 4.46773 0.823853 4.78932 0.502261C5.11092 0.180668 5.54709 0 6.00189 0H11.1464C11.6012 0 12.0373 0.180668 12.3589 0.502261C12.6805 0.823853 12.8612 1.26003 12.8612 1.71483V3.42965H16.2908C16.5182 3.42965 16.7363 3.51998 16.8971 3.68078C17.0579 3.84158 17.1483 4.05966 17.1483 4.28706C17.1483 4.51446 17.0579 4.73255 16.8971 4.89334C16.7363 5.05414 16.5182 5.14447 16.2908 5.14447H15.3743L14.6309 15.5552C14.6001 15.9878 14.4065 16.3927 14.0891 16.6883C13.7717 16.9839 13.3541 17.1483 12.9203 17.1483H4.22704C3.79331 17.1483 3.37569 16.9839 3.05829 16.6883C2.74089 16.3927 2.5473 15.9878 2.51651 15.5552L1.77484 5.14447H0.857413C0.630013 5.14447 0.411926 5.05414 0.25113 4.89334C0.0903342 4.73255 0 4.51446 0 4.28706C0 4.05966 0.0903342 3.84158 0.25113 3.68078C0.411926 3.51998 0.630013 3.42965 0.857413 3.42965H4.28706V1.71483ZM6.00189 3.42965H11.1464V1.71483H6.00189V3.42965ZM3.4931 5.14447L4.2279 15.4334H12.9212L13.656 5.14447H3.4931ZM6.8593 6.8593C7.0867 6.8593 7.30479 6.94963 7.46558 7.11043C7.62638 7.27123 7.71671 7.48931 7.71671 7.71671V12.8612C7.71671 13.0886 7.62638 13.3067 7.46558 13.4675C7.30479 13.6283 7.0867 13.7186 6.8593 13.7186C6.6319 13.7186 6.41381 13.6283 6.25302 13.4675C6.09222 13.3067 6.00189 13.0886 6.00189 12.8612V7.71671C6.00189 7.48931 6.09222 7.27123 6.25302 7.11043C6.41381 6.94963 6.6319 6.8593 6.8593 6.8593ZM10.2889 6.8593C10.5163 6.8593 10.7344 6.94963 10.8952 7.11043C11.056 7.27123 11.1464 7.48931 11.1464 7.71671V12.8612C11.1464 13.0886 11.056 13.3067 10.8952 13.4675C10.7344 13.6283 10.5163 13.7186 10.2889 13.7186C10.0616 13.7186 9.84346 13.6283 9.68267 13.4675C9.52187 13.3067 9.43154 13.0886 9.43154 12.8612V7.71671C9.43154 7.48931 9.52187 7.27123 9.68267 7.11043C9.84346 6.94963 10.0616 6.8593 10.2889 6.8593Z" fill="#FF5959"/>
</svg>
