<svg width="47" height="56" viewBox="0 0 47 56" fill="none" xmlns="http://www.w3.org/2000/svg">
<path d="M8.96429 -0.000976562C6.79054 -0.000976562 5 1.76052 5 3.89902V22.099C5 24.2375 6.79054 25.999 8.96429 25.999H38.0357C40.2095 25.999 42 24.2375 42 22.099V3.89902C42 1.76052 40.2095 -0.000976562 38.0357 -0.000976562H8.96429ZM8.96429 2.59902H38.0357C38.7836 2.59902 39.3571 3.16322 39.3571 3.89902V22.099C39.3571 22.8348 38.7836 23.399 38.0357 23.399H8.96429C8.21636 23.399 7.64286 22.8348 7.64286 22.099V3.89902C7.64286 3.16322 8.21636 2.59902 8.96429 2.59902ZM16.1502 10.6018C15.323 10.6018 14.7046 11.1907 14.7046 11.9421C14.7046 12.5726 15.0085 12.8872 15.8608 13.2031C16.3564 13.3851 16.7686 13.4917 16.7686 13.9337C16.7686 14.3042 16.4753 14.5837 16.067 14.5837C15.8593 14.5884 15.6548 14.5331 15.4787 14.4248C15.3026 14.3164 15.1625 14.1597 15.0759 13.974L14.4561 14.5018C14.875 15.1063 15.4168 15.3962 16.1079 15.3962C17.0527 15.3962 17.6778 14.7813 17.6778 13.8921C17.6778 13.1615 17.3884 12.8001 16.3564 12.4296C15.8093 12.232 15.6547 12.1098 15.6547 11.8615C15.6547 11.5716 15.9229 11.374 16.3154 11.374C16.5889 11.374 16.8202 11.4806 17.058 11.7393L17.5536 11.1296C17.1649 10.7936 16.6663 10.6063 16.1489 10.6018H16.1502ZM20.4449 10.6018C19.0666 10.607 17.9659 11.6639 17.9659 12.999C17.9659 14.3445 19.0613 15.3962 20.4449 15.3962C20.836 15.3962 21.1875 15.3052 21.5998 15.1115V14.0546C21.239 14.4108 20.8994 14.5421 20.4858 14.5421C19.5714 14.5421 18.916 13.8882 18.916 12.9587C18.916 12.0799 19.5925 11.4143 20.4435 11.4143C20.8783 11.4143 21.2232 11.5365 21.6011 11.9018V10.8462C21.2034 10.6473 20.836 10.6018 20.4435 10.6018H20.4449ZM24.2849 10.6018C23.639 10.6029 23.0198 10.8557 22.5631 11.3051C22.1063 11.7544 21.8493 12.3636 21.8482 12.999C21.8482 14.3198 22.9424 15.3962 24.2849 15.3962C24.9306 15.3948 25.5495 15.1418 26.0059 14.6925C26.4624 14.2432 26.7193 13.6343 26.7203 12.999C26.7193 12.3638 26.4624 11.7548 26.0059 11.3055C25.5495 10.8562 24.9306 10.6032 24.2849 10.6018ZM8.96429 10.685V15.2753H10.2857C12.3141 15.2753 12.8044 13.7153 12.8044 13.0003C12.8044 11.6483 11.7617 10.685 10.2857 10.685H8.96429ZM13.218 10.685V15.2753H14.1258V10.685H13.218ZM26.5565 10.685L28.5386 15.3975H29.0341L31.0559 10.685H30.0649L28.7857 13.7712L27.5462 10.6837L26.5565 10.685ZM31.4695 10.685V15.2753H34.0305V14.5031H32.3787V13.2447H33.9882V12.4725H32.38V11.4572H34.0318V10.685H31.4695ZM34.6502 10.685V15.2753H35.558V13.4475H35.6413L36.9204 15.2753H38.0357L36.5491 13.3253C37.2362 13.1888 37.6234 12.7273 37.6234 12.0253C37.6234 11.1673 37.0182 10.685 35.9716 10.685H34.6502ZM35.558 11.4156H35.8065C36.3747 11.4156 36.7143 11.66 36.7143 12.1059C36.7143 12.5687 36.3892 12.7975 35.8051 12.7975H35.558V11.4156ZM9.87211 11.4559H10.1628C11.401 11.4559 11.8542 12.2788 11.8542 13.0003C11.8542 13.3461 11.7565 14.5031 10.1205 14.5031H9.87211V11.4559Z" fill="#9D9D9D"/>
<path d="M0.867188 49.999V41.4678H3.38672C4.14062 41.4678 4.80859 41.6357 5.39062 41.9717C5.97656 42.3076 6.42969 42.7842 6.75 43.4014C7.07031 44.0186 7.23047 44.7256 7.23047 45.5225V45.9502C7.23047 46.7588 7.06836 47.4697 6.74414 48.083C6.42383 48.6963 5.96484 49.1689 5.36719 49.501C4.77344 49.833 4.0918 49.999 3.32227 49.999H0.867188ZM2.34961 42.6631V48.8154H3.31641C4.09375 48.8154 4.68945 48.5732 5.10352 48.0889C5.52148 47.6006 5.73438 46.9014 5.74219 45.9912V45.5166C5.74219 44.5908 5.54102 43.8838 5.13867 43.3955C4.73633 42.9072 4.15234 42.6631 3.38672 42.6631H2.34961ZM10.084 49.999H8.66016V43.6592H10.084V49.999ZM8.57227 42.0127C8.57227 41.7939 8.64062 41.6123 8.77734 41.4678C8.91797 41.3232 9.11719 41.251 9.375 41.251C9.63281 41.251 9.83203 41.3232 9.97266 41.4678C10.1133 41.6123 10.1836 41.7939 10.1836 42.0127C10.1836 42.2275 10.1133 42.4072 9.97266 42.5518C9.83203 42.6924 9.63281 42.7627 9.375 42.7627C9.11719 42.7627 8.91797 42.6924 8.77734 42.5518C8.64062 42.4072 8.57227 42.2275 8.57227 42.0127ZM15.1934 48.2764C15.1934 48.0225 15.0879 47.8291 14.877 47.6963C14.6699 47.5635 14.3242 47.4463 13.8398 47.3447C13.3555 47.2432 12.9512 47.1143 12.627 46.958C11.916 46.6143 11.5605 46.1162 11.5605 45.4639C11.5605 44.917 11.791 44.46 12.252 44.0928C12.7129 43.7256 13.2988 43.542 14.0098 43.542C14.7676 43.542 15.3789 43.7295 15.8438 44.1045C16.3125 44.4795 16.5469 44.9658 16.5469 45.5635H15.123C15.123 45.29 15.0215 45.0635 14.8184 44.8838C14.6152 44.7002 14.3457 44.6084 14.0098 44.6084C13.6973 44.6084 13.4414 44.6807 13.2422 44.8252C13.0469 44.9697 12.9492 45.1631 12.9492 45.4053C12.9492 45.624 13.041 45.7939 13.2246 45.915C13.4082 46.0361 13.7793 46.1592 14.3379 46.2842C14.8965 46.4053 15.334 46.5518 15.6504 46.7236C15.9707 46.8916 16.207 47.0947 16.3594 47.333C16.5156 47.5713 16.5938 47.8604 16.5938 48.2002C16.5938 48.7705 16.3574 49.2334 15.8848 49.5889C15.4121 49.9404 14.793 50.1162 14.0273 50.1162C13.5078 50.1162 13.0449 50.0225 12.6387 49.835C12.2324 49.6475 11.916 49.3896 11.6895 49.0615C11.4629 48.7334 11.3496 48.3799 11.3496 48.001H12.7324C12.752 48.3369 12.8789 48.5967 13.1133 48.7803C13.3477 48.96 13.6582 49.0498 14.0449 49.0498C14.4199 49.0498 14.7051 48.9795 14.9004 48.8389C15.0957 48.6943 15.1934 48.5068 15.1934 48.2764ZM20.4434 48.9795C20.7988 48.9795 21.0938 48.876 21.3281 48.6689C21.5625 48.4619 21.6875 48.2061 21.7031 47.9014H23.0449C23.0293 48.2959 22.9062 48.665 22.6758 49.0088C22.4453 49.3486 22.1328 49.6182 21.7383 49.8174C21.3438 50.0166 20.918 50.1162 20.4609 50.1162C19.5742 50.1162 18.8711 49.8291 18.3516 49.2549C17.832 48.6807 17.5723 47.8877 17.5723 46.876V46.7295C17.5723 45.7646 17.8301 44.9932 18.3457 44.415C18.8613 43.833 19.5645 43.542 20.4551 43.542C21.209 43.542 21.8223 43.7627 22.2949 44.2041C22.7715 44.6416 23.0215 45.2178 23.0449 45.9326H21.7031C21.6875 45.5693 21.5625 45.2705 21.3281 45.0361C21.0977 44.8018 20.8027 44.6846 20.4434 44.6846C19.9824 44.6846 19.627 44.8525 19.377 45.1885C19.127 45.5205 19 46.0264 18.9961 46.7061V46.9346C18.9961 47.6221 19.1191 48.1357 19.3652 48.4756C19.6152 48.8115 19.9746 48.9795 20.4434 48.9795ZM23.8535 46.7705C23.8535 46.1494 23.9766 45.5908 24.2227 45.0947C24.4688 44.5947 24.8145 44.2119 25.2598 43.9463C25.7051 43.6768 26.2168 43.542 26.7949 43.542C27.6504 43.542 28.3438 43.8174 28.875 44.3682C29.4102 44.9189 29.6992 45.6494 29.7422 46.5596L29.748 46.8936C29.748 47.5186 29.627 48.0771 29.3848 48.5693C29.1465 49.0615 28.8027 49.4424 28.3535 49.7119C27.9082 49.9814 27.3926 50.1162 26.8066 50.1162C25.9121 50.1162 25.1953 49.8193 24.6562 49.2256C24.1211 48.6279 23.8535 47.833 23.8535 46.8408V46.7705ZM25.2773 46.8936C25.2773 47.5459 25.4121 48.0576 25.6816 48.4287C25.9512 48.7959 26.3262 48.9795 26.8066 48.9795C27.2871 48.9795 27.6602 48.792 27.9258 48.417C28.1953 48.042 28.3301 47.4932 28.3301 46.7705C28.3301 46.1299 28.1914 45.6221 27.9141 45.2471C27.6406 44.8721 27.2676 44.6846 26.7949 44.6846C26.3301 44.6846 25.9609 44.8701 25.6875 45.2412C25.4141 45.6084 25.2773 46.1592 25.2773 46.8936ZM33.0938 48.1943L34.4355 43.6592H35.9062L33.709 49.999H32.4727L30.2578 43.6592H31.7344L33.0938 48.1943ZM39.5098 50.1162C38.6074 50.1162 37.875 49.833 37.3125 49.2666C36.7539 48.6963 36.4746 47.9385 36.4746 46.9932V46.8174C36.4746 46.1846 36.5957 45.6201 36.8379 45.124C37.084 44.624 37.4277 44.2354 37.8691 43.958C38.3105 43.6807 38.8027 43.542 39.3457 43.542C40.209 43.542 40.875 43.8174 41.3438 44.3682C41.8164 44.9189 42.0527 45.6982 42.0527 46.7061V47.2803H37.9102C37.9531 47.8037 38.127 48.2178 38.4316 48.5225C38.7402 48.8271 39.127 48.9795 39.5918 48.9795C40.2441 48.9795 40.7754 48.7158 41.1855 48.1885L41.9531 48.9209C41.6992 49.2998 41.3594 49.5947 40.9336 49.8057C40.5117 50.0127 40.0371 50.1162 39.5098 50.1162ZM39.3398 44.6846C38.9492 44.6846 38.6328 44.8213 38.3906 45.0947C38.1523 45.3682 38 45.749 37.9336 46.2373H40.6465V46.1318C40.6152 45.6553 40.4883 45.2959 40.2656 45.0537C40.043 44.8076 39.7344 44.6846 39.3398 44.6846ZM46.4824 44.96C46.2949 44.9287 46.1016 44.9131 45.9023 44.9131C45.25 44.9131 44.8105 45.1631 44.584 45.6631V49.999H43.1602V43.6592H44.5195L44.5547 44.3682C44.8984 43.8174 45.375 43.542 45.9844 43.542C46.1875 43.542 46.3555 43.5693 46.4883 43.624L46.4824 44.96Z" fill="white"/>
</svg>
