<svg width="12" height="14" viewBox="0 0 12 14" fill="none" xmlns="http://www.w3.org/2000/svg">
<path fill-rule="evenodd" clip-rule="evenodd" d="M3.75 -0.00012207C3.55109 -0.00012207 3.36032 0.0788956 3.21967 0.219548C3.07902 0.3602 3 0.550966 3 0.749878V3.74988C3 4.16388 3.336 4.49988 3.75 4.49988H8.25C8.44891 4.49988 8.63968 4.42086 8.78033 4.28021C8.92098 4.13956 9 3.94879 9 3.74988V0.749878C9 0.550966 8.92098 0.3602 8.78033 0.219548C8.63968 0.0788956 8.44891 -0.00012207 8.25 -0.00012207H3.75ZM4.5 2.99988V1.49988H7.5V2.99988H4.5ZM1.626 2.53288C1.79813 2.43316 1.92359 2.26914 1.97478 2.07692C2.02598 1.88469 1.99872 1.68 1.899 1.50788C1.79928 1.33575 1.63526 1.21029 1.44304 1.15909C1.25082 1.1079 1.04613 1.13516 0.874 1.23488C0.608232 1.38855 0.387568 1.60944 0.234159 1.87536C0.0807493 2.14128 -5.84731e-06 2.44288 3.17556e-10 2.74988V12.2499C3.17556e-10 13.2159 0.784 13.9999 1.75 13.9999H10.25C10.7141 13.9999 11.1592 13.8155 11.4874 13.4873C11.8156 13.1591 12 12.714 12 12.2499V2.74988C12 2.44288 11.9193 2.14128 11.7658 1.87536C11.6124 1.60944 11.3918 1.38855 11.126 1.23488C10.9539 1.13516 10.7492 1.1079 10.557 1.15909C10.3647 1.21029 10.2007 1.33575 10.101 1.50788C10.0013 1.68 9.97402 1.88469 10.0252 2.07692C10.0764 2.26914 10.2019 2.43316 10.374 2.53288C10.4123 2.55473 10.4441 2.58632 10.4662 2.62442C10.4883 2.66253 10.5 2.70581 10.5 2.74988V12.2499C10.5 12.3162 10.4737 12.3798 10.4268 12.4267C10.3799 12.4735 10.3163 12.4999 10.25 12.4999H1.75C1.6837 12.4999 1.62011 12.4735 1.57322 12.4267C1.52634 12.3798 1.5 12.3162 1.5 12.2499V2.74988C1.50001 2.70581 1.51168 2.66253 1.5338 2.62442C1.55593 2.58632 1.58774 2.55473 1.626 2.53288Z" fill="#AAAAAA"/>
</svg>
