<svg width="47" height="47" viewBox="0 0 47 47" fill="none" xmlns="http://www.w3.org/2000/svg">
<path d="M25.2625 20.5625C24.0875 20.2687 22.9125 19.6812 22.0312 18.8C21.15 18.5062 20.8563 17.625 20.8563 17.0375C20.8563 16.45 21.15 15.5687 21.7375 15.275C22.6187 14.6875 23.5 14.1 24.3813 14.3938C26.1438 14.3938 27.6125 15.275 28.4937 16.45L31.1375 12.925C30.2563 12.0437 29.375 11.4562 28.4937 10.8687C27.6125 10.2812 26.4375 9.9875 25.2625 9.9875V5.875H21.7375V9.9875C20.2687 10.2812 18.8 11.1625 17.625 12.3375C16.45 13.8062 15.5688 15.5688 15.8625 17.3313C15.8625 19.0938 16.45 20.8563 17.625 22.0312C19.0938 23.5 21.15 24.3813 22.9125 25.2625C23.7938 25.5563 24.9688 26.1438 25.85 26.7313C26.4375 27.3188 26.7313 28.2 26.7313 29.0812C26.7313 29.9625 26.4375 30.8438 25.85 31.725C24.9688 32.6063 23.7938 32.9 22.9125 32.9C21.7375 32.9 20.2688 32.6063 19.3875 31.725C18.5063 31.1375 17.625 30.2563 17.0375 29.375L14.1 32.6063C14.9813 33.7812 15.8625 34.6625 17.0375 35.5438C18.5063 36.425 20.2687 37.3062 22.0312 37.3062V41.125H25.2625V36.7188C27.025 36.425 28.4938 35.5438 29.6688 34.3687C31.1375 32.9 32.0187 30.55 32.0187 28.4937C32.0187 26.7312 31.4312 24.675 29.9625 23.5C28.4937 22.0312 27.025 21.15 25.2625 20.5625ZM23.5 0C10.575 0 0 10.575 0 23.5C0 36.425 10.575 47 23.5 47C36.425 47 47 36.425 47 23.5C47 10.575 36.425 0 23.5 0ZM23.5 43.7687C12.3375 43.7687 3.23125 34.6625 3.23125 23.5C3.23125 12.3375 12.3375 3.23125 23.5 3.23125C34.6625 3.23125 43.7687 12.3375 43.7687 23.5C43.7687 34.6625 34.6625 43.7687 23.5 43.7687Z" fill="#30FF51"/>
</svg>
