<svg width="23" height="16" viewBox="0 0 23 16" fill="none" xmlns="http://www.w3.org/2000/svg">
<path fill-rule="evenodd" clip-rule="evenodd" d="M6.4 14.4C6.4 14.1878 6.48429 13.9843 6.63432 13.8343C6.78434 13.6843 6.98783 13.6 7.2 13.6H21.6C21.8122 13.6 22.0157 13.6843 22.1657 13.8343C22.3157 13.9843 22.4 14.1878 22.4 14.4C22.4 14.6122 22.3157 14.8157 22.1657 14.9657C22.0157 15.1157 21.8122 15.2 21.6 15.2H7.2C6.98783 15.2 6.78434 15.1157 6.63432 14.9657C6.48429 14.8157 6.4 14.6122 6.4 14.4ZM6.4 8C6.4 7.78783 6.48429 7.58434 6.63432 7.43431C6.78434 7.28429 6.98783 7.2 7.2 7.2H21.6C21.8122 7.2 22.0157 7.28429 22.1657 7.43431C22.3157 7.58434 22.4 7.78783 22.4 8C22.4 8.21217 22.3157 8.41566 22.1657 8.56569C22.0157 8.71571 21.8122 8.8 21.6 8.8H7.2C6.98783 8.8 6.78434 8.71571 6.63432 8.56569C6.48429 8.41566 6.4 8.21217 6.4 8ZM6.4 1.6C6.4 1.38783 6.48429 1.18434 6.63432 1.03431C6.78434 0.884286 6.98783 0.8 7.2 0.8H21.6C21.8122 0.8 22.0157 0.884286 22.1657 1.03431C22.3157 1.18434 22.4 1.38783 22.4 1.6C22.4 1.81217 22.3157 2.01566 22.1657 2.16569C22.0157 2.31571 21.8122 2.4 21.6 2.4H7.2C6.98783 2.4 6.78434 2.31571 6.63432 2.16569C6.48429 2.01566 6.4 1.81217 6.4 1.6ZM1.6 3.2C2.02435 3.2 2.43131 3.03143 2.73137 2.73137C3.03143 2.43131 3.2 2.02435 3.2 1.6C3.2 1.17565 3.03143 0.768687 2.73137 0.468629C2.43131 0.168571 2.02435 0 1.6 0C1.17565 0 0.768687 0.168571 0.468629 0.468629C0.168571 0.768687 0 1.17565 0 1.6C0 2.02435 0.168571 2.43131 0.468629 2.73137C0.768687 3.03143 1.17565 3.2 1.6 3.2ZM1.6 9.6C2.02435 9.6 2.43131 9.43143 2.73137 9.13137C3.03143 8.83131 3.2 8.42435 3.2 8C3.2 7.57565 3.03143 7.16869 2.73137 6.86863C2.43131 6.56857 2.02435 6.4 1.6 6.4C1.17565 6.4 0.768687 6.56857 0.468629 6.86863C0.168571 7.16869 0 7.57565 0 8C0 8.42435 0.168571 8.83131 0.468629 9.13137C0.768687 9.43143 1.17565 9.6 1.6 9.6ZM1.6 16C2.02435 16 2.43131 15.8314 2.73137 15.5314C3.03143 15.2313 3.2 14.8243 3.2 14.4C3.2 13.9757 3.03143 13.5687 2.73137 13.2686C2.43131 12.9686 2.02435 12.8 1.6 12.8C1.17565 12.8 0.768687 12.9686 0.468629 13.2686C0.168571 13.5687 0 13.9757 0 14.4C0 14.8243 0.168571 15.2313 0.468629 15.5314C0.768687 15.8314 1.17565 16 1.6 16Z" fill="#AAAAAA"/>
</svg>
