<svg width="38" height="39" viewBox="0 0 38 39" fill="none" xmlns="http://www.w3.org/2000/svg">
<mask id="path-1-inside-1_798_2852" fill="white">
<path d="M29.9996 12.1567C34.0551 18.4131 32.2708 26.7725 26.0144 30.828C19.758 34.8835 11.3986 33.0993 7.3431 26.8429C3.28762 20.5865 5.07182 12.227 11.3282 8.17154C17.5846 4.11606 25.9441 5.90026 29.9996 12.1567ZM8.98838 25.7764C12.4549 31.1241 19.6002 32.6492 24.948 29.1827C30.2957 25.7163 31.8208 18.5709 28.3543 13.2232C24.8878 7.87541 17.7425 6.35034 12.3947 9.81682C7.04697 13.2833 5.5219 20.4286 8.98838 25.7764Z"/>
</mask>
<path d="M29.9996 12.1567C34.0551 18.4131 32.2708 26.7725 26.0144 30.828C19.758 34.8835 11.3986 33.0993 7.3431 26.8429C3.28762 20.5865 5.07182 12.227 11.3282 8.17154C17.5846 4.11606 25.9441 5.90026 29.9996 12.1567ZM8.98838 25.7764C12.4549 31.1241 19.6002 32.6492 24.948 29.1827C30.2957 25.7163 31.8208 18.5709 28.3543 13.2232C24.8878 7.87541 17.7425 6.35034 12.3947 9.81682C7.04697 13.2833 5.5219 20.4286 8.98838 25.7764Z" stroke="#C4C4C4" stroke-width="4" stroke-linejoin="round" stroke-dasharray="2 2" mask="url(#path-1-inside-1_798_2852)"/>
<mask id="path-2-inside-2_798_2852" fill="white">
<path d="M27.5552 10.6783C27.9394 10.2968 27.9438 9.67309 27.5355 9.31759C26.088 8.0575 24.3855 7.11793 22.5397 6.56587C20.3801 5.91998 18.0932 5.82511 15.8876 6.28989C13.682 6.75468 11.6279 7.76434 9.91261 9.22676C8.19735 10.6892 6.87557 12.5578 6.06785 14.6622C5.26013 16.7666 4.99219 19.0397 5.28846 21.2742C5.58473 23.5087 6.43578 25.6335 7.76399 27.4546C9.09219 29.2758 10.8553 30.7354 12.8924 31.7003C14.6335 32.525 16.5275 32.9659 18.4463 32.9979C18.9876 33.0069 19.4017 32.5404 19.3714 31.9998C19.3412 31.4593 18.8778 31.0499 18.3366 31.0342C16.7452 30.9881 15.1769 30.6129 13.7317 29.9284C11.9904 29.1036 10.4834 27.856 9.34813 26.2993C8.21283 24.7426 7.48538 22.9265 7.23214 21.0165C6.9789 19.1065 7.20793 17.1635 7.89834 15.3648C8.58875 13.566 9.71856 11.9688 11.1847 10.7188C12.6508 9.46875 14.4066 8.60573 16.2919 8.20845C18.1772 7.81117 20.132 7.89226 21.9779 8.44435C23.5099 8.90257 24.9265 9.67313 26.1401 10.7036C26.5528 11.054 27.1711 11.0598 27.5552 10.6783Z"/>
</mask>
<path d="M27.5552 10.6783C27.9394 10.2968 27.9438 9.67309 27.5355 9.31759C26.088 8.0575 24.3855 7.11793 22.5397 6.56587C20.3801 5.91998 18.0932 5.82511 15.8876 6.28989C13.682 6.75468 11.6279 7.76434 9.91261 9.22676C8.19735 10.6892 6.87557 12.5578 6.06785 14.6622C5.26013 16.7666 4.99219 19.0397 5.28846 21.2742C5.58473 23.5087 6.43578 25.6335 7.76399 27.4546C9.09219 29.2758 10.8553 30.7354 12.8924 31.7003C14.6335 32.525 16.5275 32.9659 18.4463 32.9979C18.9876 33.0069 19.4017 32.5404 19.3714 31.9998C19.3412 31.4593 18.8778 31.0499 18.3366 31.0342C16.7452 30.9881 15.1769 30.6129 13.7317 29.9284C11.9904 29.1036 10.4834 27.856 9.34813 26.2993C8.21283 24.7426 7.48538 22.9265 7.23214 21.0165C6.9789 19.1065 7.20793 17.1635 7.89834 15.3648C8.58875 13.566 9.71856 11.9688 11.1847 10.7188C12.6508 9.46875 14.4066 8.60573 16.2919 8.20845C18.1772 7.81117 20.132 7.89226 21.9779 8.44435C23.5099 8.90257 24.9265 9.67313 26.1401 10.7036C26.5528 11.054 27.1711 11.0598 27.5552 10.6783Z" stroke="#FFB800" stroke-width="4" stroke-linejoin="round" mask="url(#path-2-inside-2_798_2852)"/>
</svg>
