<svg width="22" height="19" viewBox="0 0 22 19" fill="none" xmlns="http://www.w3.org/2000/svg">
<path d="M7.36401 13.7222L10.9959 17.3541L14.6278 13.7222" stroke="#FFB800" stroke-width="2" stroke-linecap="round" stroke-linejoin="round"/>
<path d="M10.9958 9.18237V17.3541" stroke="#FFB800" stroke-width="2" stroke-linecap="round" stroke-linejoin="round"/>
<path d="M19.0587 14.7119C19.8481 14.1568 20.44 13.3646 20.7487 12.4503C21.0573 11.5359 21.0666 10.547 20.7751 9.6271C20.4836 8.70714 19.9066 7.904 19.1277 7.33422C18.3489 6.76444 17.4087 6.45767 16.4437 6.45842H15.2997C15.0266 5.39416 14.5156 4.40572 13.8052 3.56751C13.0949 2.7293 12.2036 2.06316 11.1985 1.61924C10.1935 1.17533 9.10077 0.965206 8.00274 1.00469C6.90471 1.04418 5.82995 1.33225 4.85936 1.84721C3.88877 2.36217 3.04766 3.09061 2.39933 3.97768C1.751 4.86476 1.31236 5.88735 1.11643 6.96848C0.920494 8.04961 0.972376 9.1611 1.26817 10.2193C1.56396 11.2774 2.09595 12.2547 2.82409 13.0776" stroke="#FFB800" stroke-width="2" stroke-linecap="round" stroke-linejoin="round"/>
</svg>
