<svg width="14" height="14" viewBox="0 0 14 14" fill="none" xmlns="http://www.w3.org/2000/svg">
<path d="M12.44 1H1.55995C1.43942 1.04329 1.33016 1.11427 1.24055 1.20748C1.15093 1.3007 1.08334 1.41369 1.04295 1.53779C1.00256 1.66189 0.990436 1.79382 1.00752 1.92346C1.0246 2.0531 1.07042 2.17701 1.14149 2.28571L5.32614 7V13L8.67386 10.4286V7L12.8585 2.28571C12.9296 2.17701 12.9754 2.0531 12.9925 1.92346C13.0096 1.79382 12.9974 1.66189 12.9571 1.53779C12.9167 1.41369 12.8491 1.3007 12.7595 1.20748C12.6698 1.11427 12.5606 1.04329 12.44 1Z" stroke="#D1D1D1" stroke-width="1.5" stroke-linecap="round" stroke-linejoin="round"/>
</svg>
