<svg width="20" height="18" viewBox="0 0 20 18" fill="none" xmlns="http://www.w3.org/2000/svg">
<path d="M3 2C2.73478 2 2.48043 2.10536 2.29289 2.29289C2.10536 2.48043 2 2.73478 2 3V15C2 15.2652 2.10536 15.5196 2.29289 15.7071C2.48043 15.8946 2.73478 16 3 16H17C17.2652 16 17.5196 15.8946 17.7071 15.7071C17.8946 15.5196 18 15.2652 18 15V6C18 5.73478 17.8946 5.48043 17.7071 5.29289C17.5196 5.10536 17.2652 5 17 5H11.07C10.5761 4.99996 10.0899 4.878 9.6545 4.64494C9.21908 4.41188 8.84793 4.07493 8.574 3.664L7.762 2.445C7.67065 2.30808 7.54692 2.19583 7.40178 2.11821C7.25665 2.04058 7.09459 1.99998 6.93 2H3ZM0 3C0 2.20435 0.316071 1.44129 0.87868 0.87868C1.44129 0.316071 2.20435 0 3 0H6.93C7.42387 3.58786e-05 7.91009 0.121996 8.3455 0.355056C8.78092 0.588116 9.15207 0.925066 9.426 1.336L10.238 2.555C10.3293 2.69192 10.4531 2.80417 10.5982 2.88179C10.7434 2.95942 10.9054 3.00002 11.07 3H17C17.7956 3 18.5587 3.31607 19.1213 3.87868C19.6839 4.44129 20 5.20435 20 6V15C20 15.7956 19.6839 16.5587 19.1213 17.1213C18.5587 17.6839 17.7956 18 17 18H3C2.20435 18 1.44129 17.6839 0.87868 17.1213C0.316071 16.5587 0 15.7956 0 15V3Z" fill="black"/>
</svg>
