<svg width="18" height="16" viewBox="0 0 18 16" fill="none" xmlns="http://www.w3.org/2000/svg">
<path d="M15.72 4L16.026 2.164C16.0498 2.02081 16.0421 1.87415 16.0035 1.73421C15.965 1.59427 15.8964 1.46441 15.8026 1.35365C15.7087 1.24288 15.5919 1.15388 15.4602 1.09281C15.3285 1.03174 15.1851 1.00007 15.04 1H2.39997C2.25481 1.00007 2.11141 1.03174 1.97972 1.09281C1.84803 1.15388 1.73122 1.24288 1.6374 1.35365C1.54357 1.46441 1.47499 1.59427 1.4364 1.73421C1.39782 1.87415 1.39017 2.02081 1.41397 2.164L1.71997 4M15.91 14.243L16.41 12.243C16.4469 12.0956 16.4497 11.9416 16.4183 11.7929C16.3868 11.6442 16.3218 11.5046 16.2283 11.3848C16.1348 11.265 16.0152 11.168 15.8786 11.1013C15.742 11.0347 15.592 11 15.44 11H1.99997C1.84797 11 1.69796 11.0347 1.56136 11.1013C1.42476 11.168 1.30516 11.265 1.21164 11.3848C1.11812 11.5046 1.05316 11.6442 1.02168 11.7929C0.990199 11.9416 0.993036 12.0956 1.02997 12.243L1.52997 14.243C1.58415 14.4592 1.70902 14.6512 1.88477 14.7883C2.06051 14.9255 2.27705 15 2.49997 15H14.94C15.1629 15 15.3794 14.9255 15.5552 14.7883C15.7309 14.6512 15.8558 14.4592 15.91 14.243V14.243ZM15.72 9L16.28 7.318C16.3301 7.16759 16.3437 7.00742 16.3197 6.85071C16.2957 6.69399 16.2348 6.54523 16.142 6.41669C16.0492 6.28815 15.9272 6.18351 15.786 6.11141C15.6448 6.0393 15.4885 6.0018 15.33 6.002L2.10997 6.019C1.95146 6.01917 1.79525 6.05703 1.65424 6.12944C1.51323 6.20186 1.39145 6.30676 1.29896 6.43549C1.20646 6.56422 1.14589 6.7131 1.12225 6.86985C1.09861 7.02659 1.11257 7.18671 1.16297 7.337L1.71997 9H15.72Z" stroke="#D1D1D1" stroke-width="1.5" stroke-linecap="round" stroke-linejoin="round"/>
</svg>
