<svg width="12" height="12" viewBox="0 0 12 12" fill="none" xmlns="http://www.w3.org/2000/svg">
<path d="M8.244 6.48L1.041 11.429C0.469 11.812 4.10013e-08 11.531 1.04558e-07 10.804L9.44603e-07 1.195C1.00798e-06 0.469999 0.469001 0.189 1.041 0.57L8.244 5.521C8.244 5.521 8.523 5.72 8.523 5.999C8.523 6.279 8.244 6.48 8.244 6.48ZM10 12L11 12C11.553 12 12 11.952 12 11.4L12 0.600001C12 0.0480014 11.553 1.01e-06 11 9.61651e-07L10 8.74228e-07C9.447 8.25883e-07 9 0.0480011 9 0.600001L9 11.4C9 11.952 9.447 12 10 12Z" fill="#323232"/>
</svg>
