<svg width="20" height="20" viewBox="0 0 20 20" fill="none" xmlns="http://www.w3.org/2000/svg">
<path d="M0 6.49951V10.5005H1V16.4995H0V19.4995H16L19 19.5005V19.4995H20V16.4995H19V10.5005H20V6.49951L10 0.499512L0 6.49951ZM4 16.4995V10.5005H6V16.4995H4ZM9 16.4995V10.5005H11V16.4995H9ZM16 16.4995H14V10.5005H16V16.4995ZM12 6.49951C11.9999 6.76222 11.9481 7.02235 11.8475 7.26503C11.7469 7.50772 11.5995 7.72822 11.4137 7.91393C11.2279 8.09965 11.0073 8.24695 10.7646 8.34742C10.5219 8.4479 10.2617 8.49958 9.999 8.49951C9.73629 8.49945 9.47617 8.44764 9.23348 8.34704C8.99079 8.24645 8.7703 8.09904 8.58458 7.91323C8.39886 7.72742 8.25156 7.50684 8.15109 7.26411C8.05061 7.02137 7.99893 6.76122 7.999 6.49851C7.99913 5.96795 8.21003 5.45916 8.58529 5.08409C8.96055 4.70902 9.46943 4.49838 10 4.49851C10.5306 4.49864 11.0393 4.70954 11.4144 5.0848C11.7895 5.46006 12.0001 5.96895 12 6.49951Z" fill="#484848"/>
</svg>
