<svg width="18" height="18" viewBox="0 0 18 18" fill="none" xmlns="http://www.w3.org/2000/svg">
<path d="M8.1 9.9C8.1 9.6613 8.19482 9.43239 8.3636 9.2636C8.53239 9.09482 8.7613 9 9 9C9.23869 9 9.46761 9.09482 9.6364 9.2636C9.80518 9.43239 9.9 9.6613 9.9 9.9V12.6C9.9 12.8387 9.80518 13.0676 9.6364 13.2364C9.46761 13.4052 9.23869 13.5 9 13.5C8.7613 13.5 8.53239 13.4052 8.3636 13.2364C8.19482 13.0676 8.1 12.8387 8.1 12.6V9.9ZM9 4.95C8.64196 4.95 8.29858 5.09223 8.04541 5.34541C7.79223 5.59858 7.65 5.94196 7.65 6.3C7.65 6.65804 7.79223 7.00142 8.04541 7.25459C8.29858 7.50777 8.64196 7.65 9 7.65C9.35804 7.65 9.70142 7.50777 9.95459 7.25459C10.2078 7.00142 10.35 6.65804 10.35 6.3C10.35 5.94196 10.2078 5.59858 9.95459 5.34541C9.70142 5.09223 9.35804 4.95 9 4.95ZM0 9C0 6.61305 0.948211 4.32387 2.63604 2.63604C4.32387 0.948211 6.61305 0 9 0C11.3869 0 13.6761 0.948211 15.364 2.63604C17.0518 4.32387 18 6.61305 18 9C18 11.3869 17.0518 13.6761 15.364 15.364C13.6761 17.0518 11.3869 18 9 18C6.61305 18 4.32387 17.0518 2.63604 15.364C0.948211 13.6761 0 11.3869 0 9ZM9 1.8C7.09044 1.8 5.25909 2.55857 3.90883 3.90883C2.55857 5.25909 1.8 7.09044 1.8 9C1.8 10.9096 2.55857 12.7409 3.90883 14.0912C5.25909 15.4414 7.09044 16.2 9 16.2C10.9096 16.2 12.7409 15.4414 14.0912 14.0912C15.4414 12.7409 16.2 10.9096 16.2 9C16.2 7.09044 15.4414 5.25909 14.0912 3.90883C12.7409 2.55857 10.9096 1.8 9 1.8Z" fill="#AAAAAA"/>
</svg>
