<svg width="20" height="20" viewBox="0 0 20 20" fill="none" xmlns="http://www.w3.org/2000/svg">
<path fill-rule="evenodd" clip-rule="evenodd" d="M19.4379 3.44606C19.734 4.23193 19.8912 5.06334 19.9024 5.90309C19.9642 6.95934 19.9645 7.30475 19.9667 9.97853L19.9667 10.0155C19.9667 12.7242 19.9523 13.0624 19.9046 14.1291C19.888 14.9595 19.7317 15.7778 19.4401 16.5539C19.1829 17.2166 18.7905 17.8185 18.2879 18.3211C17.7852 18.8238 17.1834 19.2162 16.5207 19.4733C15.7449 19.7645 14.9253 19.9216 14.0969 19.9379C13.038 20 12.691 20 9.98337 20C7.27575 20 6.93758 19.9856 5.86983 19.9379C5.03977 19.9106 4.22046 19.7419 3.44717 19.439C2.78419 19.1824 2.18203 18.7903 1.67916 18.2878C1.17629 17.7853 0.783765 17.1835 0.526666 16.5207C0.235059 15.7434 0.0787227 14.9252 0.0620911 14.0958C0 13.0358 0 12.6899 0 9.98226C0 7.27464 0.014414 6.93647 0.0620911 5.86872C0.0777505 5.04059 0.234872 4.22124 0.526666 3.44606C0.783334 2.78308 1.17557 2.18097 1.67827 1.67827C2.18098 1.17557 2.78308 0.783335 3.44606 0.526666C4.22148 0.235578 5.04065 0.0781174 5.86872 0.0609825C6.9276 0 7.27464 0 9.98226 0C12.6899 0 13.0281 0.0133053 14.0947 0.0609825C14.9231 0.0779923 15.7427 0.235455 16.5185 0.526666C17.1813 0.783514 17.7834 1.17581 18.286 1.67849C18.7887 2.18117 19.181 2.78318 19.4379 3.44606ZM4.84976 9.97672C4.84976 12.8085 7.14381 15.1026 9.97561 15.1026C11.3351 15.1026 12.6388 14.5625 13.6001 13.6012C14.5614 12.64 15.1015 11.3362 15.1015 9.97672C15.1015 8.61726 14.5614 7.31348 13.6001 6.3522C12.6388 5.39091 11.3351 4.85087 9.97561 4.85087C7.14381 4.85087 4.84976 7.14492 4.84976 9.97672ZM14.8479 5.76584C14.993 5.82586 15.1485 5.85667 15.3055 5.85653C15.9652 5.85653 16.4996 5.3221 16.4996 4.66127C16.4996 4.50438 16.4687 4.34903 16.4087 4.20408C16.3486 4.05913 16.2606 3.92743 16.1497 3.81649C16.0388 3.70555 15.9071 3.61755 15.7621 3.55751C15.6172 3.49747 15.4618 3.46657 15.3049 3.46657C15.148 3.46657 14.9927 3.49747 14.8477 3.55751C14.7028 3.61755 14.5711 3.70555 14.4601 3.81649C14.3492 3.92743 14.2612 4.05913 14.2012 4.20408C14.1411 4.34903 14.1102 4.50438 14.1102 4.66127C14.1101 4.81828 14.1409 4.97377 14.2009 5.11885C14.2609 5.26393 14.349 5.39575 14.46 5.50677C14.571 5.61779 14.7028 5.70582 14.8479 5.76584ZM13.3054 9.97576C13.3054 11.8147 11.8147 13.3054 9.97576 13.3054C8.13686 13.3054 6.64613 11.8147 6.64613 9.97576C6.64613 8.13686 8.13686 6.64613 9.97576 6.64613C11.8147 6.64613 13.3054 8.13686 13.3054 9.97576Z" fill="#FFB800"/>
</svg>
