<svg width="14" height="21" viewBox="0 0 14 21" fill="none" xmlns="http://www.w3.org/2000/svg">
<path d="M7.00059 6C7.26581 6 7.52016 6.10536 7.7077 6.29289C7.89523 6.48043 8.00059 6.73478 8.00059 7C8.00059 7.26522 8.10595 7.51957 8.29348 7.70711C8.48102 7.89464 8.73537 8 9.00059 8C9.26581 8 9.52016 7.89464 9.7077 7.70711C9.89523 7.51957 10.0006 7.26522 10.0006 7C10.0006 6.50061 9.87587 6.00913 9.63783 5.57013C9.39978 5.13113 9.05591 4.7585 8.6374 4.48603C8.2189 4.21357 7.73899 4.04988 7.24121 4.00983C6.74344 3.96977 6.24353 4.05462 5.78684 4.25666C5.33015 4.4587 4.93113 4.77155 4.62595 5.16684C4.32077 5.56213 4.11909 6.02735 4.03922 6.52031C3.95934 7.01326 4.00378 7.51836 4.16852 7.98979C4.33326 8.46123 4.61307 8.88408 4.98259 9.22C4.99259 9.23 5.14459 9.39 5.17659 9.436C5.28972 9.60065 5.35028 9.79573 5.35028 9.9955C5.35028 10.1953 5.28972 10.3903 5.17659 10.555C5.09566 10.6629 5.03739 10.7861 5.00531 10.9171C4.97322 11.0481 4.96797 11.1843 4.98988 11.3174C5.01179 11.4505 5.0604 11.5778 5.13279 11.6916C5.20518 11.8054 5.29984 11.9034 5.4111 11.9797C5.52235 12.056 5.64788 12.109 5.78015 12.1355C5.91241 12.162 6.04867 12.1615 6.18072 12.1339C6.31277 12.1064 6.43789 12.0524 6.54854 11.9753C6.6592 11.8981 6.7531 11.7994 6.82459 11.685C7.16749 11.1864 7.35065 10.5953 7.34976 9.99022C7.34887 9.3851 7.16396 8.79457 6.81959 8.297C6.66604 8.10295 6.50249 7.91703 6.32959 7.74C6.2695 7.68599 6.21582 7.62526 6.16959 7.559C6.06808 7.40843 6.00948 7.23306 6.00009 7.0517C5.99071 6.87035 6.03088 6.68987 6.11629 6.52962C6.20171 6.36936 6.32916 6.2354 6.48495 6.14209C6.64074 6.04879 6.819 5.99967 7.00059 6V6ZM7.00059 2.49264e-08C5.9268 -9.05852e-05 4.86739 0.246853 3.90431 0.721725C2.94124 1.1966 2.10032 1.88667 1.44662 2.73855C0.792923 3.59042 0.343968 4.58127 0.134492 5.63443C-0.0749849 6.68758 -0.0393665 7.77481 0.238591 8.812C0.307282 9.0682 0.474934 9.28662 0.704666 9.41921C0.934398 9.55179 1.20739 9.58769 1.46359 9.519C1.71979 9.45031 1.93821 9.28266 2.0708 9.05292C2.20338 8.82319 2.23928 8.5502 2.17059 8.294C1.98661 7.60658 1.95148 6.88781 2.06755 6.18573C2.18362 5.48365 2.44822 4.81444 2.84366 4.22281C3.2391 3.63119 3.75627 3.13079 4.3606 2.75506C4.96493 2.37933 5.64251 2.13693 6.34803 2.04406C7.05356 1.95118 7.77078 2.00998 8.45176 2.21651C9.13274 2.42304 9.76179 2.77256 10.2969 3.24169C10.8319 3.71082 11.2607 4.28877 11.5545 4.93689C11.8483 5.58501 12.0004 6.28839 12.0006 7C11.9963 7.9029 11.7531 8.78857 11.2956 9.567L7.73059 17C7.55484 17.3034 7.3026 17.5554 6.99904 17.7309C6.69548 17.9063 6.35121 17.9991 6.00059 18C5.47233 17.993 4.96768 17.7801 4.59411 17.4065C4.22054 17.0329 4.00758 16.5283 4.00059 16C4.00071 15.6491 4.0935 15.3045 4.26959 15.001C4.40246 14.7712 4.4386 14.498 4.37006 14.2416C4.30151 13.9851 4.1339 13.7664 3.90409 13.6335C3.67428 13.5006 3.4011 13.4645 3.14464 13.533C2.88819 13.6016 2.66946 13.7692 2.53659 13.999C2.27116 14.4566 2.09915 14.9623 2.03051 15.4868C1.96188 16.0113 1.99799 16.5442 2.13676 17.0547C2.27553 17.5651 2.51419 18.043 2.83893 18.4605C3.16367 18.8781 3.56803 19.2271 4.02858 19.4873C4.48914 19.7475 4.99675 19.9138 5.52201 19.9765C6.04727 20.0391 6.57975 19.9969 7.08859 19.8524C7.59744 19.7078 8.07255 19.4637 8.48641 19.1343C8.90026 18.8048 9.24464 18.3965 9.49959 17.933L13.0626 10.5C13.677 9.43588 14.0004 8.22879 14.0004 7.00004C14.0004 5.7713 13.677 4.56421 13.0626 3.50008C12.4483 2.43595 11.5646 1.55228 10.5005 0.937889C9.43642 0.323498 8.22933 3.12394e-05 7.00059 2.49264e-08V2.49264e-08Z" fill="#FFB800"/>
</svg>
