<svg width="727" height="707" viewBox="0 0 727 707" fill="none" xmlns="http://www.w3.org/2000/svg">
<path d="M212.63 705.47C198.261 711.781 183.477 697.468 189.094 682.683L250.632 520.702C255.159 508.787 270.23 505.378 279.349 514.206L375.239 607.042C384.358 615.871 381.639 631.239 370.059 636.326L212.63 705.47Z" fill="#FFB800"/>
<path fill-rule="evenodd" clip-rule="evenodd" d="M388.15 71.5522C354.486 71.5522 259.437 77.4581 259.437 130.869L264.465 269.777C264.465 297.69 267.465 342.788 265.844 388.062C264.223 433.336 230.492 514.182 153.852 514.182C77.2125 514.182 0 448.204 0 389.568C0 330.931 77.2125 264.455 153.852 264.455C166.785 264.455 178.503 266.348 189.047 269.777V116.413C189.047 24.2846 321.398 -3.10608 391.67 0.272919C469.478 2.43492 593.287 19.2876 593.287 119.902V196.47H521.891V123.89C521.891 75.7397 414.046 71.5522 388.15 71.5522Z" fill="#FFB800"/>
<path fill-rule="evenodd" clip-rule="evenodd" d="M79.2279 261.962C100.921 228.774 131.276 201.447 167.975 180.365L169.678 249.988C162.692 248.491 159.496 248.491 150.717 248.491H150.716C120.559 248.491 97.8521 253.804 79.2279 261.962ZM42.1699 391.202C42.1699 420.319 47.364 446.958 56.8265 471.107C83.4375 491.728 117.394 505.471 150.716 505.471C185.448 505.471 210.001 490.566 226.152 469.091C242.547 447.292 250.514 418.328 250.514 390.703C250.514 389.131 250.525 387.56 250.536 385.989C250.6 376.752 250.663 367.545 248.518 358.269V355.275L246.972 147.272C228.995 152.503 211.827 158.82 195.626 166.197V284.56L182.535 280.267C173.132 277.183 162.557 275.437 150.716 275.437C116.643 275.437 81.8908 289.924 55.0091 311.465C46.645 335.805 42.1699 362.417 42.1699 391.202ZM384.477 645.199C265.634 645.199 144.103 602.622 82.828 518.393C90.4097 522.557 99.9324 526.369 113.791 530.42C211.094 558.863 277.959 477.748 285.943 396.413C286.589 389.824 286.388 378.903 286.172 367.24L286.172 367.239C286.059 361.12 285.943 354.797 285.943 348.788C285.943 336.486 283.219 211.538 281.609 138.739C314.078 132.113 348.634 128.734 384.477 128.734C425.8 128.734 465.414 133.226 502.09 142.005L502.005 143.204L525.957 150.138V150.689H527.862L555.807 158.778C658.025 198.934 726.783 278.37 726.783 391.202C726.783 559.655 552.93 645.199 384.477 645.199ZM527.862 150.689L525.957 150.138V148.45C528.363 149.177 530.755 149.923 533.131 150.689H527.862ZM632.839 402.941C632.839 445.264 615.131 479.573 593.286 479.573C571.442 479.573 553.734 445.264 553.734 402.941C553.734 360.617 571.442 326.308 593.286 326.308C615.131 326.308 632.839 360.617 632.839 402.941ZM440.02 402.941C440.02 445.264 422.312 479.573 400.467 479.573C378.623 479.573 360.915 445.264 360.915 402.941C360.915 360.617 378.623 326.308 400.467 326.308C422.312 326.308 440.02 360.617 440.02 402.941Z" fill="#FFB800"/>
</svg>
