<svg width="17" height="19" viewBox="0 0 17 19" fill="none" xmlns="http://www.w3.org/2000/svg">
<path d="M1.65684 7.3622C1.68949 6.95547 1.87413 6.57596 2.174 6.29925C2.47387 6.02254 2.86696 5.86893 3.275 5.86902H13.0602C13.4682 5.86893 13.8613 6.02254 14.1612 6.29925C14.461 6.57596 14.6457 6.95547 14.6783 7.3622L15.33 15.4773C15.3479 15.7006 15.3194 15.9252 15.2463 16.137C15.1731 16.3488 15.0569 16.5431 14.905 16.7077C14.7531 16.8724 14.5687 17.0038 14.3635 17.0937C14.1583 17.1836 13.9367 17.2301 13.7126 17.2302H2.62254C2.3985 17.2301 2.1769 17.1836 1.97169 17.0937C1.76649 17.0038 1.58211 16.8724 1.43019 16.7077C1.27826 16.5431 1.16207 16.3488 1.08893 16.137C1.01579 15.9252 0.987279 15.7006 1.0052 15.4773L1.65684 7.3622V7.3622Z" stroke="#FFB800" stroke-width="2" stroke-linecap="round" stroke-linejoin="round"/>
<path d="M11.4137 8.30359V4.24604C11.4137 3.38514 11.0717 2.55949 10.463 1.95074C9.85422 1.34199 9.02857 1 8.16767 1C7.30677 1 6.48112 1.34199 5.87237 1.95074C5.26362 2.55949 4.92163 3.38514 4.92163 4.24604V8.30359" stroke="#FFB800" stroke-width="2" stroke-linecap="round" stroke-linejoin="round"/>
</svg>
