<svg width="44" height="57" viewBox="0 0 44 57" fill="none" xmlns="http://www.w3.org/2000/svg">
<g opacity="0.18">
<circle cx="30.0769" cy="13.9221" r="12.9231" fill="#9D9D9D"/>
<circle cx="13.9231" cy="13.9221" r="13.4231" fill="#9D9D9D" stroke="#242424"/>
<circle cx="30.0769" cy="13.9221" r="13.4231" fill="#9D9D9D" stroke="#242424"/>
<path d="M5.78906 42.4678L8.25 49.0068L10.7051 42.4678H12.6211V50.999H11.1445V48.1865L11.291 44.4248L8.77148 50.999H7.71094L5.19727 44.4307L5.34375 48.1865V50.999H3.86719V42.4678H5.78906ZM18.0293 50.999C17.9668 50.8779 17.9121 50.6807 17.8652 50.4072C17.4121 50.8799 16.8574 51.1162 16.2012 51.1162C15.5645 51.1162 15.0449 50.9346 14.6426 50.5713C14.2402 50.208 14.0391 49.7588 14.0391 49.2236C14.0391 48.5479 14.2891 48.0303 14.7891 47.6709C15.293 47.3076 16.0117 47.126 16.9453 47.126H17.8184V46.71C17.8184 46.3818 17.7266 46.1201 17.543 45.9248C17.3594 45.7256 17.0801 45.626 16.7051 45.626C16.3809 45.626 16.1152 45.708 15.9082 45.8721C15.7012 46.0322 15.5977 46.2373 15.5977 46.4873H14.1738C14.1738 46.1396 14.2891 45.8154 14.5195 45.5146C14.75 45.21 15.0625 44.9717 15.457 44.7998C15.8555 44.6279 16.2988 44.542 16.7871 44.542C17.5293 44.542 18.1211 44.7295 18.5625 45.1045C19.0039 45.4756 19.2305 45.999 19.2422 46.6748V49.5342C19.2422 50.1045 19.3223 50.5596 19.4824 50.8994V50.999H18.0293ZM16.4648 49.9736C16.7461 49.9736 17.0098 49.9053 17.2559 49.7686C17.5059 49.6318 17.6934 49.4482 17.8184 49.2178V48.0225H17.0508C16.5234 48.0225 16.127 48.1143 15.8613 48.2979C15.5957 48.4814 15.4629 48.7412 15.4629 49.0771C15.4629 49.3506 15.5527 49.5693 15.7324 49.7334C15.916 49.8936 16.1602 49.9736 16.4648 49.9736ZM24.2871 49.2764C24.2871 49.0225 24.1816 48.8291 23.9707 48.6963C23.7637 48.5635 23.418 48.4463 22.9336 48.3447C22.4492 48.2432 22.0449 48.1143 21.7207 47.958C21.0098 47.6143 20.6543 47.1162 20.6543 46.4639C20.6543 45.917 20.8848 45.46 21.3457 45.0928C21.8066 44.7256 22.3926 44.542 23.1035 44.542C23.8613 44.542 24.4727 44.7295 24.9375 45.1045C25.4062 45.4795 25.6406 45.9658 25.6406 46.5635H24.2168C24.2168 46.29 24.1152 46.0635 23.9121 45.8838C23.709 45.7002 23.4395 45.6084 23.1035 45.6084C22.791 45.6084 22.5352 45.6807 22.3359 45.8252C22.1406 45.9697 22.043 46.1631 22.043 46.4053C22.043 46.624 22.1348 46.7939 22.3184 46.915C22.502 47.0361 22.873 47.1592 23.4316 47.2842C23.9902 47.4053 24.4277 47.5518 24.7441 47.7236C25.0645 47.8916 25.3008 48.0947 25.4531 48.333C25.6094 48.5713 25.6875 48.8604 25.6875 49.2002C25.6875 49.7705 25.4512 50.2334 24.9785 50.5889C24.5059 50.9404 23.8867 51.1162 23.1211 51.1162C22.6016 51.1162 22.1387 51.0225 21.7324 50.835C21.3262 50.6475 21.0098 50.3896 20.7832 50.0615C20.5566 49.7334 20.4434 49.3799 20.4434 49.001H21.8262C21.8457 49.3369 21.9727 49.5967 22.207 49.7803C22.4414 49.96 22.752 50.0498 23.1387 50.0498C23.5137 50.0498 23.7988 49.9795 23.9941 49.8389C24.1895 49.6943 24.2871 49.5068 24.2871 49.2764ZM28.7168 43.1182V44.6592H29.8359V45.7139H28.7168V49.2529C28.7168 49.4951 28.7637 49.6709 28.8574 49.7803C28.9551 49.8857 29.127 49.9385 29.373 49.9385C29.5371 49.9385 29.7031 49.9189 29.8711 49.8799V50.9814C29.5469 51.0713 29.2344 51.1162 28.9336 51.1162C27.8398 51.1162 27.293 50.5127 27.293 49.3057V45.7139H26.25V44.6592H27.293V43.1182H28.7168ZM33.7207 51.1162C32.8184 51.1162 32.0859 50.833 31.5234 50.2666C30.9648 49.6963 30.6855 48.9385 30.6855 47.9932V47.8174C30.6855 47.1846 30.8066 46.6201 31.0488 46.124C31.2949 45.624 31.6387 45.2354 32.0801 44.958C32.5215 44.6807 33.0137 44.542 33.5566 44.542C34.4199 44.542 35.0859 44.8174 35.5547 45.3682C36.0273 45.9189 36.2637 46.6982 36.2637 47.7061V48.2803H32.1211C32.1641 48.8037 32.3379 49.2178 32.6426 49.5225C32.9512 49.8271 33.3379 49.9795 33.8027 49.9795C34.4551 49.9795 34.9863 49.7158 35.3965 49.1885L36.1641 49.9209C35.9102 50.2998 35.5703 50.5947 35.1445 50.8057C34.7227 51.0127 34.248 51.1162 33.7207 51.1162ZM33.5508 45.6846C33.1602 45.6846 32.8438 45.8213 32.6016 46.0947C32.3633 46.3682 32.2109 46.749 32.1445 47.2373H34.8574V47.1318C34.8262 46.6553 34.6992 46.2959 34.4766 46.0537C34.2539 45.8076 33.9453 45.6846 33.5508 45.6846ZM40.6934 45.96C40.5059 45.9287 40.3125 45.9131 40.1133 45.9131C39.4609 45.9131 39.0215 46.1631 38.7949 46.6631V50.999H37.3711V44.6592H38.7305L38.7656 45.3682C39.1094 44.8174 39.5859 44.542 40.1953 44.542C40.3984 44.542 40.5664 44.5693 40.6992 44.624L40.6934 45.96Z" fill="white"/>
</g>
</svg>
