<svg width="8" height="12" viewBox="0 0 8 12" fill="none" xmlns="http://www.w3.org/2000/svg">
<path d="M3.99958 7.42857C4.60579 7.42857 5.18717 7.18776 5.61583 6.7591C6.04448 6.33045 6.2853 5.74907 6.2853 5.14286V2.28571C6.2853 1.6795 6.04448 1.09812 5.61583 0.66947C5.18717 0.240816 4.60579 0 3.99958 0C3.39337 0 2.81199 0.240816 2.38334 0.66947C1.95468 1.09812 1.71387 1.6795 1.71387 2.28571V5.14286C1.71387 5.74907 1.95468 6.33045 2.38334 6.7591C2.81199 7.18776 3.39337 7.42857 3.99958 7.42857Z" fill="#0E0E0E"/>
<path d="M8 5.14284C8 4.99129 7.9398 4.84594 7.83263 4.73878C7.72547 4.63162 7.58012 4.57141 7.42857 4.57141C7.27702 4.57141 7.13167 4.63162 7.02451 4.73878C6.91735 4.84594 6.85714 4.99129 6.85714 5.14284C6.85714 5.9006 6.55612 6.62733 6.02031 7.16314C5.48449 7.69896 4.75776 7.99998 4 7.99998C3.24224 7.99998 2.51551 7.69896 1.97969 7.16314C1.44388 6.62733 1.14286 5.9006 1.14286 5.14284C1.14286 4.99129 1.08265 4.84594 0.975489 4.73878C0.868326 4.63162 0.722981 4.57141 0.571429 4.57141C0.419876 4.57141 0.274531 4.63162 0.167368 4.73878C0.060204 4.84594 0 4.99129 0 5.14284C0.00112635 6.10389 0.348233 7.03242 0.977817 7.75854C1.6074 8.48466 2.47737 8.95983 3.42857 9.09713V10.2857H2.22286C2.08798 10.2857 1.95862 10.3393 1.86324 10.4347C1.76787 10.53 1.71429 10.6594 1.71429 10.7943V10.92C1.71429 11.0549 1.76787 11.1842 1.86324 11.2796C1.95862 11.375 2.08798 11.4286 2.22286 11.4286H5.77714C5.91202 11.4286 6.04138 11.375 6.13676 11.2796C6.23213 11.1842 6.28571 11.0549 6.28571 10.92V10.7943C6.28571 10.6594 6.23213 10.53 6.13676 10.4347C6.04138 10.3393 5.91202 10.2857 5.77714 10.2857H4.57143V9.09713C5.52263 8.95983 6.3926 8.48466 7.02218 7.75854C7.65177 7.03242 7.99887 6.10389 8 5.14284Z" fill="#0E0E0E"/>
</svg>
