<svg width="19" height="19" viewBox="0 0 19 19" fill="none" xmlns="http://www.w3.org/2000/svg">
<path d="M10.4498 0.000366211C10.1978 0.000366211 9.95618 0.100458 9.77801 0.278623C9.59985 0.456787 9.49976 0.69843 9.49976 0.950393V8.55061C9.49976 8.80257 9.59985 9.04421 9.77801 9.22238C9.95618 9.40054 10.1978 9.50064 10.4498 9.50064H18.05C18.302 9.50064 18.5436 9.40054 18.7218 9.22238C18.8999 9.04421 19 8.80257 19 8.55061C19 6.28294 18.0992 4.10816 16.4957 2.50467C14.8922 0.901193 12.7174 0.000366211 10.4498 0.000366211ZM11.3998 7.60058V1.96692C12.8212 2.17176 14.1382 2.83123 15.1537 3.84672C16.1692 4.86221 16.8286 6.17915 17.0335 7.60058H11.3998Z" fill="#FFB800"/>
<path d="M17.8784 11.4576C17.7606 11.4155 17.6355 11.3971 17.5105 11.4034C17.3855 11.4098 17.2629 11.4407 17.1499 11.4946C17.0369 11.5484 16.9357 11.6241 16.852 11.7172C16.7684 11.8103 16.7039 11.919 16.6624 12.0371C16.2343 13.2474 15.5065 14.3295 14.5471 15.1825C13.5877 16.0354 12.4279 16.6315 11.1758 16.915C9.9238 17.1985 8.62033 17.1603 7.38705 16.8038C6.15377 16.4474 5.03088 15.7844 4.12313 14.8766C3.21538 13.9689 2.55235 12.846 2.19591 11.6127C1.83947 10.3794 1.80123 9.07597 2.08475 7.82391C2.36828 6.57186 2.96433 5.41203 3.8173 4.45262C4.67027 3.49321 5.75236 2.7655 6.96262 2.33736C7.20073 2.25422 7.39605 2.07989 7.50562 1.85273C7.61519 1.62557 7.63004 1.36418 7.54689 1.12608C7.46374 0.887975 7.28941 0.692653 7.06225 0.583082C6.83509 0.47351 6.57371 0.458666 6.3356 0.541813C4.82225 1.07647 3.46902 1.98582 2.40222 3.185C1.33542 4.38418 0.589827 5.83408 0.235027 7.3994C-0.119773 8.96471 -0.0722111 10.5944 0.373274 12.1364C0.818759 13.6783 1.64764 15.0823 2.78256 16.2172C3.91749 17.3521 5.32144 18.181 6.8634 18.6265C8.40536 19.072 10.035 19.1195 11.6004 18.7647C13.1657 18.4099 14.6156 17.6643 15.8148 16.5975C17.0139 15.5307 17.9233 14.1775 18.4579 12.6642C18.5401 12.4273 18.5253 12.1675 18.4167 11.9415C18.3082 11.7155 18.1147 11.5416 17.8784 11.4576Z" fill="#FFB800"/>
</svg>
