<svg width="37" height="29" viewBox="0 0 37 29" fill="none" xmlns="http://www.w3.org/2000/svg">
<path d="M30.3594 29H5.89062C4.386 29.0001 2.93837 28.4244 1.84471 27.3911C0.75104 26.3578 0.0942476 24.9451 0.00906274 23.4429L3.08101e-08 23.1094V4.07812C-0.000126915 3.04477 0.392036 2.0499 1.09723 1.29457C1.80243 0.539245 2.76807 0.0797901 3.799 0.00906274L4.07812 3.08102e-08H26.7344C27.7677 -0.000126915 28.7626 0.392035 29.5179 1.09723C30.2733 1.80243 30.7327 2.76807 30.8034 3.799L30.8125 4.07812V5.4375H32.1719C33.2052 5.43737 34.2001 5.82954 34.9554 6.53473C35.7108 7.23993 36.1702 8.20557 36.2409 9.2365L36.25 9.51562V23.1094C36.2501 24.614 35.6744 26.0616 34.6411 27.1553C33.6078 28.249 32.1951 28.9058 30.6929 28.9909L30.3594 29H5.89062H30.3594ZM5.89062 26.2812H30.3594C31.1557 26.2812 31.9229 25.9816 32.5085 25.442C33.0941 24.9024 33.4553 24.1622 33.5204 23.3686L33.5312 23.1094V9.51562C33.5312 9.18713 33.4123 8.86976 33.1964 8.62219C32.9804 8.37462 32.6822 8.21361 32.3568 8.16894L32.1719 8.15625H30.8125V22.2031C30.8125 22.5316 30.6935 22.849 30.4776 23.0966C30.2617 23.3441 29.9634 23.5051 29.638 23.5498L29.4531 23.5625C29.1246 23.5625 28.8073 23.4435 28.5597 23.2276C28.3121 23.0117 28.1511 22.7134 28.1064 22.388L28.0938 22.2031V4.07812C28.0937 3.74963 27.9748 3.43226 27.7589 3.18469C27.5429 2.93712 27.2447 2.77611 26.9192 2.73144L26.7344 2.71875H4.07812C3.74963 2.71876 3.43226 2.83773 3.18469 3.05364C2.93712 3.26955 2.77611 3.56781 2.73144 3.89325L2.71875 4.07812V23.1094C2.71878 23.9054 3.01812 24.6723 3.55736 25.2579C4.09659 25.8435 4.83629 26.2049 5.62962 26.2704L5.89062 26.2812H30.3594H5.89062ZM18.5709 19.0312H24.0192C24.3637 19.0314 24.6952 19.1622 24.9469 19.3973C25.1985 19.6325 25.3516 19.9544 25.375 20.298C25.3985 20.6416 25.2907 20.9813 25.0733 21.2485C24.856 21.5157 24.5453 21.6904 24.2041 21.7373L24.0192 21.75H18.5709C18.2265 21.7499 17.8949 21.6191 17.6433 21.3839C17.3916 21.1488 17.2386 20.8269 17.2151 20.4833C17.1916 20.1397 17.2994 19.7999 17.5168 19.5328C17.7341 19.2656 18.0448 19.0909 18.386 19.0439L18.5709 19.0312H24.0192H18.5709ZM13.1279 12.6966C13.4885 12.6966 13.8342 12.8398 14.0892 13.0947C14.3441 13.3496 14.4873 13.6954 14.4873 14.0559V20.3906C14.4873 20.7512 14.3441 21.0969 14.0892 21.3518C13.8342 21.6068 13.4885 21.75 13.1279 21.75H6.79325C6.43272 21.75 6.08696 21.6068 5.83203 21.3518C5.57709 21.0969 5.43388 20.7512 5.43388 20.3906V14.0559C5.43388 13.6954 5.57709 13.3496 5.83203 13.0947C6.08696 12.8398 6.43272 12.6966 6.79325 12.6966H13.1279ZM11.7686 15.4153H8.15263V19.0312H11.7686V15.4153ZM18.5709 12.6966H24.0192C24.3637 12.6967 24.6952 12.8275 24.9469 13.0626C25.1985 13.2978 25.3516 13.6197 25.375 13.9633C25.3985 14.3069 25.2907 14.6466 25.0733 14.9138C24.856 15.181 24.5453 15.3557 24.2041 15.4026L24.0192 15.4153H18.5709C18.224 15.4188 17.8889 15.2896 17.6342 15.0541C17.3795 14.8186 17.2245 14.4947 17.2008 14.1486C17.1772 13.8025 17.2868 13.4605 17.5071 13.1926C17.7274 12.9246 18.0419 12.7511 18.386 12.7074L18.5709 12.6966H24.0192H18.5709ZM6.79325 6.34737H24.0192C24.3661 6.34385 24.7012 6.47306 24.9559 6.70855C25.2106 6.94405 25.3657 7.268 25.3893 7.61409C25.4129 7.96017 25.3033 8.30219 25.083 8.57012C24.8627 8.83804 24.5483 9.0116 24.2041 9.05525L24.0192 9.06612H6.79325C6.44883 9.06602 6.11729 8.93518 5.86563 8.70005C5.61396 8.46492 5.46093 8.14302 5.43745 7.7994C5.41398 7.45579 5.52181 7.11607 5.73916 6.8489C5.95651 6.58172 6.26717 6.40701 6.60837 6.36006L6.79325 6.34737H24.0192H6.79325Z" fill="white"/>
</svg>
