<svg width="16" height="14" viewBox="0 0 16 14" fill="none" xmlns="http://www.w3.org/2000/svg">
<path d="M7.61758 14C7.47309 13.9991 7.33062 13.965 7.20058 13.9C7.05228 13.8099 6.93368 13.6759 6.86018 13.5154C6.78668 13.3549 6.76168 13.1754 6.78843 13V9.65012L1.5371 13.79C1.3977 13.9038 1.22989 13.9745 1.0531 13.994C0.876311 14.0135 0.697792 13.9809 0.538234 13.9C0.375924 13.8168 0.239463 13.6884 0.144331 13.5294C0.0491979 13.3703 -0.00079949 13.1869 9.66802e-06 13V1.00035C-0.00079949 0.813459 0.0491979 0.63008 0.144331 0.471006C0.239463 0.311933 0.375924 0.183532 0.538234 0.100369C0.697647 0.0188987 0.876281 -0.0140251 1.05319 0.00545691C1.23011 0.0249389 1.39797 0.0960195 1.5371 0.210366L6.78843 4.34526V1.00035C6.76271 0.825793 6.78821 0.647298 6.86166 0.487811C6.93511 0.328324 7.05314 0.195135 7.20058 0.105369C7.35999 0.0238987 7.53863 -0.00902511 7.71554 0.0104569C7.89245 0.0299389 8.06031 0.101019 8.19945 0.215366L15.6279 6.21521C15.7438 6.30874 15.8376 6.42826 15.902 6.5647C15.9665 6.70114 16 6.85092 16 7.00269C16 7.15446 15.9665 7.30423 15.902 7.44067C15.8376 7.57711 15.7438 7.69663 15.6279 7.79016L8.19945 13.79C8.0328 13.9234 7.82852 13.9971 7.61758 14V14Z" fill="#AAAAAA"/>
</svg>
