<svg width="27" height="27" viewBox="0 0 27 27" fill="none" xmlns="http://www.w3.org/2000/svg">
<path d="M8.67857 27.0001H2.89286C1.29576 27.0001 0 25.7044 0 24.1073V2.89298C0 1.29588 1.29576 0.00012207 2.89286 0.00012207H8.67857C10.2757 0.00012207 11.5714 1.29588 11.5714 2.89298V24.1073C11.5714 25.7044 10.2757 27.0001 8.67857 27.0001ZM27 24.1073V2.89298C27 1.29588 25.7042 0.00012207 24.1071 0.00012207H18.3214C16.7243 0.00012207 15.4286 1.29588 15.4286 2.89298V24.1073C15.4286 25.7044 16.7243 27.0001 18.3214 27.0001H24.1071C25.7042 27.0001 27 25.7044 27 24.1073Z" fill="#424242"/>
</svg>
