<svg width="50" height="78" viewBox="0 0 50 78" fill="none" xmlns="http://www.w3.org/2000/svg">
<g filter="url(#filter0_d_529_1507)">
<path d="M26.0477 43.6731H19.9299C19.7772 43.6814 19.6247 43.6526 19.4854 43.5893C19.3462 43.526 19.2242 43.43 19.13 43.3095C19.034 43.1864 18.9649 43.0444 18.9273 42.8928C18.8897 42.7412 18.8845 42.5834 18.9119 42.4297C19.0088 41.8455 19.13 41.0747 19.2803 40.0955L19.5566 38.3334C19.8316 36.5646 20.1127 34.7968 20.4001 33.03V32.9815L20.8558 30.1601L21.0982 28.6597V28.6476C21.2727 27.569 21.4109 26.7134 21.5103 26.0759C21.5158 25.9464 21.5479 25.8194 21.6045 25.7029C21.6612 25.5863 21.7412 25.4826 21.8397 25.3983C21.9381 25.3139 22.0528 25.2507 22.1767 25.2126C22.3006 25.1745 22.431 25.1623 22.5598 25.1767H26.2441C28.0135 25.1961 29.7756 25.024 31.5062 24.6628C34.1116 24.1429 36.5283 22.9295 38.5015 21.1506C40.2304 19.4897 41.5283 17.4322 42.2827 15.1564C42.6511 14.0996 42.9372 13.0138 43.1359 11.9133C43.1529 11.8115 43.1723 11.7533 43.1965 11.734C43.2035 11.7246 43.2127 11.7171 43.2232 11.712C43.2338 11.7069 43.2454 11.7045 43.2571 11.7049H43.2813C43.3345 11.7273 43.3849 11.7557 43.4316 11.7897C44.7041 12.752 45.5549 14.1699 45.807 15.7454C46.093 17.3937 46.0615 19.0807 45.71 20.7168C45.2509 23.882 43.65 26.7701 41.2089 28.8367C38.5124 30.7588 35.2448 31.7122 31.9377 31.5417H30.8736C30.4775 31.5384 30.0942 31.6817 29.7974 31.9441C29.4897 32.2111 29.2849 32.5771 29.2181 32.9791L29.1212 33.4493L27.7784 41.8795L27.7299 42.2455C27.66 42.6519 27.4457 43.0194 27.1263 43.2804C26.8266 43.5383 26.4431 43.6779 26.0477 43.6731V43.6731ZM17.3752 38.8254H10.1884C10.0191 38.829 9.85101 38.7949 9.69636 38.7258C9.54171 38.6566 9.4043 38.5541 9.29403 38.4255C9.17916 38.2992 9.0944 38.1485 9.04612 37.9848C8.99784 37.8211 8.9873 37.6485 9.01529 37.4802L14.6653 1.63132C14.7363 1.17139 14.9756 0.754198 15.3367 0.460601C15.6855 0.159835 16.1317 -0.00384586 16.5923 6.86209e-05H31.1693C31.9692 0.0315788 32.7642 0.138229 33.5447 0.317594C34.4706 0.494535 35.382 0.753888 36.2643 1.09323C37.8696 1.66089 39.2616 2.70847 40.2515 4.09396C41.1895 5.50707 41.6719 7.17711 41.6283 8.87381C41.5879 10.8415 41.2108 12.7877 40.5133 14.628C39.9639 16.3913 39.0117 18.0024 37.7319 19.3339C36.4521 20.6654 34.88 21.6808 33.1399 22.2995C31.1602 22.97 29.0856 23.3178 26.9954 23.3297C26.9712 23.3442 25.929 23.3467 24.814 23.3467L22.6325 23.3297C21.9414 23.2592 21.2504 23.4655 20.7111 23.9035C20.1718 24.3414 19.8281 24.9754 19.7554 25.6663C19.7239 25.7972 18.987 30.3855 17.683 38.583C17.683 38.6214 17.6745 38.6593 17.6581 38.694C17.6417 38.7287 17.6178 38.7594 17.5881 38.7837C17.5584 38.8081 17.5237 38.8255 17.4865 38.8348C17.4492 38.8441 17.4104 38.8451 17.3727 38.8375L17.3752 38.8254V38.8254Z" fill="#FFB800"/>
<path d="M5.74121 63.2998V66.998H4.01172V57.0449H7.81934C8.93132 57.0449 9.81315 57.3343 10.4648 57.9131C11.1211 58.4919 11.4492 59.2575 11.4492 60.21C11.4492 61.1852 11.1279 61.944 10.4854 62.4863C9.84733 63.0286 8.95182 63.2998 7.79883 63.2998H5.74121ZM5.74121 61.9121H7.81934C8.43457 61.9121 8.90397 61.7686 9.22754 61.4814C9.55111 61.1898 9.71289 60.7705 9.71289 60.2236C9.71289 59.6859 9.54883 59.2575 9.2207 58.9385C8.89258 58.6149 8.44141 58.4486 7.86719 58.4395H5.74121V61.9121ZM17.1436 66.998C17.0706 66.8568 17.0068 66.6266 16.9521 66.3076C16.4235 66.859 15.7764 67.1348 15.0107 67.1348C14.2679 67.1348 13.6618 66.9229 13.1924 66.499C12.723 66.0752 12.4883 65.5511 12.4883 64.9268C12.4883 64.1383 12.7799 63.5345 13.3633 63.1152C13.9512 62.6914 14.7897 62.4795 15.8789 62.4795H16.8975V61.9941C16.8975 61.6113 16.7904 61.306 16.5762 61.0781C16.362 60.8457 16.0361 60.7295 15.5986 60.7295C15.2204 60.7295 14.9105 60.8252 14.6689 61.0166C14.4274 61.2035 14.3066 61.4427 14.3066 61.7344H12.6455C12.6455 61.3288 12.7799 60.9505 13.0488 60.5996C13.3177 60.2441 13.6823 59.9661 14.1426 59.7656C14.6074 59.5651 15.1247 59.4648 15.6943 59.4648C16.5602 59.4648 17.2507 59.6836 17.7656 60.1211C18.2806 60.554 18.5449 61.1647 18.5586 61.9531V65.2891C18.5586 65.9544 18.652 66.4854 18.8389 66.8818V66.998H17.1436ZM15.3184 65.8018C15.6465 65.8018 15.9541 65.722 16.2412 65.5625C16.5329 65.403 16.7516 65.1888 16.8975 64.9199V63.5254H16.002C15.3867 63.5254 14.9242 63.6325 14.6143 63.8467C14.3044 64.0609 14.1494 64.3639 14.1494 64.7559C14.1494 65.0749 14.2542 65.3301 14.4639 65.5215C14.6781 65.7083 14.9629 65.8018 15.3184 65.8018ZM22.7764 64.6191L24.2803 59.6016H26.0508L23.1113 68.1191C22.6602 69.3633 21.8945 69.9854 20.8145 69.9854C20.5729 69.9854 20.3063 69.9443 20.0146 69.8623V68.5771L20.3291 68.5977C20.7484 68.5977 21.0628 68.5202 21.2725 68.3652C21.4867 68.2148 21.6553 67.9596 21.7783 67.5996L22.0176 66.9639L19.4199 59.6016H21.2109L22.7764 64.6191ZM33.4883 63.375C33.4883 64.5189 33.2285 65.4326 32.709 66.1162C32.1895 66.7952 31.4922 67.1348 30.6172 67.1348C29.806 67.1348 29.1566 66.8682 28.6689 66.335V69.8418H27.0078V59.6016H28.5391L28.6074 60.3535C29.0951 59.7611 29.7581 59.4648 30.5967 59.4648C31.499 59.4648 32.2054 59.8021 32.7158 60.4766C33.2308 61.1465 33.4883 62.0785 33.4883 63.2725V63.375ZM31.834 63.2314C31.834 62.4932 31.6859 61.9076 31.3896 61.4746C31.098 61.0417 30.6787 60.8252 30.1318 60.8252C29.4528 60.8252 28.9652 61.1055 28.6689 61.666V64.9473C28.9697 65.5215 29.4619 65.8086 30.1455 65.8086C30.6742 65.8086 31.0866 65.5967 31.3828 65.1729C31.6836 64.7445 31.834 64.0973 31.834 63.2314ZM39.3193 66.998C39.2464 66.8568 39.1826 66.6266 39.1279 66.3076C38.5993 66.859 37.9521 67.1348 37.1865 67.1348C36.4437 67.1348 35.8376 66.9229 35.3682 66.499C34.8988 66.0752 34.6641 65.5511 34.6641 64.9268C34.6641 64.1383 34.9557 63.5345 35.5391 63.1152C36.127 62.6914 36.9655 62.4795 38.0547 62.4795H39.0732V61.9941C39.0732 61.6113 38.9661 61.306 38.752 61.0781C38.5378 60.8457 38.2119 60.7295 37.7744 60.7295C37.3962 60.7295 37.0863 60.8252 36.8447 61.0166C36.6032 61.2035 36.4824 61.4427 36.4824 61.7344H34.8213C34.8213 61.3288 34.9557 60.9505 35.2246 60.5996C35.4935 60.2441 35.8581 59.9661 36.3184 59.7656C36.7832 59.5651 37.3005 59.4648 37.8701 59.4648C38.736 59.4648 39.4264 59.6836 39.9414 60.1211C40.4564 60.554 40.7207 61.1647 40.7344 61.9531V65.2891C40.7344 65.9544 40.8278 66.4854 41.0146 66.8818V66.998H39.3193ZM37.4941 65.8018C37.8223 65.8018 38.1299 65.722 38.417 65.5625C38.7087 65.403 38.9274 65.1888 39.0732 64.9199V63.5254H38.1777C37.5625 63.5254 37.0999 63.6325 36.79 63.8467C36.4801 64.0609 36.3252 64.3639 36.3252 64.7559C36.3252 65.0749 36.43 65.3301 36.6396 65.5215C36.8538 65.7083 37.1387 65.8018 37.4941 65.8018ZM44.2412 66.998H42.5801V56.498H44.2412V66.998Z" fill="#FFB800"/>
</g>
<defs>
<filter id="filter0_d_529_1507" x="0.0117188" y="0" width="49.9883" height="77.9854" filterUnits="userSpaceOnUse" color-interpolation-filters="sRGB">
<feFlood flood-opacity="0" result="BackgroundImageFix"/>
<feColorMatrix in="SourceAlpha" type="matrix" values="0 0 0 0 0 0 0 0 0 0 0 0 0 0 0 0 0 0 127 0" result="hardAlpha"/>
<feOffset dy="4"/>
<feGaussianBlur stdDeviation="2"/>
<feComposite in2="hardAlpha" operator="out"/>
<feColorMatrix type="matrix" values="0 0 0 0 0 0 0 0 0 0 0 0 0 0 0 0 0 0 0.25 0"/>
<feBlend mode="normal" in2="BackgroundImageFix" result="effect1_dropShadow_529_1507"/>
<feBlend mode="normal" in="SourceGraphic" in2="effect1_dropShadow_529_1507" result="shape"/>
</filter>
</defs>
</svg>
