<svg width="17" height="17" viewBox="0 0 17 17" fill="none" xmlns="http://www.w3.org/2000/svg">
<path d="M4.51854 5.45908C5.74988 5.45908 6.74808 4.46088 6.74808 3.22954C6.74808 1.9982 5.74988 1 4.51854 1C3.2872 1 2.289 1.9982 2.289 3.22954C2.289 4.46088 3.2872 5.45908 4.51854 5.45908Z" stroke="#5C5C5C" stroke-width="1.5"/>
<path d="M6.74808 8.43188H3.69955C3.15623 8.43204 2.63166 8.63058 2.2244 8.99022C1.81714 9.34986 1.55522 9.84583 1.48785 10.385L1.01147 14.193C0.985335 14.4022 1.00398 14.6145 1.06617 14.8159C1.12836 15.0173 1.23268 15.2031 1.37219 15.3611C1.51171 15.5191 1.68323 15.6457 1.87538 15.7323C2.06753 15.8189 2.2759 15.8637 2.48668 15.8637H6.0049" stroke="#5C5C5C" stroke-width="1.5" stroke-linecap="round" stroke-linejoin="round"/>
<path d="M15.4574 14.193L14.9817 10.385C14.9143 9.84558 14.6522 9.3494 14.2446 8.98973C13.8371 8.63006 13.3121 8.43168 12.7686 8.43188H11.1306C10.5873 8.43204 10.0627 8.63058 9.65543 8.99022C9.24817 9.34986 8.98625 9.84583 8.91888 10.385L8.4425 14.193C8.41636 14.4022 8.43502 14.6146 8.49726 14.8161C8.55949 15.0175 8.66387 15.2034 8.80347 15.3614C8.94306 15.5194 9.11468 15.6459 9.30692 15.7325C9.49915 15.8191 9.70762 15.8638 9.91846 15.8637H13.9822C14.1929 15.8637 14.4013 15.8189 14.5935 15.7323C14.7856 15.6457 14.9571 15.5191 15.0967 15.3611C15.2362 15.2031 15.3405 15.0173 15.4027 14.8159C15.4649 14.6145 15.4835 14.4022 15.4574 14.193Z" stroke="#5C5C5C" stroke-width="1.5" stroke-linecap="round" stroke-linejoin="round"/>
<path d="M11.9502 5.45908C13.1816 5.45908 14.1798 4.46088 14.1798 3.22954C14.1798 1.9982 13.1816 1 11.9502 1C10.7189 1 9.7207 1.9982 9.7207 3.22954C9.7207 4.46088 10.7189 5.45908 11.9502 5.45908Z" stroke="#5C5C5C" stroke-width="1.5"/>
</svg>
