<svg width="12" height="12" viewBox="0 0 12 12" fill="none" xmlns="http://www.w3.org/2000/svg">
<path d="M3.756 5.52L10.959 0.571C11.531 0.188 12 0.469 12 1.196L12 10.805C12 11.53 11.531 11.811 10.959 11.43L3.756 6.479C3.756 6.479 3.477 6.28 3.477 6.001C3.477 5.721 3.756 5.52 3.756 5.52ZM2 -8.74228e-07L1 -9.61651e-07C0.447 -1.01e-06 -4.19629e-09 0.0479989 -5.24537e-08 0.599999L-9.9662e-07 11.4C-1.04488e-06 11.952 0.446999 12 0.999999 12L2 12C2.553 12 3 11.952 3 11.4L3 0.599999C3 0.0479991 2.553 -8.25883e-07 2 -8.74228e-07V-8.74228e-07Z" fill="#323232"/>
</svg>
