<svg width="16" height="14" viewBox="0 0 16 14" fill="none" xmlns="http://www.w3.org/2000/svg">
<path d="M8.38242 6.6595e-07C8.52691 0.000883602 8.66938 0.0350487 8.79942 0.0999981C8.94772 0.190095 9.06632 0.32409 9.13982 0.484582C9.21332 0.645073 9.23832 0.824644 9.21157 0.999974L9.21157 4.34989L14.4629 0.209994C14.6023 0.0961988 14.7701 0.0254679 14.9469 0.00599966C15.1237 -0.0134686 15.3022 0.0191234 15.4618 0.0999976C15.6241 0.183161 15.7605 0.311561 15.8557 0.470634C15.9508 0.629708 16.0008 0.813087 16 0.999973L16 12.9997C16.0008 13.1865 15.9508 13.3699 15.8557 13.529C15.7605 13.6881 15.6241 13.8165 15.4618 13.8996C15.3024 13.9811 15.1237 14.014 14.9468 13.9945C14.7699 13.9751 14.602 13.904 14.4629 13.7896L9.21157 9.65474L9.21157 12.9997C9.23729 13.1742 9.21179 13.3527 9.13834 13.5122C9.06489 13.6717 8.94686 13.8049 8.79942 13.8946C8.64001 13.9761 8.46137 14.009 8.28446 13.9895C8.10755 13.9701 7.93969 13.899 7.80055 13.7846L0.372088 7.78479C0.256178 7.69126 0.162438 7.57174 0.0979704 7.4353C0.0335029 7.29886 -5.98926e-07 7.14909 -6.12194e-07 6.99732C-6.25462e-07 6.84555 0.0335028 6.69577 0.0979703 6.55933C0.162438 6.42289 0.256178 6.30337 0.372088 6.20984L7.80055 0.209995C7.96719 0.0766009 8.17147 0.00287632 8.38242 6.6595e-07V6.6595e-07Z" fill="#AAAAAA"/>
</svg>
