<svg width="17" height="17" viewBox="0 0 17 17" fill="none" xmlns="http://www.w3.org/2000/svg">
<path d="M3.77029 6.75779C4.36363 6.75779 4.94365 6.58184 5.437 6.2522C5.93035 5.92255 6.31486 5.45402 6.54193 4.90584C6.76899 4.35766 6.8284 3.75446 6.71264 3.17252C6.59689 2.59057 6.31117 2.05602 5.89161 1.63647C5.47205 1.21691 4.9375 0.931186 4.35556 0.815431C3.77362 0.699675 3.17042 0.759085 2.62224 0.986148C2.07406 1.21321 1.60552 1.59773 1.27588 2.09108C0.946235 2.58442 0.770288 3.16444 0.770288 3.75779C0.771082 4.55319 1.08741 5.31579 1.64985 5.87823C2.21228 6.44067 2.97488 6.75699 3.77029 6.75779ZM3.77029 2.75779C3.96807 2.75779 4.16141 2.81644 4.32586 2.92632C4.49031 3.0362 4.61848 3.19238 4.69417 3.3751C4.76986 3.55783 4.78966 3.7589 4.75107 3.95288C4.71249 4.14686 4.61725 4.32504 4.4774 4.46489C4.33754 4.60475 4.15936 4.69999 3.96538 4.73857C3.7714 4.77716 3.57033 4.75735 3.3876 4.68167C3.20488 4.60598 3.0487 4.47781 2.93882 4.31336C2.82894 4.14891 2.77029 3.95557 2.77029 3.75779C2.77029 3.49257 2.87564 3.23822 3.06318 3.05068C3.25072 2.86314 3.50507 2.75779 3.77029 2.75779ZM12.2543 9.24179C11.6609 9.24179 11.0809 9.41773 10.5876 9.74738C10.0942 10.077 9.70971 10.5456 9.48265 11.0937C9.25559 11.6419 9.19618 12.2451 9.31193 12.8271C9.42769 13.409 9.71341 13.9435 10.133 14.3631C10.5525 14.7827 11.0871 15.0684 11.669 15.1841C12.251 15.2999 12.8542 15.2405 13.4023 15.0134C13.9505 14.7864 14.4191 14.4018 14.7487 13.9085C15.0783 13.4151 15.2543 12.8351 15.2543 12.2418C15.2535 11.4464 14.9372 10.6838 14.3747 10.1213C13.8123 9.55891 13.0497 9.24258 12.2543 9.24179ZM12.2543 13.2418C12.0565 13.2418 11.8632 13.1831 11.6987 13.0733C11.5343 12.9634 11.4061 12.8072 11.3304 12.6245C11.2547 12.4417 11.2349 12.2407 11.2735 12.0467C11.3121 11.8527 11.4073 11.6745 11.5472 11.5347C11.687 11.3948 11.8652 11.2996 12.0592 11.261C12.2532 11.2224 12.4542 11.2422 12.637 11.3179C12.8197 11.3936 12.9759 11.5218 13.0858 11.6862C13.1956 11.8507 13.2543 12.044 13.2543 12.2418C13.2543 12.507 13.1489 12.7614 12.9614 12.9489C12.7739 13.1364 12.5195 13.2418 12.2543 13.2418ZM15.7193 0.292787C15.5318 0.105316 15.2775 0 15.0123 0C14.7471 0 14.4928 0.105316 14.3053 0.292787L0.305288 14.2928C0.209778 14.385 0.133596 14.4954 0.0811869 14.6174C0.0287779 14.7394 0.00119157 14.8706 3.77571e-05 15.0034C-0.00111606 15.1362 0.0241854 15.2678 0.0744663 15.3907C0.124747 15.5136 0.199 15.6253 0.292893 15.7192C0.386786 15.8131 0.498438 15.8873 0.621334 15.9376C0.744231 15.9879 0.87591 16.0132 1.00869 16.012C1.14147 16.0109 1.27269 15.9833 1.39469 15.9309C1.5167 15.8785 1.62704 15.8023 1.71929 15.7068L15.7193 1.70679C15.9068 1.51926 16.0121 1.26495 16.0121 0.999786C16.0121 0.734622 15.9068 0.480314 15.7193 0.292787Z" fill="#FFB800"/>
</svg>
