<svg width="8" height="14" viewBox="0 0 8 14" fill="none" xmlns="http://www.w3.org/2000/svg">
<path d="M8 4.08607C8.00088 3.18673 7.69618 2.31227 7.13323 1.59853C6.57029 0.884795 5.78061 0.371726 4.88686 0.139022C3.99311 -0.0936826 3.04531 -0.0329965 2.19068 0.311653C1.33606 0.656303 0.622446 1.26562 0.160691 2.04497C0.00156683 2.31301 -0.0414945 2.63151 0.0409809 2.93041C0.123456 3.2293 0.324712 3.48411 0.600474 3.63878C0.876236 3.79345 1.20391 3.8353 1.51143 3.75514C1.81894 3.67497 2.08109 3.47935 2.24021 3.21132C2.39857 2.94543 2.62603 2.72466 2.89981 2.57114C3.17359 2.41761 3.48408 2.33672 3.80015 2.33656C4.27753 2.33656 4.73535 2.52088 5.0729 2.84898C5.41045 3.17708 5.60009 3.62207 5.60009 4.08607C5.60009 4.55008 5.41045 4.99507 5.0729 5.32317C4.73535 5.65127 4.27753 5.83559 3.80015 5.83559H3.79655C3.71916 5.84315 3.64277 5.85839 3.56856 5.88108C3.48799 5.88904 3.40841 5.90467 3.33097 5.92773C3.26511 5.96271 3.20283 6.00372 3.14498 6.0502C3.07605 6.08673 3.01095 6.1297 2.95059 6.1785C2.89664 6.2412 2.84958 6.30922 2.81019 6.38144C2.76635 6.43396 2.7274 6.49017 2.6938 6.54939C2.66765 6.62981 2.65036 6.7127 2.6422 6.79666C2.62155 6.86364 2.60749 6.93237 2.6002 7.00193V8.16828L2.6026 8.18111V8.75378C2.60324 9.06271 2.72994 9.35878 2.95491 9.57701C3.17987 9.79523 3.48472 9.9178 3.80255 9.9178H3.80615C3.96374 9.91749 4.11971 9.88702 4.26518 9.82812C4.41064 9.76922 4.54275 9.68305 4.65395 9.57453C4.76515 9.46601 4.85328 9.33726 4.91329 9.19564C4.9733 9.05401 5.00403 8.90228 5.00371 8.74912L5.00131 7.977C5.86487 7.72765 6.62285 7.21457 7.16295 6.51376C7.70305 5.81296 7.99656 4.9617 8 4.08607ZM2.95659 12.0056C2.78809 12.168 2.67293 12.3753 2.62567 12.6014C2.5784 12.8275 2.60117 13.062 2.69108 13.2755C2.78098 13.489 2.934 13.6718 3.13077 13.8007C3.32754 13.9297 3.55924 13.999 3.79655 14C4.1146 13.9973 4.41951 13.8763 4.64852 13.6618C4.87132 13.4405 4.9961 13.1432 4.9961 12.8337C4.9961 12.5241 4.87132 12.2268 4.64852 12.0056C4.41884 11.7975 4.11654 11.6818 3.80255 11.6818C3.48857 11.6818 3.18627 11.7975 2.95659 12.0056Z" fill="white"/>
</svg>
