<svg width="627" height="21" viewBox="0 0 627 21" fill="none" xmlns="http://www.w3.org/2000/svg">
<path fill-rule="evenodd" clip-rule="evenodd" d="M42.7727 0C41.5294 0 40.5215 1.0079 40.5215 2.25121V17.7949C40.5215 19.0383 41.5294 20.0462 42.7727 20.0462C44.016 20.0462 45.0239 19.0383 45.0239 17.7949V2.25121C45.0239 1.0079 44.016 0 42.7727 0ZM15.7587 0.911194C14.5154 0.911194 13.5075 1.9191 13.5075 3.16241V16.8838C13.5075 18.1271 14.5154 19.135 15.7587 19.135C17.002 19.135 18.0099 18.1271 18.0099 16.8838V3.1624C18.0099 1.91909 17.002 0.911194 15.7587 0.911194ZM6.75349 9.54088C6.75349 8.29757 7.76139 7.28967 9.0047 7.28967C10.248 7.28967 11.2559 8.29757 11.2559 9.54088V10.5056C11.2559 11.7489 10.248 12.7568 9.0047 12.7568C7.76139 12.7568 6.75349 11.7489 6.75349 10.5056V9.54088ZM0 10.0232C0 9.26835 0.61193 8.65642 1.36678 8.65642H3.13564C3.89049 8.65642 4.50242 9.26835 4.50242 10.0232C4.50242 10.7781 3.89049 11.39 3.13564 11.39H1.36678C0.611929 11.39 0 10.7781 0 10.0232ZM20.261 5.89604C20.261 4.65274 21.2689 3.64484 22.5122 3.64484C23.7555 3.64484 24.7634 4.65274 24.7634 5.89605V14.1503C24.7634 15.3936 23.7555 16.4015 22.5122 16.4015C21.2689 16.4015 20.261 15.3936 20.261 14.1503V5.89604ZM29.2652 2.27802C28.0219 2.27802 27.014 3.28592 27.014 4.52922V15.517C27.014 16.7603 28.0219 17.7682 29.2652 17.7682C30.5085 17.7682 31.5164 16.7603 31.5164 15.517V4.52922C31.5164 3.28592 30.5085 2.27802 29.2652 2.27802ZM33.768 9.08531C33.768 7.84201 34.7759 6.83411 36.0192 6.83411C37.2625 6.83411 38.2704 7.84201 38.2704 9.08532V10.9612C38.2704 12.2045 37.2625 13.2124 36.0192 13.2124C34.7759 13.2124 33.768 12.2045 33.768 10.9612V9.08531ZM47.2755 4.52922C47.2755 3.28592 48.2834 2.27802 49.5267 2.27802C50.77 2.27802 51.7779 3.28592 51.7779 4.52922V15.517C51.7779 16.7603 50.77 17.7682 49.5267 17.7682C48.2834 17.7682 47.2755 16.7603 47.2755 15.517V4.52922ZM55.3957 8.65649C54.6409 8.65649 54.029 9.26842 54.029 10.0233C54.029 10.7781 54.6409 11.3901 55.3957 11.3901H57.1646C57.9195 11.3901 58.5314 10.7781 58.5314 10.0233C58.5314 9.26842 57.9195 8.65649 57.1646 8.65649H55.3957ZM60.7825 4.52922C60.7825 3.28592 61.7904 2.27802 63.0337 2.27802C64.277 2.27802 65.2849 3.28592 65.2849 4.52922V15.517C65.2849 16.7603 64.277 17.7682 63.0337 17.7682C61.7904 17.7682 60.7825 16.7603 60.7825 15.517V4.52922ZM69.7872 0C68.5438 0 67.5359 1.0079 67.5359 2.25121V17.7949C67.5359 19.0383 68.5438 20.0462 69.7872 20.0462C71.0305 20.0462 72.0384 19.0383 72.0384 17.7949V2.25121C72.0384 1.0079 71.0305 0 69.7872 0ZM74.2894 5.44048C74.2894 4.19717 75.2973 3.18927 76.5406 3.18927C77.7839 3.18927 78.7918 4.19717 78.7918 5.44048V14.6059C78.7918 15.8492 77.7839 16.8571 76.5406 16.8571C75.2973 16.8571 74.2894 15.8492 74.2894 14.6059V5.44048ZM83.2947 0C82.0513 0 81.0434 1.0079 81.0434 2.25121V17.7949C81.0434 19.0383 82.0513 20.0462 83.2947 20.0462C84.538 20.0462 85.5459 19.0383 85.5459 17.7949V2.25121C85.5459 1.0079 84.538 0 83.2947 0ZM87.7969 4.07366C87.7969 2.83035 88.8048 1.82245 90.0481 1.82245C91.2915 1.82245 92.2994 2.83035 92.2994 4.07366V15.9726C92.2994 17.2159 91.2915 18.2238 90.0481 18.2238C88.8048 18.2238 87.7969 17.2159 87.7969 15.9726V4.07366ZM96.8022 0C95.5589 0 94.5509 1.0079 94.5509 2.25121V17.7949C94.5509 19.0383 95.5589 20.0462 96.8022 20.0462C98.0455 20.0462 99.0534 19.0383 99.0534 17.7949V2.25121C99.0534 1.0079 98.0455 0 96.8022 0ZM101.304 7.7185C101.304 6.47519 102.312 5.46729 103.555 5.46729C104.798 5.46729 105.806 6.47519 105.806 7.71849V12.328C105.806 13.5713 104.798 14.5792 103.555 14.5792C102.312 14.5792 101.304 13.5713 101.304 12.328V7.7185ZM110.309 2.27808C109.066 2.27808 108.058 3.28598 108.058 4.52929V15.5171C108.058 16.7604 109.066 17.7683 110.309 17.7683C111.552 17.7683 112.56 16.7604 112.56 15.5171V4.52929C112.56 3.28598 111.552 2.27808 110.309 2.27808ZM114.812 2.25121C114.812 1.0079 115.82 0 117.063 0C118.306 0 119.314 1.0079 119.314 2.25121V17.7949C119.314 19.0383 118.306 20.0462 117.063 20.0462C115.82 20.0462 114.812 19.0383 114.812 17.7949V2.25121ZM123.817 1.82239C122.573 1.82239 121.565 2.83029 121.565 4.0736V15.9726C121.565 17.2159 122.573 18.2238 123.817 18.2238C125.06 18.2238 126.068 17.2159 126.068 15.9726V4.0736C126.068 2.83029 125.06 1.82239 123.817 1.82239ZM128.319 4.0736C128.319 2.83029 129.327 1.82239 130.57 1.82239C131.813 1.82239 132.821 2.83029 132.821 4.0736V15.9726C132.821 17.2159 131.813 18.2238 130.57 18.2238C129.327 18.2238 128.319 17.2159 128.319 15.9726V4.0736ZM137.324 6.37854C136.08 6.37854 135.072 7.38644 135.072 8.62975V11.4168C135.072 12.6601 136.08 13.668 137.324 13.668C138.567 13.668 139.575 12.6601 139.575 11.4168V8.62975C139.575 7.38644 138.567 6.37854 137.324 6.37854ZM141.826 10.0233C141.826 9.26842 142.438 8.65649 143.193 8.65649H144.962C145.717 8.65649 146.329 9.26842 146.329 10.0233C146.329 10.7781 145.717 11.3901 144.962 11.3901H143.193C142.438 11.3901 141.826 10.7781 141.826 10.0233ZM150.831 4.55603C149.587 4.55603 148.579 5.56393 148.579 6.80724V13.2391C148.579 14.4824 149.587 15.4903 150.831 15.4903C152.074 15.4903 153.082 14.4824 153.082 13.2391V6.80724C153.082 5.56393 152.074 4.55603 150.831 4.55603ZM155.333 2.25121C155.333 1.0079 156.341 0 157.585 0C158.828 0 159.836 1.0079 159.836 2.25121V17.7949C159.836 19.0383 158.828 20.0462 157.585 20.0462C156.341 20.0462 155.333 19.0383 155.333 17.7949V2.25121ZM164.338 4.55603C163.095 4.55603 162.087 5.56393 162.087 6.80724V13.2391C162.087 14.4824 163.095 15.4903 164.338 15.4903C165.581 15.4903 166.589 14.4824 166.589 13.2391V6.80724C166.589 5.56393 165.581 4.55603 164.338 4.55603ZM168.84 9.99584C168.84 8.75253 169.848 7.74463 171.092 7.74463C172.335 7.74463 173.343 8.75253 173.343 9.99584V10.0494C173.343 11.2927 172.335 12.3006 171.092 12.3006C169.848 12.3006 168.84 11.2927 168.84 10.0494V9.99584ZM177.846 4.55603C176.602 4.55603 175.594 5.56393 175.594 6.80724V13.2391C175.594 14.4824 176.602 15.4903 177.846 15.4903C179.089 15.4903 180.097 14.4824 180.097 13.2391V6.80724C180.097 5.56393 179.089 4.55603 177.846 4.55603ZM182.348 7.7185C182.348 6.47519 183.356 5.46729 184.599 5.46729C185.842 5.46729 186.85 6.47519 186.85 7.71849V12.328C186.85 13.5713 185.842 14.5792 184.599 14.5792C183.356 14.5792 182.348 13.5713 182.348 12.328V7.7185ZM191.353 1.82239C190.109 1.82239 189.101 2.83029 189.101 4.0736V15.9726C189.101 17.2159 190.109 18.2238 191.353 18.2238C192.596 18.2238 193.604 17.2159 193.604 15.9726V4.0736C193.604 2.83029 192.596 1.82239 191.353 1.82239ZM195.855 6.80724C195.855 5.56393 196.863 4.55603 198.106 4.55603C199.349 4.55603 200.357 5.56393 200.357 6.80724V9.22902C200.517 9.45286 200.612 9.72703 200.612 10.0232C200.612 10.3194 200.517 10.5936 200.357 10.8174V13.2391C200.357 14.4824 199.349 15.4903 198.106 15.4903C196.863 15.4903 195.855 14.4824 195.855 13.2391V6.80724ZM204.86 6.83411C203.617 6.83411 202.609 7.84201 202.609 9.08531V10.9612C202.609 12.2045 203.617 13.2124 204.86 13.2124C205.8 13.2124 206.605 12.6369 206.942 11.8192C207.208 11.4495 207.365 10.9959 207.365 10.5056V9.54088C207.365 9.05059 207.208 8.59692 206.942 8.22721C206.605 7.40956 205.8 6.83411 204.86 6.83411ZM209.362 10.0233C209.362 9.72724 209.456 9.45319 209.616 9.2294V3.16241C209.616 1.9191 210.624 0.911194 211.868 0.911194C213.111 0.911194 214.119 1.91909 214.119 3.1624V16.8838C214.119 18.1271 213.111 19.135 211.868 19.135C210.624 19.135 209.616 18.1271 209.616 16.8838V10.8172C209.456 10.5934 209.362 10.3193 209.362 10.0233ZM216.37 14.1503V10.8172C216.21 10.5934 216.116 10.3193 216.116 10.0233C216.116 9.72724 216.21 9.45319 216.37 9.2294V5.89604C216.37 4.65274 217.378 3.64484 218.621 3.64484C219.864 3.64484 220.872 4.65274 220.872 5.89605V14.1503C220.872 15.3936 219.864 16.4015 218.621 16.4015C217.378 16.4015 216.37 15.3936 216.37 14.1503ZM238.882 0C237.638 0 236.63 1.0079 236.63 2.25121V17.7949C236.63 19.0383 237.638 20.0462 238.882 20.0462C240.125 20.0462 241.133 19.0383 241.133 17.7949V2.25121C241.133 1.0079 240.125 0 238.882 0ZM225.374 2.27802C224.131 2.27802 223.123 3.28592 223.123 4.52922V15.517C223.123 16.7603 224.131 17.7682 225.374 17.7682C226.617 17.7682 227.625 16.7603 227.625 15.517V4.52922C227.625 3.28592 226.617 2.27802 225.374 2.27802ZM229.877 9.08531C229.877 7.84201 230.885 6.83411 232.128 6.83411C233.371 6.83411 234.379 7.84201 234.379 9.08532V10.9612C234.379 12.2045 233.371 13.2124 232.128 13.2124C230.885 13.2124 229.877 12.2045 229.877 10.9612V9.08531ZM243.384 4.52922C243.384 3.28592 244.392 2.27802 245.636 2.27802C246.879 2.27802 247.887 3.28592 247.887 4.52922V15.517C247.887 16.7603 246.879 17.7682 245.636 17.7682C244.392 17.7682 243.384 16.7603 243.384 15.517V4.52922ZM251.505 8.65649C250.75 8.65649 250.138 9.26842 250.138 10.0233C250.138 10.7781 250.75 11.3901 251.505 11.3901H253.274C254.028 11.3901 254.64 10.7781 254.64 10.0233C254.64 9.26842 254.028 8.65649 253.274 8.65649H251.505ZM256.891 4.52922C256.891 3.28592 257.899 2.27802 259.143 2.27802C260.386 2.27802 261.394 3.28592 261.394 4.52922V15.517C261.394 16.7603 260.386 17.7682 259.143 17.7682C257.899 17.7682 256.891 16.7603 256.891 15.517V4.52922ZM265.896 0C264.653 0 263.645 1.0079 263.645 2.25121V17.7949C263.645 19.0383 264.653 20.0462 265.896 20.0462C267.139 20.0462 268.147 19.0383 268.147 17.7949V2.25121C268.147 1.0079 267.139 0 265.896 0ZM270.398 5.44048C270.398 4.19717 271.406 3.18927 272.65 3.18927C273.893 3.18927 274.901 4.19717 274.901 5.44048V14.6059C274.901 15.8492 273.893 16.8571 272.65 16.8571C271.406 16.8571 270.398 15.8492 270.398 14.6059V5.44048ZM279.404 0C278.16 0 277.152 1.0079 277.152 2.25121V17.7949C277.152 19.0383 278.16 20.0462 279.404 20.0462C280.647 20.0462 281.655 19.0383 281.655 17.7949V2.25121C281.655 1.0079 280.647 0 279.404 0ZM283.906 4.07366C283.906 2.83035 284.914 1.82245 286.157 1.82245C287.4 1.82245 288.408 2.83035 288.408 4.07366V15.9726C288.408 17.2159 287.4 18.2238 286.157 18.2238C284.914 18.2238 283.906 17.2159 283.906 15.9726V4.07366ZM292.911 0C291.668 0 290.66 1.0079 290.66 2.25121V17.7949C290.66 19.0383 291.668 20.0462 292.911 20.0462C294.154 20.0462 295.162 19.0383 295.162 17.7949V2.25121C295.162 1.0079 294.154 0 292.911 0ZM297.413 7.7185C297.413 6.47519 298.421 5.46729 299.664 5.46729C300.907 5.46729 301.915 6.47519 301.915 7.71849V12.328C301.915 13.5713 300.907 14.5792 299.664 14.5792C298.421 14.5792 297.413 13.5713 297.413 12.328V7.7185ZM306.418 2.27808C305.175 2.27808 304.167 3.28598 304.167 4.52929V15.5171C304.167 16.7604 305.175 17.7683 306.418 17.7683C307.661 17.7683 308.669 16.7604 308.669 15.5171V4.52929C308.669 3.28598 307.661 2.27808 306.418 2.27808ZM310.921 2.25121C310.921 1.0079 311.929 0 313.172 0C314.415 0 315.423 1.0079 315.423 2.25121V17.7949C315.423 19.0383 314.415 20.0462 313.172 20.0462C311.929 20.0462 310.921 19.0383 310.921 17.7949V2.25121ZM319.926 1.82239C318.682 1.82239 317.674 2.83029 317.674 4.0736V15.9726C317.674 17.2159 318.682 18.2238 319.926 18.2238C321.169 18.2238 322.177 17.2159 322.177 15.9726V4.0736C322.177 2.83029 321.169 1.82239 319.926 1.82239ZM324.428 4.0736C324.428 2.83029 325.436 1.82239 326.679 1.82239C327.922 1.82239 328.93 2.83029 328.93 4.0736V15.9726C328.93 17.2159 327.922 18.2238 326.679 18.2238C325.436 18.2238 324.428 17.2159 324.428 15.9726V4.0736ZM333.433 6.37854C332.189 6.37854 331.181 7.38644 331.181 8.62975V11.4168C331.181 12.6601 332.189 13.668 333.433 13.668C334.676 13.668 335.684 12.6601 335.684 11.4168V8.62975C335.684 7.38644 334.676 6.37854 333.433 6.37854ZM337.935 10.0233C337.935 9.26842 338.547 8.65649 339.302 8.65649H341.071C341.826 8.65649 342.438 9.26842 342.438 10.0233C342.438 10.7781 341.826 11.3901 341.071 11.3901H339.302C338.547 11.3901 337.935 10.7781 337.935 10.0233ZM346.94 4.55603C345.696 4.55603 344.688 5.56393 344.688 6.80724V13.2391C344.688 14.4824 345.696 15.4903 346.94 15.4903C348.183 15.4903 349.191 14.4824 349.191 13.2391V6.80724C349.191 5.56393 348.183 4.55603 346.94 4.55603ZM351.442 2.25121C351.442 1.0079 352.45 0 353.694 0C354.937 0 355.945 1.0079 355.945 2.25121V17.7949C355.945 19.0383 354.937 20.0462 353.694 20.0462C352.45 20.0462 351.442 19.0383 351.442 17.7949V2.25121ZM360.447 4.55603C359.204 4.55603 358.196 5.56393 358.196 6.80724V13.2391C358.196 14.4824 359.204 15.4903 360.447 15.4903C361.69 15.4903 362.698 14.4824 362.698 13.2391V6.80724C362.698 5.56393 361.69 4.55603 360.447 4.55603ZM364.949 9.99584C364.949 8.75253 365.957 7.74463 367.201 7.74463C368.444 7.74463 369.452 8.75253 369.452 9.99584V10.0494C369.452 11.2927 368.444 12.3006 367.201 12.3006C365.957 12.3006 364.949 11.2927 364.949 10.0494V9.99584ZM373.955 4.55603C372.711 4.55603 371.703 5.56393 371.703 6.80724V13.2391C371.703 14.4824 372.711 15.4903 373.955 15.4903C375.198 15.4903 376.206 14.4824 376.206 13.2391V6.80724C376.206 5.56393 375.198 4.55603 373.955 4.55603ZM378.457 7.7185C378.457 6.47519 379.465 5.46729 380.708 5.46729C381.951 5.46729 382.959 6.47519 382.959 7.71849V12.328C382.959 13.5713 381.951 14.5792 380.708 14.5792C379.465 14.5792 378.457 13.5713 378.457 12.328V7.7185ZM387.461 1.82239C386.218 1.82239 385.21 2.83029 385.21 4.0736V15.9726C385.21 17.2159 386.218 18.2238 387.461 18.2238C388.705 18.2238 389.713 17.2159 389.713 15.9726V4.0736C389.713 2.83029 388.705 1.82239 387.461 1.82239ZM391.964 6.80724C391.964 5.56393 392.972 4.55603 394.215 4.55603C395.458 4.55603 396.466 5.56393 396.466 6.80724V13.2391C396.466 14.4824 395.458 15.4903 394.215 15.4903C392.972 15.4903 391.964 14.4824 391.964 13.2391V6.80724ZM400.969 6.83411C399.726 6.83411 398.718 7.84201 398.718 9.08531V10.9612C398.718 12.2045 399.726 13.2124 400.969 13.2124C402.212 13.2124 403.22 12.2045 403.22 10.9612V9.08532C403.22 7.84201 402.212 6.83411 400.969 6.83411ZM405.471 10.0233C405.471 9.26842 406.083 8.65649 406.838 8.65649H407.735C407.739 8.65645 407.744 8.65642 407.749 8.65642H409.517C410.272 8.65642 410.884 9.26835 410.884 10.0232C410.884 10.7781 410.272 11.39 409.517 11.39H408.621C408.616 11.39 408.612 11.3901 408.607 11.3901H406.838C406.083 11.3901 405.471 10.7781 405.471 10.0233ZM413.303 8.68708C412.687 8.81964 412.225 9.36753 412.225 10.0233C412.225 10.679 412.687 11.2269 413.303 11.3595C413.639 12.1794 414.445 12.7568 415.386 12.7568C416.63 12.7568 417.638 11.7489 417.638 10.5056V9.54088C417.638 8.29757 416.63 7.28967 415.386 7.28967C414.445 7.28967 413.639 7.86714 413.303 8.68708ZM446.903 2.25121C446.903 1.0079 447.911 0 449.154 0C450.398 0 451.406 1.0079 451.406 2.25121V17.7949C451.406 19.0383 450.398 20.0462 449.154 20.0462C447.911 20.0462 446.903 19.0383 446.903 17.7949V2.25121ZM419.889 3.16241C419.889 1.9191 420.897 0.911194 422.14 0.911194C423.384 0.911194 424.392 1.91909 424.392 3.1624V16.8838C424.392 18.1271 423.384 19.135 422.14 19.135C420.897 19.135 419.889 18.1271 419.889 16.8838V3.16241ZM428.894 3.64484C427.651 3.64484 426.643 4.65274 426.643 5.89604V14.1503C426.643 15.3936 427.651 16.4015 428.894 16.4015C430.137 16.4015 431.145 15.3936 431.145 14.1503V5.89605C431.145 4.65274 430.137 3.64484 428.894 3.64484ZM433.396 4.52922C433.396 3.28592 434.404 2.27802 435.647 2.27802C436.89 2.27802 437.898 3.28592 437.898 4.52922V15.517C437.898 16.7603 436.89 17.7682 435.647 17.7682C434.404 17.7682 433.396 16.7603 433.396 15.517V4.52922ZM442.401 6.83411C441.158 6.83411 440.15 7.84201 440.15 9.08531V10.9612C440.15 12.2045 441.158 13.2124 442.401 13.2124C443.644 13.2124 444.652 12.2045 444.652 10.9612V9.08532C444.652 7.84201 443.644 6.83411 442.401 6.83411ZM455.908 2.27802C454.665 2.27802 453.657 3.28592 453.657 4.52922V15.517C453.657 16.7603 454.665 17.7682 455.908 17.7682C457.152 17.7682 458.16 16.7603 458.16 15.517V4.52922C458.16 3.28592 457.152 2.27802 455.908 2.27802ZM460.411 10.0233C460.411 9.26842 461.023 8.65649 461.777 8.65649H463.546C464.301 8.65649 464.913 9.26842 464.913 10.0233C464.913 10.7781 464.301 11.3901 463.546 11.3901H461.777C461.023 11.3901 460.411 10.7781 460.411 10.0233ZM469.415 2.27802C468.172 2.27802 467.164 3.28592 467.164 4.52922V15.517C467.164 16.7603 468.172 17.7682 469.415 17.7682C470.659 17.7682 471.667 16.7603 471.667 15.517V4.52922C471.667 3.28592 470.659 2.27802 469.415 2.27802ZM473.918 2.25121C473.918 1.0079 474.925 0 476.169 0C477.412 0 478.42 1.0079 478.42 2.25121V17.7949C478.42 19.0383 477.412 20.0462 476.169 20.0462C474.925 20.0462 473.918 19.0383 473.918 17.7949V2.25121ZM482.922 3.18927C481.679 3.18927 480.671 4.19717 480.671 5.44048V14.6059C480.671 15.8492 481.679 16.8571 482.922 16.8571C484.166 16.8571 485.173 15.8492 485.173 14.6059V5.44048C485.173 4.19717 484.166 3.18927 482.922 3.18927ZM487.425 2.25121C487.425 1.0079 488.433 0 489.676 0C490.92 0 491.927 1.0079 491.927 2.25121V17.7949C491.927 19.0383 490.92 20.0462 489.676 20.0462C488.433 20.0462 487.425 19.0383 487.425 17.7949V2.25121ZM496.43 1.82245C495.186 1.82245 494.179 2.83035 494.179 4.07366V15.9726C494.179 17.2159 495.186 18.2238 496.43 18.2238C497.673 18.2238 498.681 17.2159 498.681 15.9726V4.07366C498.681 2.83035 497.673 1.82245 496.43 1.82245ZM500.933 2.25121C500.933 1.0079 501.94 0 503.184 0C504.427 0 505.435 1.0079 505.435 2.25121V17.7949C505.435 19.0383 504.427 20.0462 503.184 20.0462C501.94 20.0462 500.933 19.0383 500.933 17.7949V2.25121ZM509.937 5.46729C508.693 5.46729 507.686 6.47519 507.686 7.7185V12.328C507.686 13.5713 508.693 14.5792 509.937 14.5792C511.18 14.5792 512.188 13.5713 512.188 12.328V7.71849C512.188 6.47519 511.18 5.46729 509.937 5.46729ZM514.44 4.52929C514.44 3.28598 515.447 2.27808 516.691 2.27808C517.934 2.27808 518.942 3.28598 518.942 4.52929V15.5171C518.942 16.7604 517.934 17.7683 516.691 17.7683C515.447 17.7683 514.44 16.7604 514.44 15.5171V4.52929ZM523.445 0C522.201 0 521.194 1.0079 521.194 2.25121V17.7949C521.194 19.0383 522.201 20.0462 523.445 20.0462C524.688 20.0462 525.696 19.0383 525.696 17.7949V2.25121C525.696 1.0079 524.688 0 523.445 0ZM527.947 4.0736C527.947 2.83029 528.955 1.82239 530.198 1.82239C531.442 1.82239 532.449 2.83029 532.449 4.0736V15.9726C532.449 17.2159 531.442 18.2238 530.198 18.2238C528.955 18.2238 527.947 17.2159 527.947 15.9726V4.0736ZM536.952 1.82239C535.708 1.82239 534.701 2.83029 534.701 4.0736V15.9726C534.701 17.2159 535.708 18.2238 536.952 18.2238C538.195 18.2238 539.203 17.2159 539.203 15.9726V4.0736C539.203 2.83029 538.195 1.82239 536.952 1.82239ZM541.454 8.62975C541.454 7.38644 542.462 6.37854 543.705 6.37854C544.949 6.37854 545.956 7.38644 545.956 8.62975V11.4168C545.956 12.6601 544.949 13.668 543.705 13.668C542.462 13.668 541.454 12.6601 541.454 11.4168V8.62975ZM549.575 8.65649C548.82 8.65649 548.208 9.26842 548.208 10.0233C548.208 10.7781 548.82 11.3901 549.575 11.3901H551.344C552.099 11.3901 552.711 10.7781 552.711 10.0233C552.711 9.26842 552.099 8.65649 551.344 8.65649H549.575ZM554.961 6.80724C554.961 5.56393 555.969 4.55603 557.212 4.55603C558.456 4.55603 559.463 5.56393 559.463 6.80724V13.2391C559.463 14.4824 558.456 15.4903 557.212 15.4903C555.969 15.4903 554.961 14.4824 554.961 13.2391V6.80724ZM563.966 0C562.723 0 561.715 1.0079 561.715 2.25121V17.7949C561.715 19.0383 562.723 20.0462 563.966 20.0462C565.21 20.0462 566.217 19.0383 566.217 17.7949V2.25121C566.217 1.0079 565.21 0 563.966 0ZM568.469 6.80724C568.469 5.56393 569.476 4.55603 570.72 4.55603C571.963 4.55603 572.971 5.56393 572.971 6.80724V13.2391C572.971 14.4824 571.963 15.4903 570.72 15.4903C569.476 15.4903 568.469 14.4824 568.469 13.2391V6.80724ZM577.473 7.74463C576.23 7.74463 575.222 8.75253 575.222 9.99584V10.0494C575.222 11.2927 576.23 12.3006 577.473 12.3006C578.717 12.3006 579.724 11.2927 579.724 10.0494V9.99584C579.724 8.75253 578.717 7.74463 577.473 7.74463ZM581.976 6.80724C581.976 5.56393 582.984 4.55603 584.227 4.55603C585.471 4.55603 586.478 5.56393 586.478 6.80724V13.2391C586.478 14.4824 585.471 15.4903 584.227 15.4903C582.984 15.4903 581.976 14.4824 581.976 13.2391V6.80724ZM590.981 5.46729C589.737 5.46729 588.729 6.47519 588.729 7.7185V12.328C588.729 13.5713 589.737 14.5792 590.981 14.5792C592.224 14.5792 593.232 13.5713 593.232 12.328V7.71849C593.232 6.47519 592.224 5.46729 590.981 5.46729ZM595.483 4.0736C595.483 2.83029 596.491 1.82239 597.734 1.82239C598.978 1.82239 599.985 2.83029 599.985 4.0736V15.9726C599.985 17.2159 598.978 18.2238 597.734 18.2238C596.491 18.2238 595.483 17.2159 595.483 15.9726V4.0736ZM604.488 4.55603C603.244 4.55603 602.237 5.56393 602.237 6.80724V13.2391C602.237 14.4824 603.244 15.4903 604.488 15.4903C605.731 15.4903 606.739 14.4824 606.739 13.2391V6.80724C606.739 5.56393 605.731 4.55603 604.488 4.55603ZM608.991 9.08531C608.991 7.84201 609.998 6.83411 611.242 6.83411C612.485 6.83411 613.493 7.84201 613.493 9.08532V10.9612C613.493 12.2045 612.485 13.2124 611.242 13.2124C609.998 13.2124 608.991 12.2045 608.991 10.9612V9.08531ZM617.111 8.65649C616.356 8.65649 615.744 9.26842 615.744 10.0233C615.744 10.7781 616.356 11.3901 617.111 11.3901H618.88C619.635 11.3901 620.246 10.7781 620.246 10.0233C620.246 9.26842 619.635 8.65649 618.88 8.65649H617.111ZM622.497 10.0233C622.497 9.26842 623.109 8.65649 623.864 8.65649H625.633C626.388 8.65649 627 9.26842 627 10.0233C627 10.7781 626.388 11.3901 625.633 11.3901H623.864C623.109 11.3901 622.497 10.7781 622.497 10.0233Z" fill="#FF7878"/>
</svg>
