<svg width="22" height="19" viewBox="0 0 22 19" fill="none" xmlns="http://www.w3.org/2000/svg">
<path fill-rule="evenodd" clip-rule="evenodd" d="M2.40625 2.03571C2.31508 2.03571 2.22765 2.07146 2.16318 2.13509C2.09872 2.19872 2.0625 2.28502 2.0625 2.375V4.41071C2.0625 4.598 2.2165 4.75 2.40625 4.75H19.5938C19.6849 4.75 19.7724 4.71425 19.8368 4.65063C19.9013 4.587 19.9375 4.5007 19.9375 4.41071V2.375C19.9375 2.28502 19.9013 2.19872 19.8368 2.13509C19.7724 2.07146 19.6849 2.03571 19.5938 2.03571H2.40625ZM0 2.375C0 1.064 1.078 0 2.40625 0H19.5938C20.922 0 22 1.064 22 2.375V4.41071C22 5.0406 21.7465 5.64469 21.2952 6.09009C20.844 6.53549 20.2319 6.78571 19.5938 6.78571H2.40625C1.76807 6.78571 1.15603 6.53549 0.704774 6.09009C0.253515 5.64469 0 5.0406 0 4.41071L0 2.375ZM2.40625 8.14286C2.67975 8.14286 2.94206 8.2501 3.13545 8.44098C3.32885 8.63187 3.4375 8.89076 3.4375 9.16071V16.625C3.4375 16.8123 3.5915 16.9643 3.78125 16.9643H18.2188C18.3099 16.9643 18.3974 16.9285 18.4618 16.8649C18.5263 16.8013 18.5625 16.715 18.5625 16.625V9.16071C18.5625 8.89076 18.6712 8.63187 18.8645 8.44098C19.0579 8.2501 19.3202 8.14286 19.5938 8.14286C19.8673 8.14286 20.1296 8.2501 20.323 8.44098C20.5163 8.63187 20.625 8.89076 20.625 9.16071V16.625C20.625 17.2549 20.3715 17.859 19.9202 18.3044C19.469 18.7498 18.8569 19 18.2188 19H3.78125C3.14307 19 2.53103 18.7498 2.07977 18.3044C1.62851 17.859 1.375 17.2549 1.375 16.625V9.16071C1.375 8.89076 1.48365 8.63187 1.67705 8.44098C1.87044 8.2501 2.13275 8.14286 2.40625 8.14286ZM8.59375 9.5C8.32025 9.5 8.05794 9.60724 7.86455 9.79812C7.67115 9.98901 7.5625 10.2479 7.5625 10.5179C7.5625 10.7878 7.67115 11.0467 7.86455 11.2376C8.05794 11.4285 8.32025 11.5357 8.59375 11.5357H13.4062C13.6798 11.5357 13.9421 11.4285 14.1355 11.2376C14.3288 11.0467 14.4375 10.7878 14.4375 10.5179C14.4375 10.2479 14.3288 9.98901 14.1355 9.79812C13.9421 9.60724 13.6798 9.5 13.4062 9.5H8.59375Z" fill="#FF5959"/>
</svg>
