<svg width="21" height="22" viewBox="0 0 21 22" fill="none" xmlns="http://www.w3.org/2000/svg">
<path d="M19.0631 5.66801C19.9891 6.63811 20.617 7.85378 20.8722 9.17043C21.1273 10.4871 20.9989 11.8493 20.5022 13.0951C20.0055 14.3408 19.1614 15.4177 18.0704 16.1977C16.9794 16.9776 15.6873 17.4278 14.3478 17.4946L13.9995 17.5034L8.23587 17.5016L10.2452 19.5127C10.3902 19.6575 10.4797 19.8486 10.4983 20.0526C10.5168 20.2567 10.4632 20.4608 10.3467 20.6294L10.2452 20.7501C10.1004 20.8951 9.9093 20.9847 9.70524 21.0032C9.50118 21.0218 9.29708 20.9681 9.12851 20.8517L9.00774 20.7501L5.50369 17.2461C5.35898 17.1011 5.26974 16.9099 5.25151 16.7058C5.23328 16.5018 5.28722 16.2978 5.40392 16.1294L5.50369 16.0086L9.00774 12.5046C9.16209 12.3495 9.36893 12.2579 9.58747 12.2478C9.80602 12.2377 10.0204 12.3098 10.1884 12.4499C10.3565 12.5901 10.4659 12.788 10.4952 13.0048C10.5245 13.2217 10.4715 13.4416 10.3467 13.6213L10.2452 13.7438L8.23587 15.7513H13.9995C15.3386 15.7514 16.6271 15.24 17.6015 14.3215C18.5759 13.4031 19.1626 12.147 19.2416 10.8103L19.2503 10.5023C19.2524 9.11994 18.7075 7.79291 17.7346 6.81094C17.5749 6.64931 17.4843 6.43189 17.482 6.20467C17.4797 5.97745 17.5659 5.75824 17.7223 5.59341C17.8787 5.42858 18.0931 5.33105 18.3201 5.32146C18.5472 5.31186 18.769 5.39095 18.9388 5.54199L19.0648 5.66801H19.0631ZM11.8712 0.152898L11.9937 0.252664L15.496 3.75671L15.5975 3.87923C15.6984 4.02538 15.7524 4.19874 15.7524 4.37631C15.7524 4.55388 15.6984 4.72725 15.5975 4.87339L15.496 4.99591L11.9937 8.49821L11.8712 8.59973C11.725 8.70058 11.5517 8.7546 11.3741 8.7546C11.1965 8.7546 11.0232 8.70058 10.877 8.59973L10.7545 8.49821L10.6547 8.37569C10.5539 8.22955 10.4999 8.05618 10.4999 7.87861C10.4999 7.70104 10.5539 7.52768 10.6547 7.38153L10.7545 7.25901L12.7638 5.25145H6.99842C5.65909 5.25137 4.37036 5.7631 3.3959 6.68192C2.42144 7.60074 1.83492 8.8572 1.75635 10.1942L1.7476 10.5023C1.7476 11.9375 2.32344 13.2362 3.25458 14.1849C3.40203 14.3532 3.47938 14.5717 3.47071 14.7953C3.46204 15.0189 3.36803 15.2308 3.20799 15.3872C3.04796 15.5437 2.83406 15.6329 2.61029 15.6364C2.38652 15.64 2.16987 15.5578 2.00489 15.4065C1.0598 14.4438 0.413017 13.2284 0.142349 11.9067C-0.12832 10.585 -0.0113454 9.21329 0.4792 7.95651C0.969746 6.69973 1.81297 5.61145 2.90743 4.82259C4.00188 4.03373 5.30096 3.5779 6.64837 3.50993L6.99842 3.50117L12.7638 3.49942L10.7545 1.49186L10.6547 1.36934C10.5395 1.20088 10.4867 0.997418 10.5056 0.794167C10.5245 0.590917 10.6138 0.400662 10.7582 0.256323C10.9025 0.111984 11.0928 0.022642 11.296 0.00375535C11.4993 -0.0151313 11.7027 0.0376256 11.8712 0.152898Z" fill="white"/>
</svg>
