<svg width="18" height="18" viewBox="0 0 18 18" fill="none" xmlns="http://www.w3.org/2000/svg">
<path d="M3 9C4.10457 9 5 8.10457 5 7C5 5.89543 4.10457 5 3 5C1.89543 5 1 5.89543 1 7C1 8.10457 1.89543 9 3 9Z" stroke="white" stroke-width="1.5" stroke-linecap="round" stroke-linejoin="round"/>
<path d="M3 1V5" stroke="white" stroke-width="1.5" stroke-linecap="round" stroke-linejoin="round"/>
<path d="M3 9V17" stroke="white" stroke-width="1.5" stroke-linecap="round" stroke-linejoin="round"/>
<path d="M9 15C10.1046 15 11 14.1046 11 13C11 11.8954 10.1046 11 9 11C7.89543 11 7 11.8954 7 13C7 14.1046 7.89543 15 9 15Z" stroke="white" stroke-width="1.5" stroke-linecap="round" stroke-linejoin="round"/>
<path d="M9 1V11" stroke="white" stroke-width="1.5" stroke-linecap="round" stroke-linejoin="round"/>
<path d="M9 15V17" stroke="white" stroke-width="1.5" stroke-linecap="round" stroke-linejoin="round"/>
<path d="M15 6C16.1046 6 17 5.10457 17 4C17 2.89543 16.1046 2 15 2C13.8954 2 13 2.89543 13 4C13 5.10457 13.8954 6 15 6Z" stroke="white" stroke-width="1.5" stroke-linecap="round" stroke-linejoin="round"/>
<path d="M15 1V2" stroke="white" stroke-width="1.5" stroke-linecap="round" stroke-linejoin="round"/>
<path d="M15 6V17" stroke="white" stroke-width="1.5" stroke-linecap="round" stroke-linejoin="round"/>
</svg>
