<svg width="24" height="12" viewBox="0 0 24 12" fill="none" xmlns="http://www.w3.org/2000/svg">
<path d="M6.0498 8.38867C6.0498 8.0013 5.91309 7.70508 5.63965 7.5C5.36621 7.29036 4.87402 7.07161 4.16309 6.84375C3.45215 6.61133 2.88932 6.38346 2.47461 6.16016C1.3444 5.54948 0.779297 4.72689 0.779297 3.69238C0.779297 3.15462 0.929688 2.67611 1.23047 2.25684C1.53581 1.83301 1.97103 1.5026 2.53613 1.26562C3.10579 1.02865 3.74382 0.910156 4.4502 0.910156C5.16113 0.910156 5.7946 1.04004 6.35059 1.2998C6.90658 1.55501 7.33724 1.91732 7.64258 2.38672C7.95247 2.85612 8.10742 3.38932 8.10742 3.98633H6.05664C6.05664 3.5306 5.91309 3.17741 5.62598 2.92676C5.33887 2.67155 4.93555 2.54395 4.41602 2.54395C3.91471 2.54395 3.52507 2.65104 3.24707 2.86523C2.96908 3.07487 2.83008 3.35286 2.83008 3.69922C2.83008 4.02279 2.99186 4.29395 3.31543 4.5127C3.64355 4.73145 4.12435 4.93652 4.75781 5.12793C5.92448 5.47884 6.77441 5.91406 7.30762 6.43359C7.84082 6.95312 8.10742 7.60026 8.10742 8.375C8.10742 9.23633 7.78158 9.91309 7.12988 10.4053C6.47819 10.8929 5.60091 11.1367 4.49805 11.1367C3.73242 11.1367 3.03516 10.9977 2.40625 10.7197C1.77734 10.4372 1.29655 10.0521 0.963867 9.56445C0.635742 9.07682 0.47168 8.51172 0.47168 7.86914H2.5293C2.5293 8.96745 3.18555 9.5166 4.49805 9.5166C4.98568 9.5166 5.36621 9.41862 5.63965 9.22266C5.91309 9.02214 6.0498 8.74414 6.0498 8.38867ZM15.4902 6.93262H11.5527V11H9.50195V1.04688H15.9824V2.70801H11.5527V5.27832H15.4902V6.93262ZM19.8584 5.81152L21.1025 3.60352H23.2148L21.1094 7.22656L23.3037 11H21.1846L19.8652 8.67578L18.5527 11H16.4268L18.6211 7.22656L16.5225 3.60352H18.6416L19.8584 5.81152Z" fill="#DCDCDC"/>
</svg>
