<svg width="19" height="21" viewBox="0 0 19 21" fill="none" xmlns="http://www.w3.org/2000/svg">
<path d="M15.8333 14.8561C15.0315 14.8561 14.3083 15.1674 13.7598 15.6684L6.23833 11.287C6.2966 11.0491 6.33333 10.8011 6.33333 10.5481C6.33333 10.295 6.2966 10.0483 6.23833 9.81046L13.68 5.47204C14.2626 6.02037 15.0328 6.32584 15.8333 6.32606C17.5801 6.32606 19 4.90776 19 3.16303C19 1.4183 17.5801 0 15.8333 0C14.0866 0 12.6667 1.4183 12.6667 3.16303C12.6667 3.41607 12.7034 3.66406 12.7617 3.90065L5.32 8.23907C4.73703 7.69129 3.96704 7.38591 3.16667 7.38505C1.41993 7.38505 0 8.80335 0 10.5481C0 12.2928 1.41993 13.7111 3.16667 13.7111C3.96716 13.7109 4.73738 13.4054 5.32 12.8571L12.8415 17.2385C12.7861 17.4647 12.7576 17.6965 12.7566 17.9293C12.7569 18.5368 12.9374 19.1305 13.2754 19.6355C13.6135 20.1405 14.0938 20.5341 14.6557 20.7664C15.2176 20.9988 15.8359 21.0595 16.4324 20.9409C17.0288 20.8223 17.5767 20.5298 18.0067 20.1003C18.4368 19.6707 18.7297 19.1235 18.8484 18.5277C18.9671 17.9319 18.9063 17.3143 18.6737 16.7531C18.4411 16.1918 18.0471 15.712 17.5415 15.3744C17.0359 15.0367 16.4415 14.8564 15.8333 14.8561Z" fill="#FFB800"/>
</svg>
