<svg width="18" height="14" viewBox="0 0 18 14" fill="none" xmlns="http://www.w3.org/2000/svg">
<path d="M3.72476 0.620663C3.72476 0.456053 3.65937 0.298185 3.54297 0.181788C3.42657 0.0653912 3.26871 0 3.1041 0C2.93949 0 2.78162 0.0653912 2.66522 0.181788C2.54883 0.298185 2.48343 0.456053 2.48343 0.620663V11.5356L1.06088 10.1118C0.944332 9.99529 0.786265 9.92982 0.621447 9.92982C0.456629 9.92982 0.298561 9.99529 0.182018 10.1118C0.0654737 10.2284 3.88324e-09 10.3864 0 10.5513C-3.88324e-09 10.7161 0.0654737 10.8741 0.182018 10.9907L2.66467 13.4721L2.67336 13.4808C2.78989 13.5944 2.9466 13.6574 3.10935 13.656C3.27211 13.6546 3.42772 13.589 3.54228 13.4733L6.02494 10.9907C6.08264 10.9331 6.12843 10.8646 6.1597 10.7893C6.19096 10.714 6.20708 10.6333 6.20714 10.5517C6.20719 10.4702 6.19119 10.3894 6.16003 10.314C6.12888 10.2387 6.08318 10.1702 6.02556 10.1125C5.96793 10.0547 5.8995 10.009 5.82418 9.9777C5.74886 9.94643 5.66812 9.93031 5.58657 9.93026C5.50501 9.9302 5.42425 9.9462 5.34888 9.97736C5.27352 10.0085 5.20502 10.0542 5.14732 10.1118L3.72476 11.5356V0.620663ZM8.0694 1.86199C8.0694 1.69738 8.13479 1.53951 8.25119 1.42311C8.36758 1.30672 8.52545 1.24133 8.69006 1.24133H17.3793C17.5439 1.24133 17.7018 1.30672 17.8182 1.42311C17.9346 1.53951 18 1.69738 18 1.86199C18 2.0266 17.9346 2.18447 17.8182 2.30086C17.7018 2.41726 17.5439 2.48265 17.3793 2.48265H8.69006C8.52545 2.48265 8.36758 2.41726 8.25119 2.30086C8.13479 2.18447 8.0694 2.0266 8.0694 1.86199ZM8.69006 4.9653C8.52545 4.9653 8.36758 5.03069 8.25119 5.14709C8.13479 5.26349 8.0694 5.42135 8.0694 5.58596C8.0694 5.75057 8.13479 5.90844 8.25119 6.02484C8.36758 6.14123 8.52545 6.20663 8.69006 6.20663H14.8967C15.0613 6.20663 15.2192 6.14123 15.3356 6.02484C15.452 5.90844 15.5173 5.75057 15.5173 5.58596C15.5173 5.42135 15.452 5.26349 15.3356 5.14709C15.2192 5.03069 15.0613 4.9653 14.8967 4.9653H8.69006ZM8.69006 8.68928C8.52545 8.68928 8.36758 8.75467 8.25119 8.87106C8.13479 8.98746 8.0694 9.14533 8.0694 9.30994C8.0694 9.47455 8.13479 9.63242 8.25119 9.74881C8.36758 9.86521 8.52545 9.9306 8.69006 9.9306H12.414C12.5786 9.9306 12.7365 9.86521 12.8529 9.74881C12.9693 9.63242 13.0347 9.47455 13.0347 9.30994C13.0347 9.14533 12.9693 8.98746 12.8529 8.87106C12.7365 8.75467 12.5786 8.68928 12.414 8.68928H8.69006ZM8.69006 12.4133C8.52545 12.4133 8.36758 12.4786 8.25119 12.595C8.13479 12.7114 8.0694 12.8693 8.0694 13.0339C8.0694 13.1985 8.13479 13.3564 8.25119 13.4728C8.36758 13.5892 8.52545 13.6546 8.69006 13.6546H9.93139C10.096 13.6546 10.2539 13.5892 10.3703 13.4728C10.4867 13.3564 10.552 13.1985 10.552 13.0339C10.552 12.8693 10.4867 12.7114 10.3703 12.595C10.2539 12.4786 10.096 12.4133 9.93139 12.4133H8.69006Z" fill="#D1D1D1"/>
</svg>
