<svg width="16" height="16" viewBox="0 0 16 16" fill="none" xmlns="http://www.w3.org/2000/svg">
<path d="M9.14275 9.9508L15.0234 15.8326C15.1307 15.9398 15.2762 16.0001 15.4279 16.0001C15.5796 16.0001 15.7251 15.9398 15.8324 15.8326C15.9397 15.7253 16 15.5798 16 15.428C16 15.2763 15.9397 15.1308 15.8324 15.0235L0.976634 0.167686C0.923509 0.114562 0.860442 0.0724211 0.791032 0.0436705C0.721621 0.0149198 0.647228 0.000122071 0.572099 0.00012207C0.49697 0.00012207 0.422576 0.0149198 0.353166 0.0436705C0.283756 0.0724211 0.220688 0.114562 0.167564 0.167686C0.11444 0.22081 0.0722991 0.283878 0.0435484 0.353288C0.0147977 0.422698 -5.59755e-10 0.497092 0 0.572221C5.59755e-10 0.64735 0.0147977 0.721743 0.0435484 0.791154C0.0722991 0.860564 0.11444 0.923632 0.167564 0.976756L3.75581 4.56386H2.85761C2.40299 4.56386 1.967 4.74446 1.64553 5.06592C1.32407 5.38738 1.14348 5.82338 1.14348 6.27799V9.69368C1.14348 10.1483 1.32407 10.5843 1.64553 10.9058C1.967 11.2272 2.40299 11.4078 2.85761 11.4078H4.82657L8.17027 14.6932C8.25057 14.7724 8.35248 14.826 8.46319 14.8474C8.5739 14.8687 8.68844 14.8568 8.79241 14.8132C8.89638 14.7696 8.98512 14.6962 9.04746 14.6022C9.10981 14.5083 9.14296 14.398 9.14275 14.2853V9.9508Z" fill="#8C8C8C"/>
<path d="M12.2384 9.81451L11.3299 8.90602C11.3927 8.6409 11.4327 8.33807 11.4327 7.99867C11.4327 7.14389 11.1825 6.53137 10.9436 6.13826C10.8258 5.94425 10.6841 5.76574 10.522 5.60688C10.5152 5.60068 10.5083 5.59458 10.5014 5.5886H10.5025C10.3916 5.49186 10.3222 5.35602 10.309 5.2094C10.2957 5.06278 10.3395 4.9167 10.4313 4.80162C10.5231 4.68653 10.6558 4.61132 10.8017 4.59167C10.9476 4.57201 11.0955 4.60942 11.2145 4.69611H11.2156L11.2168 4.69725L11.219 4.69954L11.2259 4.70411L11.243 4.71896C11.3182 4.78449 11.3899 4.85391 11.4579 4.92695C11.587 5.0675 11.755 5.27206 11.9195 5.54403C12.2532 6.09255 12.5755 6.90734 12.5755 7.99867C12.5803 8.61994 12.4659 9.23636 12.2384 9.81451V9.81451Z" fill="#8C8C8C"/>
<path d="M13.9722 11.5491L13.1209 10.6977C13.5164 9.85547 13.7201 8.93593 13.7174 8.00541C13.7202 6.75848 13.3549 5.53846 12.6672 4.4983C12.4556 4.17439 12.2146 3.87065 11.9473 3.59095C11.855 3.49532 11.7585 3.40381 11.6581 3.31669L11.6456 3.30527C11.5302 3.20982 11.457 3.07294 11.4415 2.92404C11.4261 2.77514 11.4697 2.62613 11.563 2.50905C11.6562 2.39197 11.7917 2.31617 11.9403 2.29795C12.0889 2.27973 12.2387 2.32055 12.3575 2.41163L12.3586 2.41277L12.3621 2.41506L12.3701 2.42192L12.3952 2.44363C12.5255 2.55635 12.6505 2.67494 12.77 2.79902C13.0043 3.04243 13.314 3.40126 13.6225 3.87093C14.4325 5.09746 14.863 6.53555 14.8601 8.00541C14.8634 9.24173 14.5583 10.4593 13.9722 11.5479V11.5491Z" fill="#8C8C8C"/>
<path d="M9.14249 6.71845L5.91992 3.49817L8.17115 1.30637C8.25168 1.22831 8.35339 1.17568 8.46363 1.15503C8.57386 1.13438 8.68773 1.14663 8.79105 1.19025C8.89437 1.23387 8.98257 1.30693 9.04466 1.40033C9.10675 1.49372 9.13997 1.60333 9.1402 1.71548V6.71845H9.14249Z" fill="#8C8C8C"/>
</svg>
