<svg width="16" height="15" viewBox="0 0 16 15" fill="none" xmlns="http://www.w3.org/2000/svg">
<path d="M8.99555 0.652106C8.99578 0.534292 8.95859 0.419041 8.88865 0.320828C8.8187 0.222616 8.71912 0.145821 8.60241 0.100092C8.4857 0.0543617 8.35707 0.0417354 8.23268 0.0637988C8.10828 0.0858623 7.99367 0.141631 7.90323 0.224101L4.14309 3.6314L1.92762 3.6314C1.41638 3.6314 0.926084 3.82034 0.564586 4.15665C0.203088 4.49296 -1.60268e-08 4.9491 -1.75837e-08 5.42472L-2.92855e-08 8.9994C-3.08425e-08 9.47501 0.203088 9.93115 0.564586 10.2675C0.926084 10.6038 1.41638 10.7927 1.92762 10.7927L4.14181 10.7927L7.90194 14.2299C7.99224 14.3127 8.10685 14.3688 8.23134 14.3911C8.35584 14.4135 8.48465 14.401 8.60157 14.3554C8.71849 14.3098 8.81828 14.233 8.88839 14.1347C8.95849 14.0364 8.99578 13.921 8.99555 13.8031L8.99555 0.652106Z" fill="#FFB800"/>
<path d="M10.422 3.86711C10.4746 3.8056 10.5396 3.75433 10.6135 3.71623C10.6873 3.67813 10.7685 3.65395 10.8524 3.64507C10.9363 3.63619 11.0213 3.64278 11.1025 3.66446C11.1836 3.68615 11.2594 3.72251 11.3254 3.77146L11.3267 3.77146L11.328 3.77266L11.3306 3.77505L11.3383 3.77983L11.3576 3.79537L11.4154 3.8432C11.6867 4.08551 11.923 4.35959 12.1183 4.65856C12.4936 5.23242 12.856 6.08484 12.856 7.22659C12.856 8.36713 12.4936 9.22075 12.1183 9.79461C11.9688 10.0257 11.7949 10.2424 11.5992 10.4414C11.5171 10.5241 11.43 10.6023 11.3383 10.6757L11.328 10.6841C11.328 10.6841 10.7536 10.9746 10.4233 10.5908C10.3177 10.4676 10.2687 10.3104 10.287 10.1537C10.3053 9.99696 10.3894 9.85328 10.521 9.75396L10.5223 9.75157L10.5223 9.75277L10.5236 9.75157L10.5467 9.73245C10.7292 9.56547 10.8885 9.37791 11.0209 9.17413C11.2895 8.76166 11.5709 8.11966 11.5709 7.22539C11.5709 6.33232 11.2895 5.69151 11.0209 5.28024C10.8884 5.07726 10.729 4.8905 10.5467 4.72431C10.5391 4.71782 10.5314 4.71144 10.5236 4.70518L10.5248 4.70518C10.3921 4.60652 10.3067 4.46296 10.2874 4.30589C10.2682 4.14883 10.3166 3.99106 10.422 3.86711Z" fill="#FFB800"/>
<path d="M12.6108 1.38029C12.545 1.32965 12.469 1.29171 12.3873 1.26869C12.3056 1.24567 12.2198 1.23804 12.1348 1.24623C12.0499 1.25443 11.9676 1.27829 11.8927 1.31643C11.8178 1.35456 11.7518 1.40621 11.6986 1.46834C11.6454 1.53047 11.606 1.60184 11.5828 1.67829C11.5596 1.75473 11.553 1.83472 11.5634 1.91356C11.5738 1.99241 11.6009 2.06854 11.6433 2.1375C11.6857 2.20647 11.7424 2.26688 11.8102 2.31521L11.8243 2.32717L11.8912 2.38097C11.9503 2.43118 12.0402 2.50889 12.1482 2.6141C12.3666 2.82571 12.6622 3.14372 12.9591 3.56336C13.5502 4.40143 14.14 5.63524 14.14 7.23248C14.1437 8.5356 13.7328 9.81058 12.9591 10.8968C12.6635 11.3153 12.3679 11.6309 12.1495 11.8413C12.0461 11.9414 11.9381 12.0371 11.8256 12.1282L11.8102 12.1402C11.6845 12.2411 11.6057 12.3832 11.5902 12.537C11.5747 12.6907 11.6237 12.8441 11.727 12.9649C11.8304 13.0858 11.9799 13.1647 12.1444 13.1853C12.3089 13.2058 12.4756 13.1663 12.6095 13.0751L12.6519 13.0428L12.7496 12.9651C13.2365 12.5442 13.6674 12.0706 14.0334 11.5544C14.9449 10.2728 15.4291 8.76923 15.4251 7.23248C15.4284 5.69472 14.9443 4.19019 14.0334 2.907C13.7515 2.50663 13.4306 2.13124 13.0747 1.78558C12.9403 1.65577 12.7997 1.5317 12.6532 1.41377L12.6249 1.39105L12.6159 1.38388L12.6121 1.38149L12.6108 1.38029Z" fill="#FFB800"/>
</svg>
