<svg width="32" height="14" viewBox="0 0 32 14" fill="none" xmlns="http://www.w3.org/2000/svg">
<path d="M1.56651 7.30076C1.50097 7.30076 1.44183 7.36177 1.43384 7.43241L1.12373 10.3173L1.43384 13.1363C1.44183 13.215 1.50097 13.2679 1.56651 13.2679C1.63205 13.2679 1.6864 13.215 1.70078 13.1363L2.03806 10.3173L1.6784 7.43241C1.6784 7.35856 1.61926 7.30076 1.56012 7.30076H1.56651ZM0.361256 8.41008C0.279734 8.41008 0.239772 8.45824 0.22059 8.5369L0 10.3173L0.22059 12.0703C0.22059 12.1442 0.279734 12.1956 0.340476 12.1956C0.402817 12.1956 0.457165 12.1346 0.479544 12.0559L0.760876 10.29L0.479544 8.5048C0.479544 8.42292 0.4204 8.38279 0.359658 8.38279L0.361256 8.41008ZM2.79894 6.73728C2.71582 6.73728 2.63909 6.79989 2.63909 6.87694L2.35776 10.3108L2.65827 13.6035C2.65827 13.6821 2.71742 13.764 2.81652 13.764C2.89964 13.764 2.95879 13.6821 2.97957 13.6035L3.31684 10.29L2.97957 6.87694C2.95879 6.79828 2.89645 6.71641 2.81652 6.71641L2.79894 6.73728ZM4.07932 6.596C3.97862 6.596 3.89709 6.67788 3.87791 6.77741L3.62056 10.3108L3.90349 13.7191C3.92267 13.8202 4.00099 13.9021 4.0985 13.9021C4.2008 13.9021 4.27913 13.8202 4.29831 13.703L4.61961 10.3108L4.29831 6.79989C4.29874 6.77629 4.29445 6.75285 4.28571 6.73095C4.27696 6.70904 4.26394 6.68912 4.2474 6.67236C4.23086 6.6556 4.21114 6.64234 4.18941 6.63336C4.16768 6.62438 4.14438 6.61987 4.12088 6.62008L4.07932 6.596ZM5.61706 7.07922C5.61644 7.05196 5.61043 7.02509 5.59937 7.00018C5.5883 6.97527 5.57242 6.95282 5.55263 6.93414C5.53284 6.91547 5.50955 6.90093 5.48411 6.89139C5.45867 6.88184 5.43159 6.87748 5.40446 6.87855C5.34924 6.87718 5.29562 6.8973 5.25481 6.93469C5.21401 6.97209 5.18916 7.02387 5.18547 7.07922L4.89454 10.3317L5.16469 13.764C5.16447 13.7918 5.16979 13.8194 5.18034 13.8451C5.19089 13.8708 5.20645 13.8942 5.2261 13.9138C5.24576 13.9334 5.26912 13.9488 5.29481 13.9592C5.3205 13.9696 5.34799 13.9747 5.37569 13.9743C5.47479 13.9743 5.5723 13.886 5.5723 13.7624L5.87441 10.3285L5.5723 7.05996L5.61706 7.07922ZM6.69443 4.78996C6.63191 4.79238 6.57266 4.81863 6.52872 4.86336C6.48477 4.90809 6.45944 4.96795 6.45786 5.03076L6.17653 10.3285L6.42589 13.7624C6.42589 13.886 6.53139 13.9823 6.66566 13.9823C6.79034 13.9823 6.89744 13.8635 6.90543 13.7415L7.18357 10.3108L6.90703 4.99223C6.89584 4.85096 6.78874 4.74822 6.66726 4.74822L6.69443 4.78996ZM7.94604 3.52492C7.87678 3.52781 7.81095 3.55599 7.76092 3.60417C7.71088 3.65235 7.68008 3.71722 7.6743 3.78659L7.43453 10.3092L7.65512 13.7207C7.65512 13.8812 7.775 14 7.91567 14C8.05314 14 8.17303 13.8812 8.19381 13.7207L8.45276 10.3092L8.19541 3.80426C8.17462 3.64372 8.05474 3.52331 7.91567 3.52331L7.94604 3.52492ZM9.23602 2.92611C9.07297 2.92611 8.95468 3.04331 8.9355 3.20384L8.71331 10.2675L8.9355 13.642C8.95468 13.8025 9.07297 13.9438 9.23602 13.9438C9.3148 13.9414 9.38967 13.9087 9.44525 13.8526C9.50084 13.7965 9.53293 13.7211 9.53493 13.642L9.79548 10.2675L9.53333 3.20384C9.53333 3.04331 9.39427 2.90203 9.23282 2.90203L9.23602 2.92611ZM10.892 2.96304C10.8927 2.9209 10.8849 2.87907 10.8691 2.84002C10.8534 2.80096 10.83 2.76549 10.8003 2.73569C10.7706 2.70589 10.7353 2.68239 10.6964 2.66656C10.6575 2.65074 10.6159 2.64292 10.5739 2.64357C10.4898 2.64518 10.4095 2.67926 10.3496 2.73874C10.2898 2.79822 10.2551 2.87853 10.2526 2.96304L10.0528 10.2482L10.251 13.6019C10.275 13.7801 10.4125 13.9213 10.5931 13.9213C10.7738 13.9213 10.9144 13.7801 10.9144 13.6019L11.1318 10.2482L10.9144 2.94377L10.892 2.96304ZM11.8911 2.78484C11.7105 2.78484 11.5506 2.94538 11.5506 3.12358L11.3508 10.2498L11.5506 13.5617C11.5506 13.7624 11.7105 13.9037 11.8911 13.9037C11.9837 13.9007 12.0714 13.8614 12.1354 13.7941C12.1993 13.7269 12.2345 13.6371 12.2332 13.5441L12.433 10.2306L12.2092 3.12197C12.2092 2.92611 12.0493 2.76076 11.8495 2.76076L11.8911 2.78484ZM13.1891 2.98391C13.1392 2.98369 13.0899 2.99339 13.0438 3.01244C12.9978 3.03148 12.9559 3.0595 12.9207 3.09487C12.8855 3.13025 12.8576 3.17227 12.8386 3.21853C12.8197 3.26479 12.81 3.31436 12.8102 3.36438L12.6727 10.2514L12.8534 13.5633C12.8534 13.7624 13.0132 13.9342 13.2306 13.9342C13.4304 13.9342 13.5935 13.7736 13.6095 13.5537L13.7709 10.2819L13.5919 3.43502C13.5759 3.21508 13.4112 3.05294 13.213 3.05294L13.1891 2.98391ZM14.7923 1.79111C14.725 1.7515 14.6482 1.73097 14.5701 1.73171C14.4902 1.73171 14.4103 1.75258 14.3511 1.79111C14.291 1.82599 14.2409 1.87603 14.2059 1.93627C14.1708 1.99652 14.152 2.0649 14.1513 2.13466V2.21493L14.0139 10.3125L14.1673 13.5922V13.6035C14.1769 13.6837 14.2057 13.7833 14.2632 13.8443C14.3432 13.9262 14.4551 13.9823 14.5765 13.9823C14.6807 13.9767 14.7797 13.9347 14.8563 13.8635C14.8955 13.8239 14.9264 13.7767 14.9473 13.7249C14.9681 13.6731 14.9785 13.6176 14.9778 13.5617L14.9985 13.2391L15.1536 10.2884L14.973 2.14108C14.9721 2.07724 14.9554 2.01462 14.9244 1.95885C14.8934 1.90309 14.8491 1.85593 14.7955 1.82161L14.7923 1.79111ZM16.1303 1.05746C16.1056 1.02949 16.0749 1.00746 16.0406 0.993006C16.0063 0.978554 15.9692 0.972049 15.932 0.973976C15.8327 0.97036 15.735 0.999698 15.6539 1.05746C15.6054 1.09621 15.5659 1.1452 15.5383 1.20096C15.5107 1.25671 15.4956 1.31788 15.4941 1.38014V1.41706L15.3118 10.2675L15.4125 11.8954L15.4957 13.4815C15.4982 13.5981 15.5468 13.709 15.6307 13.7897C15.7147 13.8704 15.8271 13.9143 15.9432 13.9117C16.0594 13.9091 16.1698 13.8604 16.2501 13.7761C16.3305 13.6918 16.3742 13.5789 16.3716 13.4622L16.5714 10.2306L16.3716 1.34321C16.3699 1.26753 16.3486 1.19359 16.31 1.1286C16.2713 1.06361 16.2166 1.00979 16.151 0.972371L16.1303 1.05746ZM28.0629 6.02931C27.5258 6.02931 27.0031 6.14489 26.546 6.33914C26.4489 5.26281 26.1039 4.2239 25.5382 3.30455C24.9725 2.38521 24.2016 1.61063 23.2864 1.04208C22.3713 0.47352 21.337 0.12657 20.2653 0.0286552C19.1937 -0.0692594 18.114 0.0845475 17.1117 0.477915C16.8112 0.598318 16.7489 0.720327 16.7313 0.961134V13.5023C16.7381 13.6195 16.786 13.7306 16.8664 13.8158C16.9468 13.9009 17.0547 13.9548 17.1709 13.9679H28.0837C28.5977 13.9726 29.1074 13.8747 29.5834 13.6799C30.0594 13.4851 30.4922 13.1973 30.8565 12.8332C31.2208 12.469 31.5095 12.0359 31.7058 11.5588C31.9021 11.0817 32.0021 10.5702 32 10.054C32.0025 9.00814 31.5914 8.00409 30.857 7.26261C30.1226 6.52113 29.125 6.10292 28.0837 6.09994" fill="#FFB800"/>
</svg>
