<svg width="34" height="34" viewBox="0 0 34 34" fill="none" xmlns="http://www.w3.org/2000/svg">
<path d="M28.7381 4.85714C29.4291 4.85714 30.1133 4.99325 30.7517 5.25768C31.3901 5.52212 31.9702 5.90971 32.4588 6.39832C32.9474 6.88693 33.335 7.467 33.5995 8.1054C33.8639 8.74381 34 9.42804 34 10.119V28.7381C34 29.4291 33.8639 30.1133 33.5995 30.7517C33.335 31.3901 32.9474 31.9702 32.4588 32.4588C31.9702 32.9474 31.3901 33.335 30.7517 33.5995C30.1133 33.8639 29.4291 34 28.7381 34H10.119C9.42804 34 8.74381 33.8639 8.1054 33.5995C7.467 33.335 6.88693 32.9474 6.39832 32.4588C5.90971 31.9702 5.52212 31.3901 5.25768 30.7517C4.99325 30.1133 4.85714 29.4291 4.85714 28.7381V18.6223C5.62457 18.9429 6.43895 19.1728 7.28571 19.3055V28.7381C7.28571 29.0749 7.344 29.3987 7.45248 29.6998L16.8802 20.4696C17.5265 19.8369 18.385 19.4673 19.2887 19.4326C20.1925 19.3979 21.0768 19.7006 21.7697 20.2818L21.977 20.4696L31.403 29.7014C31.5115 29.4003 31.5714 29.0765 31.5714 28.7381V10.119C31.5714 9.3676 31.2729 8.64693 30.7416 8.11558C30.2102 7.58423 29.4895 7.28571 28.7381 7.28571H19.3055C19.1766 6.45158 18.9472 5.63612 18.6223 4.85714H28.7381ZM18.7146 22.0903L18.5786 22.2036L9.17676 31.4111C9.47143 31.5148 9.78876 31.5714 10.119 31.5714H28.7381C29.0668 31.5714 29.3841 31.5148 29.6771 31.4111L20.2786 22.2052C20.0735 22.0043 19.8039 21.8825 19.5176 21.8614C19.2313 21.8404 18.9468 21.9215 18.7146 22.0903V22.0903ZM24.6937 10.5238C25.6607 10.5238 26.5881 10.908 27.2719 11.5917C27.9557 12.2755 28.3398 13.2029 28.3398 14.1699C28.3398 15.1369 27.9557 16.0643 27.2719 16.7481C26.5881 17.4319 25.6607 17.816 24.6937 17.816C23.7267 17.816 22.7993 17.4319 22.1155 16.7481C21.4318 16.0643 21.0476 15.1369 21.0476 14.1699C21.0476 13.2029 21.4318 12.2755 22.1155 11.5917C22.7993 10.908 23.7267 10.5238 24.6937 10.5238V10.5238ZM8.90476 0C10.0742 -1.74253e-08 11.2321 0.230328 12.3125 0.677835C13.3928 1.12534 14.3745 1.78126 15.2014 2.60814C16.0283 3.43503 16.6842 4.41668 17.1317 5.49706C17.5792 6.57743 17.8095 7.73537 17.8095 8.90476C17.8095 10.0742 17.5792 11.2321 17.1317 12.3125C16.6842 13.3928 16.0283 14.3745 15.2014 15.2014C14.3745 16.0283 13.3928 16.6842 12.3125 17.1317C11.2321 17.5792 10.0742 17.8095 8.90476 17.8095C6.54307 17.8095 4.27811 16.8713 2.60814 15.2014C0.938178 13.5314 0 11.2665 0 8.90476C0 6.54307 0.938178 4.27811 2.60814 2.60814C4.27811 0.938178 6.54307 3.51919e-08 8.90476 0V0ZM24.6937 12.9524C24.5338 12.9524 24.3755 12.9839 24.2278 13.0451C24.0801 13.1062 23.9459 13.1959 23.8328 13.309C23.7197 13.422 23.6301 13.5563 23.5689 13.704C23.5077 13.8517 23.4762 14.01 23.4762 14.1699C23.4762 14.3298 23.5077 14.4881 23.5689 14.6358C23.6301 14.7835 23.7197 14.9178 23.8328 15.0308C23.9459 15.1439 24.0801 15.2336 24.2278 15.2948C24.3755 15.3559 24.5338 15.3874 24.6937 15.3874C25.0166 15.3874 25.3263 15.2592 25.5546 15.0308C25.783 14.8025 25.9112 14.4928 25.9112 14.1699C25.9112 13.847 25.783 13.5373 25.5546 13.309C25.3263 13.0807 25.0166 12.9524 24.6937 12.9524V12.9524ZM8.90476 3.2381L8.75905 3.24943C8.5973 3.27898 8.44838 3.35708 8.33211 3.47335C8.21585 3.58962 8.13774 3.73854 8.10819 3.90029L8.09524 4.04762V8.09524H4.04438L3.89867 8.10819C3.73692 8.13774 3.588 8.21585 3.47173 8.33211C3.35547 8.44838 3.27736 8.5973 3.24781 8.75905L3.23486 8.90476L3.24781 9.05048C3.27736 9.21223 3.35547 9.36114 3.47173 9.47741C3.588 9.59368 3.73692 9.67178 3.89867 9.70133L4.04438 9.71429H8.09524V13.7668L8.10819 13.9125C8.13774 14.0742 8.21585 14.2231 8.33211 14.3394C8.44838 14.4557 8.5973 14.5338 8.75905 14.5633L8.90476 14.5779L9.05048 14.5633C9.21223 14.5338 9.36114 14.4557 9.47741 14.3394C9.59368 14.2231 9.67178 14.0742 9.70133 13.9125L9.71429 13.7668V9.71429H13.77L13.9157 9.70133C14.0775 9.67178 14.2264 9.59368 14.3426 9.47741C14.4589 9.36114 14.537 9.21223 14.5666 9.05048L14.5795 8.90476L14.5666 8.75905C14.5369 8.59708 14.4586 8.448 14.342 8.33171C14.2254 8.21542 14.0761 8.13744 13.9141 8.10819L13.7684 8.09524H9.71429V4.04762L9.70133 3.9019C9.67208 3.73986 9.59411 3.59059 9.47782 3.47401C9.36153 3.35743 9.21245 3.27908 9.05048 3.24943L8.90476 3.2381Z" fill="#5C5C5C"/>
</svg>
