<svg width="53" height="52" viewBox="0 0 53 52" fill="none" xmlns="http://www.w3.org/2000/svg">
<path d="M38.5279 1.15441C37.2962 0.712286 35.9942 0.490427 34.6833 0.499278C30.4439 0.499278 27.4499 2.603 27.4287 5.62285C27.4022 7.84141 29.5563 9.09164 31.1858 9.8329C32.8577 10.595 33.4168 11.0753 33.4115 11.7565C33.4009 12.7927 32.0761 13.2625 30.844 13.2625C29.1509 13.2625 28.2262 13.0302 26.8034 12.4482L26.2761 12.2055L25.6746 15.6821C26.7053 16.1049 28.5627 16.4677 30.481 16.499C34.988 16.499 37.9344 14.4084 37.9688 11.1954C38.0059 9.42312 36.8401 8.08415 34.3865 6.97748C32.8948 6.25971 31.9701 5.77945 31.9701 5.05124C31.9701 4.40656 32.7623 3.7175 34.4183 3.7175C35.5205 3.69123 36.6158 3.89492 37.6323 4.3152L38.0297 4.49008L38.6312 1.13091L38.5279 1.15441ZM49.529 0.781166H46.217C45.1863 0.781166 44.41 1.06044 43.9596 2.06793L37.5899 16.2824H42.0969L42.9977 13.9516L48.4983 13.9568C48.6282 14.5023 49.0256 16.2824 49.0256 16.2824H53L49.529 0.781166ZM21.3319 0.650661H25.627L22.9403 16.1597H18.6506L21.3319 0.645442V0.650661ZM10.4288 9.19865L10.874 11.352L15.0709 0.781166H19.6203L12.8612 16.2615H8.3224L4.61296 3.15372C4.55288 2.93758 4.41179 2.75196 4.21817 2.63432C2.88118 1.95397 1.46456 1.43767 0 1.09698L0.0582911 0.770723H6.9711C7.90906 0.807265 8.6642 1.09698 8.91591 2.08359L10.4262 9.20648V9.19865H10.4288ZM44.2298 10.7804L45.9415 6.44241C45.9203 6.48939 46.2939 5.54716 46.5111 4.96511L46.8052 6.30408L47.7988 10.7777H44.2272V10.7804H44.2298Z" fill="#9D9D9D"/>
<path d="M18.873 43.6416L21.041 36.9678H22.6699L19.5996 45.499H18.1641L15.1055 36.9678H16.7285L18.873 43.6416ZM25.0137 45.499H23.5898V39.1592H25.0137V45.499ZM23.502 37.5127C23.502 37.2939 23.5703 37.1123 23.707 36.9678C23.8477 36.8232 24.0469 36.751 24.3047 36.751C24.5625 36.751 24.7617 36.8232 24.9023 36.9678C25.043 37.1123 25.1133 37.2939 25.1133 37.5127C25.1133 37.7275 25.043 37.9072 24.9023 38.0518C24.7617 38.1924 24.5625 38.2627 24.3047 38.2627C24.0469 38.2627 23.8477 38.1924 23.707 38.0518C23.5703 37.9072 23.502 37.7275 23.502 37.5127ZM30.123 43.7764C30.123 43.5225 30.0176 43.3291 29.8066 43.1963C29.5996 43.0635 29.2539 42.9463 28.7695 42.8447C28.2852 42.7432 27.8809 42.6143 27.5566 42.458C26.8457 42.1143 26.4902 41.6162 26.4902 40.9639C26.4902 40.417 26.7207 39.96 27.1816 39.5928C27.6426 39.2256 28.2285 39.042 28.9395 39.042C29.6973 39.042 30.3086 39.2295 30.7734 39.6045C31.2422 39.9795 31.4766 40.4658 31.4766 41.0635H30.0527C30.0527 40.79 29.9512 40.5635 29.748 40.3838C29.5449 40.2002 29.2754 40.1084 28.9395 40.1084C28.627 40.1084 28.3711 40.1807 28.1719 40.3252C27.9766 40.4697 27.8789 40.6631 27.8789 40.9053C27.8789 41.124 27.9707 41.2939 28.1543 41.415C28.3379 41.5361 28.709 41.6592 29.2676 41.7842C29.8262 41.9053 30.2637 42.0518 30.5801 42.2236C30.9004 42.3916 31.1367 42.5947 31.2891 42.833C31.4453 43.0713 31.5234 43.3604 31.5234 43.7002C31.5234 44.2705 31.2871 44.7334 30.8145 45.0889C30.3418 45.4404 29.7227 45.6162 28.957 45.6162C28.4375 45.6162 27.9746 45.5225 27.5684 45.335C27.1621 45.1475 26.8457 44.8896 26.6191 44.5615C26.3926 44.2334 26.2793 43.8799 26.2793 43.501H27.6621C27.6816 43.8369 27.8086 44.0967 28.043 44.2803C28.2773 44.46 28.5879 44.5498 28.9746 44.5498C29.3496 44.5498 29.6348 44.4795 29.8301 44.3389C30.0254 44.1943 30.123 44.0068 30.123 43.7764ZM36.5566 45.499C36.4941 45.3779 36.4395 45.1807 36.3926 44.9072C35.9395 45.3799 35.3848 45.6162 34.7285 45.6162C34.0918 45.6162 33.5723 45.4346 33.1699 45.0713C32.7676 44.708 32.5664 44.2588 32.5664 43.7236C32.5664 43.0479 32.8164 42.5303 33.3164 42.1709C33.8203 41.8076 34.5391 41.626 35.4727 41.626H36.3457V41.21C36.3457 40.8818 36.2539 40.6201 36.0703 40.4248C35.8867 40.2256 35.6074 40.126 35.2324 40.126C34.9082 40.126 34.6426 40.208 34.4355 40.3721C34.2285 40.5322 34.125 40.7373 34.125 40.9873H32.7012C32.7012 40.6396 32.8164 40.3154 33.0469 40.0146C33.2773 39.71 33.5898 39.4717 33.9844 39.2998C34.3828 39.1279 34.8262 39.042 35.3145 39.042C36.0566 39.042 36.6484 39.2295 37.0898 39.6045C37.5312 39.9756 37.7578 40.499 37.7695 41.1748V44.0342C37.7695 44.6045 37.8496 45.0596 38.0098 45.3994V45.499H36.5566ZM34.9922 44.4736C35.2734 44.4736 35.5371 44.4053 35.7832 44.2686C36.0332 44.1318 36.2207 43.9482 36.3457 43.7178V42.5225H35.5781C35.0508 42.5225 34.6543 42.6143 34.3887 42.7979C34.123 42.9814 33.9902 43.2412 33.9902 43.5771C33.9902 43.8506 34.0801 44.0693 34.2598 44.2334C34.4434 44.3936 34.6875 44.4736 34.9922 44.4736Z" fill="white"/>
</svg>
