<svg width="23" height="21" viewBox="0 0 23 21" fill="none" xmlns="http://www.w3.org/2000/svg">
<path fill-rule="evenodd" clip-rule="evenodd" d="M18.4 0C19.6684 0 20.7 1.03155 20.7 2.3V4.6C21.9685 4.6 23 5.63155 23 6.9V18.4C23 19.6685 21.9685 20.7 20.7 20.7H3.45C2.0631 20.7 0 19.7812 0 17.25V3.45C0 1.5479 1.5479 0 3.45 0H18.4ZM18.4 2.3H3.45C3.1539 2.31325 2.87432 2.44019 2.66947 2.65441C2.46462 2.86863 2.35029 3.1536 2.35029 3.45C2.35029 3.7464 2.46462 4.03137 2.66947 4.24559C2.87432 4.45981 3.1539 4.58675 3.45 4.6H18.4V2.3ZM3.4638 18.4H20.7V6.9H3.45C3.04405 6.9 2.6611 6.8172 2.3 6.68725V17.25C2.3 18.1758 2.9325 18.3862 3.4638 18.4ZM18.4 10.35H16.1V14.95H18.4V10.35Z" fill="#FFB800"/>
</svg>
