<svg width="22" height="22" viewBox="0 0 22 22" fill="none" xmlns="http://www.w3.org/2000/svg">
<path d="M12.1001 0C11.8083 0 11.5285 0.115898 11.3222 0.322198C11.1159 0.528498 11 0.808301 11 1.10005V9.90048C11 10.1922 11.1159 10.472 11.3222 10.6783C11.5285 10.8846 11.8083 11.0005 12.1001 11.0005H20.9005C21.1922 11.0005 21.472 10.8846 21.6783 10.6783C21.8846 10.472 22.0005 10.1922 22.0005 9.90048C22.0005 7.27471 20.9575 4.75648 19.1008 2.89978C17.2441 1.04308 14.7258 0 12.1001 0ZM13.2001 8.80043V2.27711C14.846 2.5143 16.3709 3.27791 17.5468 4.45377C18.7226 5.62962 19.4862 7.15452 19.7234 8.80043H13.2001Z" fill="white"/>
<path d="M20.7018 13.2666C20.5653 13.2178 20.4205 13.1965 20.2757 13.2038C20.131 13.2112 19.9891 13.2471 19.8582 13.3094C19.7274 13.3718 19.6102 13.4594 19.5133 13.5672C19.4164 13.675 19.3418 13.8009 19.2937 13.9376C18.798 15.339 17.9553 16.592 16.8444 17.5797C15.7335 18.5673 14.3905 19.2575 12.9407 19.5858C11.4909 19.9141 9.98164 19.8698 8.5536 19.4571C7.12557 19.0444 5.82535 18.2766 4.77425 17.2255C3.72315 16.1744 2.95542 14.8742 2.54269 13.4462C2.12996 12.0182 2.08568 10.5088 2.41398 9.05907C2.74227 7.6093 3.43245 6.2663 4.42013 5.15539C5.40779 4.04447 6.66077 3.20183 8.06215 2.70609C8.33786 2.60981 8.56402 2.40796 8.6909 2.14492C8.81777 1.88189 8.83496 1.57923 8.73868 1.30352C8.6424 1.02782 8.44055 0.801651 8.17751 0.674777C7.91448 0.547902 7.61182 0.530713 7.33611 0.626992C5.58377 1.24608 4.01685 2.29903 2.78158 3.68758C1.54631 5.07613 0.682971 6.75501 0.272142 8.56752C-0.138687 10.38 -0.0836145 12.2671 0.432221 14.0525C0.948056 15.838 1.90784 17.4637 3.22198 18.7778C4.53613 20.092 6.1618 21.0517 7.94726 21.5676C9.73272 22.0834 11.6198 22.1385 13.4323 21.7276C15.2448 21.3168 16.9237 20.4535 18.3122 19.2182C19.7008 17.9829 20.7537 16.416 21.3728 14.6637C21.4679 14.3894 21.4508 14.0886 21.3251 13.8269C21.1994 13.5652 20.9753 13.3638 20.7018 13.2666Z" fill="white"/>
</svg>
