<svg width="59" height="60" viewBox="0 0 59 60" fill="none" xmlns="http://www.w3.org/2000/svg">
<path d="M29.9186 -0.000976562C32.5705 -0.000976562 35.0949 0.617571 37.3586 1.72089C37.7142 1.88344 38.0712 2.07763 38.4253 2.27327L36.8727 3.66859L34.5452 1.23468L30.5334 4.80643L28.1719 2.24018L20.7957 8.89748L25.5186 14.1264L23.6742 15.749L28.3348 20.9779L26.4904 22.6005L33.1541 30.0374L37.0994 26.3995L40.529 30.2978C39.849 30.8171 39.1053 31.3378 38.2978 31.7924C35.7477 33.2418 32.8736 34.0016 29.9512 33.999C20.6016 33.9976 13.0001 26.3664 13.0001 16.9846C12.9675 7.66326 20.569 -0.000976562 29.9186 -0.000976562ZM26.812 15.946L30.8564 12.3081L34.4801 16.3675L30.4357 20.0054L26.812 15.946ZM29.6919 22.9601L33.7038 19.292L37.3586 23.3499L33.3142 26.9879L29.6919 22.9601ZM23.9363 9.02982L27.9793 5.3919L31.6015 9.4513L27.5585 13.0878L23.9363 9.02982ZM31.3423 7.08068L34.3511 4.35331L37.0696 7.37269L34.0607 10.1331L31.3423 7.08068ZM36.714 19.5825L39.7215 16.8552L42.4385 19.9062L39.4297 22.6364L36.714 19.5825ZM39.3659 25.7205L42.3748 22.9917L45.0904 26.0126L42.083 28.7716L39.3659 25.7205ZM40.5955 11.691L42.6 9.87277L44.4119 11.8867L42.406 13.7049L40.5955 11.691ZM38.0074 5.68391L40.0133 3.83402L41.8266 5.87954L39.8178 7.69779L38.0074 5.68391ZM43.1497 17.6996L45.1556 15.8813L47 17.8952L44.9629 19.7134L43.1497 17.6996ZM34.1259 13.1856L37.1348 10.4582L39.8518 13.4776L36.843 16.2064L34.1259 13.1856Z" fill="#9D9D9D"/>
<path d="M6.29883 52.0361L7.30664 47.6592H8.69531L6.9668 53.999H5.79492L4.43555 49.6455L3.09961 53.999H1.92773L0.193359 47.6592H1.58203L2.60742 51.9893L3.9082 47.6592H4.98047L6.29883 52.0361ZM12.4395 54.1162C11.5371 54.1162 10.8047 53.833 10.2422 53.2666C9.68359 52.6963 9.4043 51.9385 9.4043 50.9932V50.8174C9.4043 50.1846 9.52539 49.6201 9.76758 49.124C10.0137 48.624 10.3574 48.2354 10.7988 47.958C11.2402 47.6807 11.7324 47.542 12.2754 47.542C13.1387 47.542 13.8047 47.8174 14.2734 48.3682C14.7461 48.9189 14.9824 49.6982 14.9824 50.7061V51.2803H10.8398C10.8828 51.8037 11.0566 52.2178 11.3613 52.5225C11.6699 52.8271 12.0566 52.9795 12.5215 52.9795C13.1738 52.9795 13.7051 52.7158 14.1152 52.1885L14.8828 52.9209C14.6289 53.2998 14.2891 53.5947 13.8633 53.8057C13.4414 54.0127 12.9668 54.1162 12.4395 54.1162ZM12.2695 48.6846C11.8789 48.6846 11.5625 48.8213 11.3203 49.0947C11.082 49.3682 10.9297 49.749 10.8633 50.2373H13.5762V50.1318C13.5449 49.6553 13.418 49.2959 13.1953 49.0537C12.9727 48.8076 12.6641 48.6846 12.2695 48.6846ZM21.6562 50.8936C21.6562 51.8779 21.4355 52.6611 20.9941 53.2432C20.5566 53.8252 19.9531 54.1162 19.1836 54.1162C18.4414 54.1162 17.8633 53.8486 17.4492 53.3135L17.3789 53.999H16.0898V44.999H17.5137V48.2686C17.9238 47.7842 18.4766 47.542 19.1719 47.542C19.9453 47.542 20.5527 47.8291 20.9941 48.4033C21.4355 48.9775 21.6562 49.7803 21.6562 50.8115V50.8936ZM20.2324 50.7705C20.2324 50.083 20.1113 49.5674 19.8691 49.2236C19.627 48.8799 19.2754 48.708 18.8145 48.708C18.1973 48.708 17.7637 48.9775 17.5137 49.5166V52.1299C17.7676 52.6807 18.2051 52.9561 18.8262 52.9561C19.2715 52.9561 19.6152 52.79 19.8574 52.458C20.0996 52.126 20.2246 51.624 20.2324 50.9521V50.7705ZM24.1934 47.6592L24.2344 48.3213C24.6797 47.8018 25.2891 47.542 26.0625 47.542C26.9102 47.542 27.4902 47.8662 27.8027 48.5146C28.2637 47.8662 28.9121 47.542 29.748 47.542C30.4473 47.542 30.9668 47.7354 31.3066 48.1221C31.6504 48.5088 31.8262 49.0791 31.834 49.833V53.999H30.4102V49.874C30.4102 49.4717 30.3223 49.1768 30.1465 48.9893C29.9707 48.8018 29.6797 48.708 29.2734 48.708C28.9492 48.708 28.6836 48.7959 28.4766 48.9717C28.2734 49.1436 28.1309 49.3701 28.0488 49.6514L28.0547 53.999H26.6309V49.8271C26.6113 49.0811 26.2305 48.708 25.4883 48.708C24.918 48.708 24.5137 48.9404 24.2754 49.4053V53.999H22.8516V47.6592H24.1934ZM33.0293 50.7705C33.0293 50.1494 33.1523 49.5908 33.3984 49.0947C33.6445 48.5947 33.9902 48.2119 34.4355 47.9463C34.8809 47.6768 35.3926 47.542 35.9707 47.542C36.8262 47.542 37.5195 47.8174 38.0508 48.3682C38.5859 48.9189 38.875 49.6494 38.918 50.5596L38.9238 50.8936C38.9238 51.5186 38.8027 52.0771 38.5605 52.5693C38.3223 53.0615 37.9785 53.4424 37.5293 53.7119C37.084 53.9814 36.5684 54.1162 35.9824 54.1162C35.0879 54.1162 34.3711 53.8193 33.832 53.2256C33.2969 52.6279 33.0293 51.833 33.0293 50.8408V50.7705ZM34.4531 50.8936C34.4531 51.5459 34.5879 52.0576 34.8574 52.4287C35.127 52.7959 35.502 52.9795 35.9824 52.9795C36.4629 52.9795 36.8359 52.792 37.1016 52.417C37.3711 52.042 37.5059 51.4932 37.5059 50.7705C37.5059 50.1299 37.3672 49.6221 37.0898 49.2471C36.8164 48.8721 36.4434 48.6846 35.9707 48.6846C35.5059 48.6846 35.1367 48.8701 34.8633 49.2412C34.5898 49.6084 34.4531 50.1592 34.4531 50.8936ZM41.4492 47.6592L41.4902 48.3916C41.959 47.8252 42.5742 47.542 43.3359 47.542C44.6562 47.542 45.3281 48.2979 45.3516 49.8096V53.999H43.9277V49.8916C43.9277 49.4893 43.8398 49.1924 43.6641 49.001C43.4922 48.8057 43.209 48.708 42.8145 48.708C42.2402 48.708 41.8125 48.9678 41.5312 49.4873V53.999H40.1074V47.6592H41.4492ZM49.5996 54.1162C48.6973 54.1162 47.9648 53.833 47.4023 53.2666C46.8438 52.6963 46.5645 51.9385 46.5645 50.9932V50.8174C46.5645 50.1846 46.6855 49.6201 46.9277 49.124C47.1738 48.624 47.5176 48.2354 47.959 47.958C48.4004 47.6807 48.8926 47.542 49.4355 47.542C50.2988 47.542 50.9648 47.8174 51.4336 48.3682C51.9062 48.9189 52.1426 49.6982 52.1426 50.7061V51.2803H48C48.043 51.8037 48.2168 52.2178 48.5215 52.5225C48.8301 52.8271 49.2168 52.9795 49.6816 52.9795C50.334 52.9795 50.8652 52.7158 51.2754 52.1885L52.043 52.9209C51.7891 53.2998 51.4492 53.5947 51.0234 53.8057C50.6016 54.0127 50.127 54.1162 49.5996 54.1162ZM49.4297 48.6846C49.0391 48.6846 48.7227 48.8213 48.4805 49.0947C48.2422 49.3682 48.0898 49.749 48.0234 50.2373H50.7363V50.1318C50.7051 49.6553 50.5781 49.2959 50.3555 49.0537C50.1328 48.8076 49.8242 48.6846 49.4297 48.6846ZM55.3887 51.96L56.6777 47.6592H58.1953L55.6758 54.96C55.2891 56.0264 54.6328 56.5596 53.707 56.5596C53.5 56.5596 53.2715 56.5244 53.0215 56.4541V55.3525L53.291 55.3701C53.6504 55.3701 53.9199 55.3037 54.0996 55.1709C54.2832 55.042 54.4277 54.8232 54.5332 54.5146L54.7383 53.9697L52.5117 47.6592H54.0469L55.3887 51.96Z" fill="white"/>
</svg>
