<svg width="21" height="20" viewBox="0 0 21 20" fill="none" xmlns="http://www.w3.org/2000/svg">
<path d="M6.90679 14.498H13.0988C12.4788 17.771 11.2368 19.998 10.0028 19.998C8.80579 19.998 7.60279 17.904 6.96479 14.794L6.90679 14.5H13.0988H6.90679V14.498ZM1.06879 14.499H5.37279C5.73779 16.581 6.35579 18.353 7.16579 19.592C4.62332 18.8374 2.48324 17.1065 1.21379 14.778L1.06779 14.499H1.06879ZM14.6318 14.499H18.9368C18.321 15.7184 17.4626 16.7992 16.4141 17.675C15.3657 18.5508 14.1494 19.2031 12.8398 19.592C13.5948 18.434 14.1838 16.814 14.5548 14.911L14.6308 14.499H18.9368H14.6308H14.6318ZM14.9338 7.999H19.8038C20.1411 9.66068 20.0527 11.3807 19.5468 12.999H14.8428C14.9965 11.5564 15.0399 10.1042 14.9728 8.655L14.9328 7.998H19.8028H14.9328L14.9338 7.999ZM0.200791 7.998H5.07079C4.96651 9.46996 4.97788 10.9478 5.10479 12.418L5.16179 12.998H0.458791C-0.0477532 11.3798 -0.136509 9.65973 0.200791 7.998ZM6.57779 7.998H13.4278C13.542 9.47134 13.5296 10.9518 13.3908 12.423L13.3288 12.998H6.67679C6.50196 11.5007 6.4578 9.99098 6.54479 8.486L6.57779 7.998H13.4278H6.57779ZM12.9478 0.574L12.8388 0.404C14.3252 0.845252 15.6891 1.62523 16.8232 2.68262C17.9573 3.74002 18.8307 5.04603 19.3748 6.498H14.7828C14.4668 4.082 13.8268 2.006 12.9458 0.575L12.8378 0.405L12.9458 0.575L12.9478 0.574ZM7.04479 0.441L7.16679 0.404C6.28579 1.755 5.63079 3.734 5.28279 6.058L5.22179 6.498H0.630791C1.16738 5.06622 2.02427 3.7761 3.13595 2.7263C4.24763 1.67649 5.58466 0.894802 7.04479 0.441L7.16679 0.404L7.04479 0.441ZM10.0028 0C11.3218 0 12.6488 2.542 13.2168 6.183L13.2638 6.498H6.74179C7.28279 2.689 8.64579 0 10.0028 0Z" fill="#FFB800"/>
</svg>
