<svg width="22" height="20" viewBox="0 0 22 20" fill="none" xmlns="http://www.w3.org/2000/svg">
<path d="M11 9.74459C10.4067 9.74459 9.82664 9.92054 9.33329 10.2502C8.83994 10.5798 8.45542 11.0484 8.22836 11.5965C8.0013 12.1447 7.94189 12.7479 8.05764 13.3299C8.1734 13.9118 8.45912 14.4463 8.87868 14.8659C9.29824 15.2855 9.83279 15.5712 10.4147 15.6869C10.9967 15.8027 11.5999 15.7433 12.1481 15.5162C12.6962 15.2892 13.1648 14.9046 13.4944 14.4113C13.8241 13.918 14 13.3379 14 12.7446C14 11.9489 13.6839 11.1859 13.1213 10.6233C12.5587 10.0607 11.7956 9.74459 11 9.74459ZM11 13.7446C10.8022 13.7446 10.6089 13.6859 10.4444 13.5761C10.28 13.4662 10.1518 13.31 10.0761 13.1273C10.0004 12.9445 9.98063 12.7435 10.0192 12.5495C10.0578 12.3555 10.153 12.1773 10.2929 12.0375C10.4327 11.8976 10.6109 11.8024 10.8049 11.7638C10.9989 11.7252 11.2 11.745 11.3827 11.8207C11.5654 11.8964 11.7216 12.0246 11.8315 12.189C11.9414 12.3535 12 12.5468 12 12.7446C12 13.0098 11.8946 13.2642 11.7071 13.4517C11.5196 13.6392 11.2652 13.7446 11 13.7446ZM18 12.7446C18 12.5468 17.9414 12.3535 17.8315 12.189C17.7216 12.0246 17.5654 11.8964 17.3827 11.8207C17.2 11.745 16.9989 11.7252 16.8049 11.7638C16.6109 11.8024 16.4327 11.8976 16.2929 12.0375C16.153 12.1773 16.0578 12.3555 16.0192 12.5495C15.9806 12.7435 16.0004 12.9445 16.0761 13.1273C16.1518 13.31 16.28 13.4662 16.4444 13.5761C16.6089 13.6859 16.8022 13.7446 17 13.7446C17.2652 13.7446 17.5196 13.6392 17.7071 13.4517C17.8946 13.2642 18 13.0098 18 12.7446ZM19 5.7446H16C15.7348 5.7446 15.4804 5.84995 15.2929 6.03749C15.1054 6.22503 15 6.47938 15 6.7446C15 7.00981 15.1054 7.26417 15.2929 7.45171C15.4804 7.63924 15.7348 7.7446 16 7.7446H19C19.2652 7.7446 19.5196 7.84996 19.7071 8.03749C19.8946 8.22503 20 8.47938 20 8.7446V16.7446C20 17.0098 19.8946 17.2642 19.7071 17.4517C19.5196 17.6392 19.2652 17.7446 19 17.7446H3C2.73478 17.7446 2.48043 17.6392 2.29289 17.4517C2.10536 17.2642 2 17.0098 2 16.7446V8.7446C2 8.47938 2.10536 8.22503 2.29289 8.03749C2.48043 7.84996 2.73478 7.7446 3 7.7446H6C6.26522 7.7446 6.51957 7.63924 6.70711 7.45171C6.89464 7.26417 7 7.00981 7 6.7446C7 6.47938 6.89464 6.22503 6.70711 6.03749C6.51957 5.84995 6.26522 5.7446 6 5.7446H3C2.20435 5.7446 1.44129 6.06067 0.87868 6.62328C0.31607 7.18589 0 7.94895 0 8.7446V16.7446C0 17.5402 0.31607 18.3033 0.87868 18.8659C1.44129 19.4285 2.20435 19.7446 3 19.7446H19C19.7956 19.7446 20.5587 19.4285 21.1213 18.8659C21.6839 18.3033 22 17.5402 22 16.7446V8.7446C22 7.94895 21.6839 7.18589 21.1213 6.62328C20.5587 6.06067 19.7956 5.7446 19 5.7446ZM4 12.7446C4 12.9424 4.05865 13.1357 4.16853 13.3002C4.27841 13.4646 4.43459 13.5928 4.61732 13.6685C4.80004 13.7442 5.00111 13.764 5.19509 13.7254C5.38907 13.6868 5.56725 13.5915 5.70711 13.4517C5.84696 13.3118 5.9422 13.1337 5.98079 12.9397C6.01937 12.7457 5.99957 12.5446 5.92388 12.3619C5.84819 12.1792 5.72002 12.023 5.55557 11.9131C5.39112 11.8032 5.19778 11.7446 5 11.7446C4.73478 11.7446 4.48043 11.8499 4.29289 12.0375C4.10536 12.225 4 12.4794 4 12.7446Z" fill="#323232"/>
<path d="M11.1824 0.335604C11.3051 0.383198 11.4173 0.454563 11.5124 0.545604L13.8024 2.7956C13.996 2.98921 14.1048 3.2518 14.1048 3.5256C14.1048 3.79941 13.996 4.062 13.8024 4.2556C13.6088 4.44921 13.3462 4.55798 13.0724 4.55798C12.7986 4.55798 12.536 4.44921 12.3424 4.2556L11.8024 3.6656V7.2556C11.8024 7.52082 11.697 7.77517 11.5095 7.96271C11.3219 8.15025 11.0676 8.2556 10.8024 8.2556C10.5372 8.2556 10.2828 8.15025 10.0953 7.96271C9.90773 7.77517 9.80238 7.52082 9.80238 7.2556V3.6656L9.26237 4.2556C9.06877 4.44921 8.80618 4.55798 8.53238 4.55798C8.25857 4.55798 7.99598 4.44921 7.80238 4.2556C7.60877 4.062 7.5 3.79941 7.5 3.5256C7.5 3.2518 7.60877 2.98921 7.80238 2.7956L10.0924 0.545604C10.1875 0.454563 10.2996 0.383198 10.4224 0.335604C10.5421 0.282699 10.6715 0.255371 10.8024 0.255371C10.9332 0.255371 11.0627 0.282699 11.1824 0.335604Z" fill="#323232"/>
</svg>
