<svg width="25" height="18" viewBox="0 0 25 18" fill="none" xmlns="http://www.w3.org/2000/svg">
<path d="M12.5805 0H12.7195C14.004 0.00468779 20.5122 0.051566 22.267 0.523471C22.7975 0.667493 23.2809 0.948219 23.6689 1.3376C24.0569 1.72697 24.3359 2.21136 24.4781 2.74236C24.6359 3.33615 24.7469 4.12213 24.8219 4.93312L24.8375 5.09563L24.8719 5.50191L24.8844 5.66442C24.9859 7.09263 24.9984 8.43021 25 8.72242V8.83962C24.9984 9.14276 24.9844 10.571 24.8719 12.0586L24.8594 12.2226L24.8453 12.3851C24.7672 13.279 24.6515 14.1665 24.4781 14.8197C24.3364 15.3509 24.0575 15.8355 23.6694 16.2249C23.2814 16.6144 22.7977 16.895 22.267 17.0386C20.4544 17.5261 13.5649 17.5605 12.6102 17.562H12.3883C11.9054 17.562 9.90843 17.5527 7.81455 17.4808L7.54891 17.4714L7.41296 17.4652L7.14576 17.4542L6.87856 17.4433C5.14407 17.3667 3.49241 17.2433 2.73142 17.037C2.2009 16.8935 1.7174 16.6132 1.32934 16.224C0.941283 15.8349 0.662302 15.3506 0.520345 14.8197C0.346897 14.1681 0.231264 13.279 0.153135 12.3851L0.140634 12.2211L0.128133 12.0586C0.0510151 10.9997 0.00828156 9.93871 0 8.87712L0 8.68492C0.0031252 8.34896 0.015626 7.18795 0.100006 5.90662L0.110944 5.74567L0.115632 5.66442L0.128133 5.50191L0.16251 5.09563L0.178136 4.93312C0.253141 4.12213 0.364085 3.33458 0.521908 2.74236C0.663625 2.21115 0.9425 1.72653 1.33057 1.33709C1.71865 0.947643 2.20228 0.667061 2.73298 0.523471C3.49397 0.320333 5.14563 0.195325 6.88012 0.117195L7.14576 0.106257L7.41453 0.0968813L7.54891 0.0921935L7.81611 0.0812553C9.30325 0.0334001 10.791 0.00683303 12.2789 0.00156267H12.5805V0ZM10.0006 5.01594V12.5445L16.4963 8.7818L10.0006 5.01594Z" fill="#FFB800"/>
</svg>
